<?xml version="1.0" encoding="UTF-8" standalone="no"?><svg xmlns="http://www.w3.org/2000/svg" xmlns:xlink="http://www.w3.org/1999/xlink" contentScriptType="application/ecmascript" contentStyleType="text/css" height="700px" preserveAspectRatio="none" style="width:1285px;height:700px;background:#FFFFFF;" version="1.1" viewBox="0 0 1285 700" width="1285px" zoomAndPan="magnify"><defs><filter height="300%" id="fuevsgsv0hjng" width="300%" x="-1" y="-1"><feGaussianBlur result="blurOut" stdDeviation="2.0"/><feColorMatrix in="blurOut" result="blurOut2" type="matrix" values="0 0 0 0 0 0 0 0 0 0 0 0 0 0 0 0 0 0 .4 0"/><feOffset dx="4.0" dy="4.0" in="blurOut2" result="blurOut3"/><feBlend in="SourceGraphic" in2="blurOut3" mode="normal"/></filter></defs><g><rect fill="#FFFFFF" filter="url(#fuevsgsv0hjng)" height="504.2734" style="stroke:#A80036;stroke-width:1.0;" width="10" x="54" y="99.6094"/><rect fill="#FFFFFF" filter="url(#fuevsgsv0hjng)" height="465.5703" style="stroke:#A80036;stroke-width:1.0;" width="10" x="363" y="138.3125"/><rect fill="#FFFFFF" filter="url(#fuevsgsv0hjng)" height="91.0547" style="stroke:#A80036;stroke-width:1.0;" width="10" x="689" y="168.6641"/><rect fill="#FFFFFF" filter="url(#fuevsgsv0hjng)" height="151.0547" style="stroke:#A80036;stroke-width:1.0;" width="10" x="689" y="345.7734"/><rect fill="#FFFFFF" filter="url(#fuevsgsv0hjng)" height="30.3516" style="stroke:#A80036;stroke-width:1.0;" width="10" x="689" y="534.1797"/><rect fill="#FFFFFF" filter="url(#fuevsgsv0hjng)" height="30" style="stroke:#A80036;stroke-width:1.0;" width="10" x="937" y="376.125"/><rect fill="#FFFFFF" filter="url(#fuevsgsv0hjng)" height="30.3516" style="stroke:#A80036;stroke-width:1.0;" width="10" x="1201" y="199.0156"/><rect fill="#FFFFFF" filter="url(#fuevsgsv0hjng)" height="30" style="stroke:#A80036;stroke-width:1.0;" width="10" x="1201" y="436.4766"/><rect fill="#FFFFFF" filter="url(#fuevsgsv0hjng)" height="230.1094" style="stroke:#000000;stroke-width:2.0;" width="1261.5" x="10" y="274.7188"/><line style="stroke:#A80036;stroke-width:1.0;stroke-dasharray:5.0,5.0;" x1="59" x2="59" y1="89.6094" y2="612.8828"/><line style="stroke:#A80036;stroke-width:1.0;stroke-dasharray:5.0,5.0;" x1="367.5" x2="367.5" y1="89.6094" y2="612.8828"/><line style="stroke:#A80036;stroke-width:1.0;stroke-dasharray:5.0,5.0;" x1="693.5" x2="693.5" y1="89.6094" y2="612.8828"/><line style="stroke:#A80036;stroke-width:1.0;stroke-dasharray:5.0,5.0;" x1="941.5" x2="941.5" y1="89.6094" y2="612.8828"/><line style="stroke:#A80036;stroke-width:1.0;stroke-dasharray:5.0,5.0;" x1="1205.5" x2="1205.5" y1="89.6094" y2="612.8828"/><text fill="#000000" font-family="sans-serif" font-size="14" lengthAdjust="spacing" textLength="72" x="20" y="86.5332">Sales Clerk</text><ellipse cx="59" cy="15" fill="#FEFECE" filter="url(#fuevsgsv0hjng)" rx="8" ry="8" style="stroke:#A80036;stroke-width:2.0;"/><path d="M59,23 L59,50 M46,31 L72,31 M59,50 L46,65 M59,50 L72,65 " fill="none" filter="url(#fuevsgsv0hjng)" style="stroke:#A80036;stroke-width:2.0;"/><text fill="#000000" font-family="sans-serif" font-size="14" lengthAdjust="spacing" textLength="72" x="20" y="626.416">Sales Clerk</text><ellipse cx="59" cy="639.4922" fill="#FEFECE" filter="url(#fuevsgsv0hjng)" rx="8" ry="8" style="stroke:#A80036;stroke-width:2.0;"/><path d="M59,647.4922 L59,674.4922 M46,655.4922 L72,655.4922 M59,674.4922 L46,689.4922 M59,674.4922 L72,689.4922 " fill="none" filter="url(#fuevsgsv0hjng)" style="stroke:#A80036;stroke-width:2.0;"/><rect fill="#FEFECE" filter="url(#fuevsgsv0hjng)" height="49.2188" style="stroke:#A80036;stroke-width:1.5;" width="221" x="255.5" y="35.3906"/><text fill="#000000" font-family="sans-serif" font-size="14" font-style="italic" lengthAdjust="spacing" textLength="95" x="318.5" y="56.9238">«presentation»</text><text fill="#000000" font-family="sans-serif" font-size="14" lengthAdjust="spacing" textLength="207" x="262.5" y="74.5332">UpdateOrderToBeingDeliveredUI</text><rect fill="#FEFECE" filter="url(#fuevsgsv0hjng)" height="49.2188" style="stroke:#A80036;stroke-width:1.5;" width="221" x="255.5" y="611.8828"/><text fill="#000000" font-family="sans-serif" font-size="14" font-style="italic" lengthAdjust="spacing" textLength="95" x="318.5" y="633.416">«presentation»</text><text fill="#000000" font-family="sans-serif" font-size="14" lengthAdjust="spacing" textLength="207" x="262.5" y="651.0254">UpdateOrderToBeingDeliveredUI</text><rect fill="#FEFECE" filter="url(#fuevsgsv0hjng)" height="49.2188" style="stroke:#A80036;stroke-width:1.5;" width="271" x="556.5" y="35.3906"/><text fill="#000000" font-family="sans-serif" font-size="14" font-style="italic" lengthAdjust="spacing" textLength="84" x="650" y="56.9238">«application»</text><text fill="#000000" font-family="sans-serif" font-size="14" lengthAdjust="spacing" textLength="257" x="563.5" y="74.5332">UpdateOrderToBeingDeliveredController</text><rect fill="#FEFECE" filter="url(#fuevsgsv0hjng)" height="49.2188" style="stroke:#A80036;stroke-width:1.5;" width="271" x="556.5" y="611.8828"/><text fill="#000000" font-family="sans-serif" font-size="14" font-style="italic" lengthAdjust="spacing" textLength="84" x="650" y="633.416">«application»</text><text fill="#000000" font-family="sans-serif" font-size="14" lengthAdjust="spacing" textLength="257" x="563.5" y="651.0254">UpdateOrderToBeingDeliveredController</text><rect fill="#FEFECE" filter="url(#fuevsgsv0hjng)" height="31.6094" style="stroke:#A80036;stroke-width:1.5;" width="51" x="914.5" y="53"/><text fill="#000000" font-family="sans-serif" font-size="14" lengthAdjust="spacing" textLength="37" x="921.5" y="74.5332">Order</text><rect fill="#FEFECE" filter="url(#fuevsgsv0hjng)" height="31.6094" style="stroke:#A80036;stroke-width:1.5;" width="51" x="914.5" y="611.8828"/><text fill="#000000" font-family="sans-serif" font-size="14" lengthAdjust="spacing" textLength="37" x="921.5" y="633.416">Order</text><text fill="#000000" font-family="sans-serif" font-size="14" font-style="italic" lengthAdjust="spacing" textLength="79" x="1163.5" y="68.9238">«repository»</text><text fill="#000000" font-family="sans-serif" font-size="14" lengthAdjust="spacing" textLength="105" x="1150.5" y="86.5332">OrderRepository</text><path d="M1188,18.3906 C1188,8.3906 1206,8.3906 1206,8.3906 C1206,8.3906 1224,8.3906 1224,18.3906 L1224,44.3906 C1224,54.3906 1206,54.3906 1206,54.3906 C1206,54.3906 1188,54.3906 1188,44.3906 L1188,18.3906 " fill="#FEFECE" filter="url(#fuevsgsv0hjng)" style="stroke:#000000;stroke-width:1.5;"/><path d="M1188,18.3906 C1188,28.3906 1206,28.3906 1206,28.3906 C1206,28.3906 1224,28.3906 1224,18.3906 " fill="none" style="stroke:#000000;stroke-width:1.5;"/><text fill="#000000" font-family="sans-serif" font-size="14" font-style="italic" lengthAdjust="spacing" textLength="79" x="1163.5" y="626.416">«repository»</text><text fill="#000000" font-family="sans-serif" font-size="14" lengthAdjust="spacing" textLength="105" x="1150.5" y="644.0254">OrderRepository</text><path d="M1188,657.1016 C1188,647.1016 1206,647.1016 1206,647.1016 C1206,647.1016 1224,647.1016 1224,657.1016 L1224,683.1016 C1224,693.1016 1206,693.1016 1206,693.1016 C1206,693.1016 1188,693.1016 1188,683.1016 L1188,657.1016 " fill="#FEFECE" filter="url(#fuevsgsv0hjng)" style="stroke:#000000;stroke-width:1.5;"/><path d="M1188,657.1016 C1188,667.1016 1206,667.1016 1206,667.1016 C1206,667.1016 1224,667.1016 1224,657.1016 " fill="none" style="stroke:#000000;stroke-width:1.5;"/><rect fill="#FFFFFF" filter="url(#fuevsgsv0hjng)" height="504.2734" style="stroke:#A80036;stroke-width:1.0;" width="10" x="54" y="99.6094"/><rect fill="#FFFFFF" filter="url(#fuevsgsv0hjng)" height="465.5703" style="stroke:#A80036;stroke-width:1.0;" width="10" x="363" y="138.3125"/><rect fill="#FFFFFF" filter="url(#fuevsgsv0hjng)" height="91.0547" style="stroke:#A80036;stroke-width:1.0;" width="10" x="689" y="168.6641"/><rect fill="#FFFFFF" filter="url(#fuevsgsv0hjng)" height="151.0547" style="stroke:#A80036;stroke-width:1.0;" width="10" x="689" y="345.7734"/><rect fill="#FFFFFF" filter="url(#fuevsgsv0hjng)" height="30.3516" style="stroke:#A80036;stroke-width:1.0;" width="10" x="689" y="534.1797"/><rect fill="#FFFFFF" filter="url(#fuevsgsv0hjng)" height="30" style="stroke:#A80036;stroke-width:1.0;" width="10" x="937" y="376.125"/><rect fill="#FFFFFF" filter="url(#fuevsgsv0hjng)" height="30.3516" style="stroke:#A80036;stroke-width:1.0;" width="10" x="1201" y="199.0156"/><rect fill="#FFFFFF" filter="url(#fuevsgsv0hjng)" height="30" style="stroke:#A80036;stroke-width:1.0;" width="10" x="1201" y="436.4766"/><polygon fill="#A80036" points="351,134.3125,361,138.3125,351,142.3125,355,138.3125" style="stroke:#A80036;stroke-width:1.0;"/><line style="stroke:#A80036;stroke-width:1.0;" x1="64" x2="357" y1="138.3125" y2="138.3125"/><text fill="#000000" font-family="sans-serif" font-size="13" font-weight="bold" lengthAdjust="spacing" textLength="7" x="71" y="125.2803">1</text><text fill="#000000" font-family="sans-serif" font-size="13" lengthAdjust="spacing" textLength="265" x="82" y="117.1045">Starts the process to access the list of orders</text><text fill="#000000" font-family="sans-serif" font-size="13" lengthAdjust="spacing" textLength="171" x="86" y="133.4561">that are ready to be delivered.</text><polygon fill="#A80036" points="677,164.6641,687,168.6641,677,172.6641,681,168.6641" style="stroke:#A80036;stroke-width:1.0;"/><line style="stroke:#A80036;stroke-width:1.0;" x1="373" x2="683" y1="168.6641" y2="168.6641"/><text fill="#000000" font-family="sans-serif" font-size="13" font-weight="bold" lengthAdjust="spacing" textLength="7" x="380" y="163.8076">2</text><text fill="#000000" font-family="sans-serif" font-size="13" lengthAdjust="spacing" textLength="157" x="391" y="163.8076">asks for list of ready orders</text><polygon fill="#A80036" points="1189,195.0156,1199,199.0156,1189,203.0156,1193,199.0156" style="stroke:#A80036;stroke-width:1.0;"/><line style="stroke:#A80036;stroke-width:1.0;" x1="699" x2="1195" y1="199.0156" y2="199.0156"/><text fill="#000000" font-family="sans-serif" font-size="13" font-weight="bold" lengthAdjust="spacing" textLength="7" x="706" y="194.1592">3</text><text fill="#000000" font-family="sans-serif" font-size="13" lengthAdjust="spacing" textLength="472" x="717" y="194.1592">Starts communication to database (order READY_TO_BE_DELIVERED state list)</text><polygon fill="#A80036" points="710,225.3672,700,229.3672,710,233.3672,706,229.3672" style="stroke:#A80036;stroke-width:1.0;"/><line style="stroke:#A80036;stroke-width:1.0;" x1="704" x2="1205" y1="229.3672" y2="229.3672"/><text fill="#000000" font-family="sans-serif" font-size="13" font-weight="bold" lengthAdjust="spacing" textLength="7" x="716" y="224.5107">4</text><text fill="#000000" font-family="sans-serif" font-size="13" lengthAdjust="spacing" textLength="61" x="727" y="224.5107">returns list</text><polygon fill="#A80036" points="384,255.7188,374,259.7188,384,263.7188,380,259.7188" style="stroke:#A80036;stroke-width:1.0;"/><line style="stroke:#A80036;stroke-width:1.0;" x1="378" x2="693" y1="259.7188" y2="259.7188"/><text fill="#000000" font-family="sans-serif" font-size="13" font-weight="bold" lengthAdjust="spacing" textLength="7" x="390" y="254.8623">5</text><text fill="#000000" font-family="sans-serif" font-size="13" lengthAdjust="spacing" textLength="124" x="401" y="254.8623">Shows list as options</text><path d="M10,274.7188 L83,274.7188 L83,282.7188 L73,292.7188 L10,292.7188 L10,274.7188 " fill="#EEEEEE" style="stroke:#000000;stroke-width:1.0;"/><rect fill="none" height="230.1094" style="stroke:#000000;stroke-width:2.0;" width="1261.5" x="10" y="274.7188"/><text fill="#000000" font-family="sans-serif" font-size="13" font-weight="bold" lengthAdjust="spacing" textLength="28" x="25" y="289.2139">loop</text><text fill="#000000" font-family="sans-serif" font-size="11" font-weight="bold" lengthAdjust="spacing" textLength="407" x="98" y="288.1377">[this can be done for as many orders as the warehouse employee needs]</text><polygon fill="#A80036" points="351,311.4219,361,315.4219,351,319.4219,355,315.4219" style="stroke:#A80036;stroke-width:1.0;"/><line style="stroke:#A80036;stroke-width:1.0;" x1="64" x2="357" y1="315.4219" y2="315.4219"/><text fill="#000000" font-family="sans-serif" font-size="13" font-weight="bold" lengthAdjust="spacing" textLength="7" x="71" y="310.5654">6</text><text fill="#000000" font-family="sans-serif" font-size="13" lengthAdjust="spacing" textLength="175" x="82" y="310.5654">Chooses order to update state</text><polygon fill="#A80036" points="677,341.7734,687,345.7734,677,349.7734,681,345.7734" style="stroke:#A80036;stroke-width:1.0;"/><line style="stroke:#A80036;stroke-width:1.0;" x1="373" x2="683" y1="345.7734" y2="345.7734"/><text fill="#000000" font-family="sans-serif" font-size="13" font-weight="bold" lengthAdjust="spacing" textLength="7" x="380" y="340.917">7</text><text fill="#000000" font-family="sans-serif" font-size="13" lengthAdjust="spacing" textLength="117" x="391" y="340.917">Sends info (OrderID)</text><polygon fill="#A80036" points="925,372.125,935,376.125,925,380.125,929,376.125" style="stroke:#A80036;stroke-width:1.0;"/><line style="stroke:#A80036;stroke-width:1.0;" x1="699" x2="931" y1="376.125" y2="376.125"/><text fill="#000000" font-family="sans-serif" font-size="13" font-weight="bold" lengthAdjust="spacing" textLength="7" x="706" y="371.2686">8</text><text fill="#000000" font-family="sans-serif" font-size="13" lengthAdjust="spacing" textLength="208" x="717" y="371.2686">updates order state to DELIVERING</text><polygon fill="#A80036" points="1189,432.4766,1199,436.4766,1189,440.4766,1193,436.4766" style="stroke:#A80036;stroke-width:1.0;"/><line style="stroke:#A80036;stroke-width:1.0;" x1="699" x2="1195" y1="436.4766" y2="436.4766"/><text fill="#000000" font-family="sans-serif" font-size="13" font-weight="bold" lengthAdjust="spacing" textLength="7" x="706" y="431.6201">9</text><text fill="#000000" font-family="sans-serif" font-size="13" lengthAdjust="spacing" textLength="76" x="717" y="431.6201">saves update</text><polygon fill="#A80036" points="384,492.8281,374,496.8281,384,500.8281,380,496.8281" style="stroke:#A80036;stroke-width:1.0;"/><line style="stroke:#A80036;stroke-width:1.0;" x1="378" x2="693" y1="496.8281" y2="496.8281"/><text fill="#000000" font-family="sans-serif" font-size="13" font-weight="bold" lengthAdjust="spacing" textLength="14" x="390" y="491.9717">10</text><text fill="#000000" font-family="sans-serif" font-size="13" lengthAdjust="spacing" textLength="274" x="408" y="491.9717">removes option from list and shows updated list</text><polygon fill="#A80036" points="677,530.1797,687,534.1797,677,538.1797,681,534.1797" style="stroke:#A80036;stroke-width:1.0;"/><line style="stroke:#A80036;stroke-width:1.0;" x1="373" x2="683" y1="534.1797" y2="534.1797"/><text fill="#000000" font-family="sans-serif" font-size="13" font-weight="bold" lengthAdjust="spacing" textLength="14" x="380" y="529.3232">11</text><text fill="#000000" font-family="sans-serif" font-size="13" lengthAdjust="spacing" textLength="87" x="398" y="529.3232">Ends operation</text><polygon fill="#A80036" points="384,560.5313,374,564.5313,384,568.5313,380,564.5313" style="stroke:#A80036;stroke-width:1.0;"/><line style="stroke:#A80036;stroke-width:1.0;stroke-dasharray:2.0,2.0;" x1="378" x2="693" y1="564.5313" y2="564.5313"/><text fill="#000000" font-family="sans-serif" font-size="13" font-weight="bold" lengthAdjust="spacing" textLength="14" x="390" y="559.6748">12</text><text fill="#000000" font-family="sans-serif" font-size="13" lengthAdjust="spacing" textLength="156" x="408" y="559.6748">informs operation success.</text><polygon fill="#A80036" points="75,590.8828,65,594.8828,75,598.8828,71,594.8828" style="stroke:#A80036;stroke-width:1.0;"/><line style="stroke:#A80036;stroke-width:1.0;stroke-dasharray:2.0,2.0;" x1="69" x2="362" y1="594.8828" y2="594.8828"/><text fill="#000000" font-family="sans-serif" font-size="13" font-weight="bold" lengthAdjust="spacing" textLength="14" x="81" y="590.0264">13</text><text fill="#000000" font-family="sans-serif" font-size="13" lengthAdjust="spacing" textLength="156" x="99" y="590.0264">informs operation success.</text><!--MD5=[32886092bd68c662c294a440c8602729]
@startuml

autonumber
actor "Sales Clerk" as WE
participant UpdateOrderToBeingDeliveredUI as UI <<presentation>>
participant UpdateOrderToBeingDeliveredController as Controller <<application>>
participant Order as ORD
database OrderRepository as Repository <<repository>>

activate WE
WE -> UI : Starts the process to access the list of orders \n that are ready to be delivered.
activate UI
UI -> Controller: asks for list of ready orders
activate Controller

Controller ->Repository : Starts communication to database (order READY_TO_BE_DELIVERED state list)
activate Repository
Repository -> Controller : returns list
deactivate Repository
Controller -> UI: Shows list as options
deactivate Controller
loop this can be done for as many orders as the warehouse employee needs
WE -> UI: Chooses order to update state
UI -> Controller: Sends info (OrderID)
activate Controller
Controller -> ORD: updates order state to DELIVERING
activate ORD
deactivate ORD
Controller -> Repository : saves update
activate Repository

deactivate Repository

Controller -> UI: removes option from list and shows updated list
deactivate Controller
end loop
UI->Controller: Ends operation
activate Controller
Controller - ->UI: informs operation success.
deactivate Controller
UI - -> WE : informs operation success.

@enduml

PlantUML version 1.2021.11(Sat Oct 02 14:26:11 BST 2021)
(GPL source distribution)
Java Runtime: OpenJDK Runtime Environment
JVM: OpenJDK 64-Bit Server VM
Default Encoding: Cp1252
Language: pt
Country: PT
--></g></svg>