<?xml version="1.0" encoding="UTF-8" standalone="no"?><svg xmlns="http://www.w3.org/2000/svg" xmlns:xlink="http://www.w3.org/1999/xlink" contentScriptType="application/ecmascript" contentStyleType="text/css" height="595px" preserveAspectRatio="none" style="width:970px;height:595px;background:#FFFFFF;" version="1.1" viewBox="0 0 970 595" width="970px" zoomAndPan="magnify"><defs><filter height="300%" id="f15a42z936a1kp" width="300%" x="-1" y="-1"><feGaussianBlur result="blurOut" stdDeviation="2.0"/><feColorMatrix in="blurOut" result="blurOut2" type="matrix" values="0 0 0 0 0 0 0 0 0 0 0 0 0 0 0 0 0 0 .4 0"/><feOffset dx="4.0" dy="4.0" in="blurOut2" result="blurOut3"/><feBlend in="SourceGraphic" in2="blurOut3" mode="normal"/></filter></defs><g><!--MD5=[9681dc6e01e10c6b4fe06895ae94f592]
cluster UI--><polygon fill="#FFFFFF" filter="url(#f15a42z936a1kp)" points="386,6,406,6,413,29.6094,568,29.6094,568,120,386,120,386,6" style="stroke:#000000;stroke-width:1.5;"/><line style="stroke:#000000;stroke-width:1.5;" x1="386" x2="413" y1="29.6094" y2="29.6094"/><text fill="#000000" font-family="sans-serif" font-size="14" font-weight="bold" lengthAdjust="spacing" textLength="14" x="390" y="22.5332">UI</text><!--MD5=[1f2cfc53d9d308f53762fd0fcbaa4873]
cluster Controller--><polygon fill="#FFFFFF" filter="url(#f15a42z936a1kp)" points="327,144,404,144,411,167.6094,627,167.6094,627,382,327,382,327,144" style="stroke:#000000;stroke-width:1.5;"/><line style="stroke:#000000;stroke-width:1.5;" x1="327" x2="411" y1="167.6094" y2="167.6094"/><text fill="#000000" font-family="sans-serif" font-size="14" font-weight="bold" lengthAdjust="spacing" textLength="71" x="331" y="160.5332">Controller</text><!--MD5=[2c2e2644034c00788261e03c85b06837]
cluster Core--><polygon fill="#FFFFFF" filter="url(#f15a42z936a1kp)" points="16,406,56,406,63,429.6094,953,429.6094,953,588,16,588,16,406" style="stroke:#000000;stroke-width:1.5;"/><line style="stroke:#000000;stroke-width:1.5;" x1="16" x2="63" y1="429.6094" y2="429.6094"/><text fill="#000000" font-family="sans-serif" font-size="14" font-weight="bold" lengthAdjust="spacing" textLength="34" x="20" y="422.5332">Core</text><!--MD5=[acb0c8402f85a957a6e5910fb75f4576]
cluster Auth--><polygon fill="#FFFFFF" filter="url(#f15a42z936a1kp)" points="673,450,711,450,718,473.6094,929,473.6094,929,564,673,564,673,450" style="stroke:#000000;stroke-width:1.5;"/><line style="stroke:#000000;stroke-width:1.5;" x1="673" x2="718" y1="473.6094" y2="473.6094"/><text fill="#000000" font-family="sans-serif" font-size="14" font-weight="bold" lengthAdjust="spacing" textLength="32" x="677" y="466.5332">Auth</text><!--MD5=[f21b1f164e99c6b37934f23ad048ad54]
cluster Data--><polygon fill="#FFFFFF" filter="url(#f15a42z936a1kp)" points="308,450,345,450,352,473.6094,649,473.6094,649,564,308,564,308,450" style="stroke:#000000;stroke-width:1.5;"/><line style="stroke:#000000;stroke-width:1.5;" x1="308" x2="352" y1="473.6094" y2="473.6094"/><text fill="#000000" font-family="sans-serif" font-size="14" font-weight="bold" lengthAdjust="spacing" textLength="31" x="312" y="466.5332">Data</text><!--MD5=[15636c1ca4a123c16a2a1a8e90aca7a9]
cluster Model--><polygon fill="#FFFFFF" filter="url(#f15a42z936a1kp)" points="40,450,90,450,97,473.6094,284,473.6094,284,564,40,564,40,450" style="stroke:#000000;stroke-width:1.5;"/><line style="stroke:#000000;stroke-width:1.5;" x1="40" x2="97" y1="473.6094" y2="473.6094"/><text fill="#000000" font-family="sans-serif" font-size="14" font-weight="bold" lengthAdjust="spacing" textLength="44" x="44" y="466.5332">Model</text><!--MD5=[60980612b141bad7eafb87f24579ed74]
class SpecifyNewProductUI--><rect codeLine="3" fill="#FEFECE" filter="url(#f15a42z936a1kp)" height="61.8359" id="SpecifyNewProductUI" style="stroke:#A80036;stroke-width:1.5;" width="150" x="402" y="42"/><ellipse cx="417" cy="58" fill="#ADD1B2" rx="11" ry="11" style="stroke:#A80036;stroke-width:1.0;"/><path d="M419,54.5 Q419.2031,54 419.4375,53.75 Q419.6719,53.5 419.9375,53.5 Q420.4063,53.5 420.7031,53.7813 Q421,54.0625 421,54.7188 L421,56.2813 Q421,56.9375 420.7188,57.2188 Q420.4375,57.5 420,57.5 Q419.6094,57.5 419.3594,57.3281 Q419.1094,57.1563 419,56.7031 Q418.9531,56.3906 418.7813,56.2188 Q418.4688,55.8906 417.9063,55.7031 Q417.3438,55.5 416.7813,55.5 Q416.0781,55.5 415.4844,55.7813 Q414.9063,56.0625 414.4531,56.6875 Q414,57.3125 414,58.1719 L414,59.0938 Q414,60.125 414.8438,60.8125 Q415.6875,61.5 417.1875,61.5 Q418.0781,61.5 418.7031,61.2969 Q419.0625,61.1875 419.4688,60.8281 Q419.7344,60.625 419.875,60.5625 Q420.0156,60.5 420.1875,60.5 Q420.5156,60.5 420.75,60.7656 Q421,61.0156 421,61.375 Q421,61.7188 420.6563,62.125 Q420.1563,62.7188 419.3594,63.0469 Q418.3125,63.5 417.0313,63.5 Q415.5313,63.5 414.3281,62.9063 Q413.3594,62.4375 412.6719,61.4219 Q412,60.4063 412,59.2031 L412,58.1094 Q412,56.8594 412.5938,55.7656 Q413.2031,54.6719 414.25,54.0938 Q415.3125,53.5 416.5,53.5 Q417.2188,53.5 417.8438,53.75 Q418.4688,54 419,54.5 Z " fill="#000000"/><text fill="#000000" font-family="sans-serif" font-size="12" lengthAdjust="spacing" textLength="118" x="431" y="62.9102">SpecifyNewProductUI</text><line style="stroke:#A80036;stroke-width:1.5;" x1="403" x2="551" y1="74" y2="74"/><line style="stroke:#A80036;stroke-width:1.5;" x1="403" x2="551" y1="82" y2="82"/><ellipse cx="413" cy="93" fill="#84BE84" rx="3" ry="3" style="stroke:#038048;stroke-width:1.0;"/><text fill="#000000" font-family="sans-serif" font-size="11" lengthAdjust="spacing" textLength="49" x="422" y="97.4189">doShow()</text><!--MD5=[ab63ddbbe11f7d2a0302e90075dc46cf]
class SpecifyNewProductController--><rect codeLine="9" fill="#FEFECE" filter="url(#f15a42z936a1kp)" height="186.3594" id="SpecifyNewProductController" style="stroke:#A80036;stroke-width:1.5;" width="268" x="343" y="180"/><ellipse cx="392.75" cy="196" fill="#ADD1B2" rx="11" ry="11" style="stroke:#A80036;stroke-width:1.0;"/><path d="M394.75,192.5 Q394.9531,192 395.1875,191.75 Q395.4219,191.5 395.6875,191.5 Q396.1563,191.5 396.4531,191.7813 Q396.75,192.0625 396.75,192.7188 L396.75,194.2813 Q396.75,194.9375 396.4688,195.2188 Q396.1875,195.5 395.75,195.5 Q395.3594,195.5 395.1094,195.3281 Q394.8594,195.1563 394.75,194.7031 Q394.7031,194.3906 394.5313,194.2188 Q394.2188,193.8906 393.6563,193.7031 Q393.0938,193.5 392.5313,193.5 Q391.8281,193.5 391.2344,193.7813 Q390.6563,194.0625 390.2031,194.6875 Q389.75,195.3125 389.75,196.1719 L389.75,197.0938 Q389.75,198.125 390.5938,198.8125 Q391.4375,199.5 392.9375,199.5 Q393.8281,199.5 394.4531,199.2969 Q394.8125,199.1875 395.2188,198.8281 Q395.4844,198.625 395.625,198.5625 Q395.7656,198.5 395.9375,198.5 Q396.2656,198.5 396.5,198.7656 Q396.75,199.0156 396.75,199.375 Q396.75,199.7188 396.4063,200.125 Q395.9063,200.7188 395.1094,201.0469 Q394.0625,201.5 392.7813,201.5 Q391.2813,201.5 390.0781,200.9063 Q389.1094,200.4375 388.4219,199.4219 Q387.75,198.4063 387.75,197.2031 L387.75,196.1094 Q387.75,194.8594 388.3438,193.7656 Q388.9531,192.6719 390,192.0938 Q391.0625,191.5 392.25,191.5 Q392.9688,191.5 393.5938,191.75 Q394.2188,192 394.75,192.5 Z " fill="#000000"/><text fill="#000000" font-family="sans-serif" font-size="12" lengthAdjust="spacing" textLength="160" x="413.25" y="200.9102">SpecifyNewProductController</text><line style="stroke:#A80036;stroke-width:1.5;" x1="344" x2="610" y1="212" y2="212"/><line style="stroke:#A80036;stroke-width:1.5;" x1="344" x2="610" y1="220" y2="220"/><ellipse cx="354" cy="231" fill="#84BE84" rx="3" ry="3" style="stroke:#038048;stroke-width:1.0;"/><text fill="#000000" font-family="sans-serif" font-size="11" lengthAdjust="spacing" textLength="87" x="363" y="235.4189">getAllCategories()</text><ellipse cx="354" cy="244.8359" fill="#84BE84" rx="3" ry="3" style="stroke:#038048;stroke-width:1.0;"/><text fill="#000000" font-family="sans-serif" font-size="11" lengthAdjust="spacing" textLength="242" x="363" y="249.2549">specifyNewProduct(intCode, sDesc, eDesc, barc)</text><ellipse cx="354" cy="258.6719" fill="#84BE84" rx="3" ry="3" style="stroke:#038048;stroke-width:1.0;"/><text fill="#000000" font-family="sans-serif" font-size="11" lengthAdjust="spacing" textLength="147" x="363" y="263.0908">setCategory(chosenCategory)</text><ellipse cx="354" cy="272.5078" fill="#84BE84" rx="3" ry="3" style="stroke:#038048;stroke-width:1.0;"/><text fill="#000000" font-family="sans-serif" font-size="11" lengthAdjust="spacing" textLength="123" x="363" y="276.9268">setProductionCode(code)</text><ellipse cx="354" cy="286.3438" fill="#84BE84" rx="3" ry="3" style="stroke:#038048;stroke-width:1.0;"/><text fill="#000000" font-family="sans-serif" font-size="11" lengthAdjust="spacing" textLength="88" x="363" y="290.7627">setReference(ref)</text><ellipse cx="354" cy="300.1797" fill="#84BE84" rx="3" ry="3" style="stroke:#038048;stroke-width:1.0;"/><text fill="#000000" font-family="sans-serif" font-size="11" lengthAdjust="spacing" textLength="80" x="363" y="304.5986">setBrand(brand)</text><ellipse cx="354" cy="314.0156" fill="#84BE84" rx="3" ry="3" style="stroke:#038048;stroke-width:1.0;"/><text fill="#000000" font-family="sans-serif" font-size="11" lengthAdjust="spacing" textLength="71" x="363" y="318.4346">setPrice(price)</text><ellipse cx="354" cy="327.8516" fill="#84BE84" rx="3" ry="3" style="stroke:#038048;stroke-width:1.0;"/><text fill="#000000" font-family="sans-serif" font-size="11" lengthAdjust="spacing" textLength="151" x="363" y="332.2705">setTechnicalDescription(techD)</text><ellipse cx="354" cy="341.6875" fill="#84BE84" rx="3" ry="3" style="stroke:#038048;stroke-width:1.0;"/><text fill="#000000" font-family="sans-serif" font-size="11" lengthAdjust="spacing" textLength="91" x="363" y="346.1064">setImages(images)</text><ellipse cx="354" cy="355.5234" fill="#84BE84" rx="3" ry="3" style="stroke:#038048;stroke-width:1.0;"/><text fill="#000000" font-family="sans-serif" font-size="11" lengthAdjust="spacing" textLength="121" x="363" y="359.9424">saveRepository(product)</text><!--MD5=[b07be2b600772d055921457a51a4b081]
class AuthenticationService--><rect codeLine="26" fill="#FEFECE" filter="url(#f15a42z936a1kp)" height="61.8359" id="AuthenticationService" style="stroke:#A80036;stroke-width:1.5;" width="224" x="689" y="486"/><ellipse cx="738.25" cy="502" fill="#ADD1B2" rx="11" ry="11" style="stroke:#A80036;stroke-width:1.0;"/><path d="M740.25,498.5 Q740.4531,498 740.6875,497.75 Q740.9219,497.5 741.1875,497.5 Q741.6563,497.5 741.9531,497.7813 Q742.25,498.0625 742.25,498.7188 L742.25,500.2813 Q742.25,500.9375 741.9688,501.2188 Q741.6875,501.5 741.25,501.5 Q740.8594,501.5 740.6094,501.3281 Q740.3594,501.1563 740.25,500.7031 Q740.2031,500.3906 740.0313,500.2188 Q739.7188,499.8906 739.1563,499.7031 Q738.5938,499.5 738.0313,499.5 Q737.3281,499.5 736.7344,499.7813 Q736.1563,500.0625 735.7031,500.6875 Q735.25,501.3125 735.25,502.1719 L735.25,503.0938 Q735.25,504.125 736.0938,504.8125 Q736.9375,505.5 738.4375,505.5 Q739.3281,505.5 739.9531,505.2969 Q740.3125,505.1875 740.7188,504.8281 Q740.9844,504.625 741.125,504.5625 Q741.2656,504.5 741.4375,504.5 Q741.7656,504.5 742,504.7656 Q742.25,505.0156 742.25,505.375 Q742.25,505.7188 741.9063,506.125 Q741.4063,506.7188 740.6094,507.0469 Q739.5625,507.5 738.2813,507.5 Q736.7813,507.5 735.5781,506.9063 Q734.6094,506.4375 733.9219,505.4219 Q733.25,504.4063 733.25,503.2031 L733.25,502.1094 Q733.25,500.8594 733.8438,499.7656 Q734.4531,498.6719 735.5,498.0938 Q736.5625,497.5 737.75,497.5 Q738.4688,497.5 739.0938,497.75 Q739.7188,498 740.25,498.5 Z " fill="#000000"/><text fill="#000000" font-family="sans-serif" font-size="12" lengthAdjust="spacing" textLength="117" x="758.75" y="506.9102">AuthenticationService</text><line style="stroke:#A80036;stroke-width:1.5;" x1="690" x2="912" y1="518" y2="518"/><line style="stroke:#A80036;stroke-width:1.5;" x1="690" x2="912" y1="526" y2="526"/><ellipse cx="700" cy="537" fill="#84BE84" rx="3" ry="3" style="stroke:#038048;stroke-width:1.0;"/><text fill="#000000" font-family="sans-serif" font-size="11" lengthAdjust="spacing" textLength="198" x="709" y="541.4189">ensureAuthenticatedUsrHasAnyOf(Role)</text><!--MD5=[b3c2230271250b561f28a9e8cd979a92]
class CategoryRepository--><rect codeLine="31" fill="#FEFECE" filter="url(#f15a42z936a1kp)" height="61.8359" id="CategoryRepository" style="stroke:#A80036;stroke-width:1.5;" width="140" x="493" y="486"/><ellipse cx="508" cy="502" fill="#ADD1B2" rx="11" ry="11" style="stroke:#A80036;stroke-width:1.0;"/><path d="M510,498.5 Q510.2031,498 510.4375,497.75 Q510.6719,497.5 510.9375,497.5 Q511.4063,497.5 511.7031,497.7813 Q512,498.0625 512,498.7188 L512,500.2813 Q512,500.9375 511.7188,501.2188 Q511.4375,501.5 511,501.5 Q510.6094,501.5 510.3594,501.3281 Q510.1094,501.1563 510,500.7031 Q509.9531,500.3906 509.7813,500.2188 Q509.4688,499.8906 508.9063,499.7031 Q508.3438,499.5 507.7813,499.5 Q507.0781,499.5 506.4844,499.7813 Q505.9063,500.0625 505.4531,500.6875 Q505,501.3125 505,502.1719 L505,503.0938 Q505,504.125 505.8438,504.8125 Q506.6875,505.5 508.1875,505.5 Q509.0781,505.5 509.7031,505.2969 Q510.0625,505.1875 510.4688,504.8281 Q510.7344,504.625 510.875,504.5625 Q511.0156,504.5 511.1875,504.5 Q511.5156,504.5 511.75,504.7656 Q512,505.0156 512,505.375 Q512,505.7188 511.6563,506.125 Q511.1563,506.7188 510.3594,507.0469 Q509.3125,507.5 508.0313,507.5 Q506.5313,507.5 505.3281,506.9063 Q504.3594,506.4375 503.6719,505.4219 Q503,504.4063 503,503.2031 L503,502.1094 Q503,500.8594 503.5938,499.7656 Q504.2031,498.6719 505.25,498.0938 Q506.3125,497.5 507.5,497.5 Q508.2188,497.5 508.8438,497.75 Q509.4688,498 510,498.5 Z " fill="#000000"/><text fill="#000000" font-family="sans-serif" font-size="12" lengthAdjust="spacing" textLength="108" x="522" y="506.9102">CategoryRepository</text><line style="stroke:#A80036;stroke-width:1.5;" x1="494" x2="632" y1="518" y2="518"/><line style="stroke:#A80036;stroke-width:1.5;" x1="494" x2="632" y1="526" y2="526"/><ellipse cx="504" cy="537" fill="#84BE84" rx="3" ry="3" style="stroke:#038048;stroke-width:1.0;"/><text fill="#000000" font-family="sans-serif" font-size="11" lengthAdjust="spacing" textLength="89" x="513" y="541.4189">activeCategories()</text><!--MD5=[f9761e4ec0e5a044b983a0fb01ce84a9]
class ProductRepository--><rect codeLine="34" fill="#FEFECE" filter="url(#f15a42z936a1kp)" height="61.8359" id="ProductRepository" style="stroke:#A80036;stroke-width:1.5;" width="133" x="324.5" y="486"/><ellipse cx="339.5" cy="502" fill="#ADD1B2" rx="11" ry="11" style="stroke:#A80036;stroke-width:1.0;"/><path d="M341.5,498.5 Q341.7031,498 341.9375,497.75 Q342.1719,497.5 342.4375,497.5 Q342.9063,497.5 343.2031,497.7813 Q343.5,498.0625 343.5,498.7188 L343.5,500.2813 Q343.5,500.9375 343.2188,501.2188 Q342.9375,501.5 342.5,501.5 Q342.1094,501.5 341.8594,501.3281 Q341.6094,501.1563 341.5,500.7031 Q341.4531,500.3906 341.2813,500.2188 Q340.9688,499.8906 340.4063,499.7031 Q339.8438,499.5 339.2813,499.5 Q338.5781,499.5 337.9844,499.7813 Q337.4063,500.0625 336.9531,500.6875 Q336.5,501.3125 336.5,502.1719 L336.5,503.0938 Q336.5,504.125 337.3438,504.8125 Q338.1875,505.5 339.6875,505.5 Q340.5781,505.5 341.2031,505.2969 Q341.5625,505.1875 341.9688,504.8281 Q342.2344,504.625 342.375,504.5625 Q342.5156,504.5 342.6875,504.5 Q343.0156,504.5 343.25,504.7656 Q343.5,505.0156 343.5,505.375 Q343.5,505.7188 343.1563,506.125 Q342.6563,506.7188 341.8594,507.0469 Q340.8125,507.5 339.5313,507.5 Q338.0313,507.5 336.8281,506.9063 Q335.8594,506.4375 335.1719,505.4219 Q334.5,504.4063 334.5,503.2031 L334.5,502.1094 Q334.5,500.8594 335.0938,499.7656 Q335.7031,498.6719 336.75,498.0938 Q337.8125,497.5 339,497.5 Q339.7188,497.5 340.3438,497.75 Q340.9688,498 341.5,498.5 Z " fill="#000000"/><text fill="#000000" font-family="sans-serif" font-size="12" lengthAdjust="spacing" textLength="101" x="353.5" y="506.9102">ProductRepository</text><line style="stroke:#A80036;stroke-width:1.5;" x1="325.5" x2="456.5" y1="518" y2="518"/><line style="stroke:#A80036;stroke-width:1.5;" x1="325.5" x2="456.5" y1="526" y2="526"/><ellipse cx="335.5" cy="537" fill="#84BE84" rx="3" ry="3" style="stroke:#038048;stroke-width:1.0;"/><text fill="#000000" font-family="sans-serif" font-size="11" lengthAdjust="spacing" textLength="69" x="344.5" y="541.4189">save(product)</text><!--MD5=[72136138052d025cffdce3c22fbd185f]
class Product--><rect codeLine="40" fill="#FEFECE" filter="url(#f15a42z936a1kp)" height="61.8359" id="Product" style="stroke:#A80036;stroke-width:1.5;" width="212" x="56" y="486"/><ellipse cx="136.75" cy="502" fill="#ADD1B2" rx="11" ry="11" style="stroke:#A80036;stroke-width:1.0;"/><path d="M138.75,498.5 Q138.9531,498 139.1875,497.75 Q139.4219,497.5 139.6875,497.5 Q140.1563,497.5 140.4531,497.7813 Q140.75,498.0625 140.75,498.7188 L140.75,500.2813 Q140.75,500.9375 140.4688,501.2188 Q140.1875,501.5 139.75,501.5 Q139.3594,501.5 139.1094,501.3281 Q138.8594,501.1563 138.75,500.7031 Q138.7031,500.3906 138.5313,500.2188 Q138.2188,499.8906 137.6563,499.7031 Q137.0938,499.5 136.5313,499.5 Q135.8281,499.5 135.2344,499.7813 Q134.6563,500.0625 134.2031,500.6875 Q133.75,501.3125 133.75,502.1719 L133.75,503.0938 Q133.75,504.125 134.5938,504.8125 Q135.4375,505.5 136.9375,505.5 Q137.8281,505.5 138.4531,505.2969 Q138.8125,505.1875 139.2188,504.8281 Q139.4844,504.625 139.625,504.5625 Q139.7656,504.5 139.9375,504.5 Q140.2656,504.5 140.5,504.7656 Q140.75,505.0156 140.75,505.375 Q140.75,505.7188 140.4063,506.125 Q139.9063,506.7188 139.1094,507.0469 Q138.0625,507.5 136.7813,507.5 Q135.2813,507.5 134.0781,506.9063 Q133.1094,506.4375 132.4219,505.4219 Q131.75,504.4063 131.75,503.2031 L131.75,502.1094 Q131.75,500.8594 132.3438,499.7656 Q132.9531,498.6719 134,498.0938 Q135.0625,497.5 136.25,497.5 Q136.9688,497.5 137.5938,497.75 Q138.2188,498 138.75,498.5 Z " fill="#000000"/><text fill="#000000" font-family="sans-serif" font-size="12" lengthAdjust="spacing" textLength="42" x="157.25" y="506.9102">Product</text><line style="stroke:#A80036;stroke-width:1.5;" x1="57" x2="267" y1="518" y2="518"/><line style="stroke:#A80036;stroke-width:1.5;" x1="57" x2="267" y1="526" y2="526"/><ellipse cx="67" cy="537" fill="#84BE84" rx="3" ry="3" style="stroke:#038048;stroke-width:1.0;"/><text fill="#000000" font-family="sans-serif" font-size="11" lengthAdjust="spacing" textLength="186" x="76" y="541.4189">create(intCode,sDesc,eDesc,barcode)</text><!--MD5=[20ba0d3f866826d0cd8ac1f3585cc6dd]
link SpecifyNewProductUI to SpecifyNewProductController--><path codeLine="46" d="M477,104.07 C477,123.14 477,148.98 477,174.67 " fill="none" id="SpecifyNewProductUI-to-SpecifyNewProductController" style="stroke:#A80036;stroke-width:1.0;"/><polygon fill="#A80036" points="477,179.8,481,170.8,477,174.8,473,170.8,477,179.8" style="stroke:#A80036;stroke-width:1.0;"/><!--MD5=[4dd9c7566709ee17763f23c0c4fc2fc4]
link SpecifyNewProductController to Product--><path codeLine="47" d="M350.09,366.13 C335.82,376.78 321.55,387.56 308,398 C271.83,425.87 231.51,458.57 202.43,482.48 " fill="none" id="SpecifyNewProductController-to-Product" style="stroke:#A80036;stroke-width:1.0;stroke-dasharray:7.0,7.0;"/><polygon fill="#A80036" points="198.22,485.94,207.7112,483.31,202.0809,482.763,202.628,477.1326,198.22,485.94" style="stroke:#A80036;stroke-width:1.0;"/><!--MD5=[af6006d968c9c855ad70db3e4d16f7cf]
link SpecifyNewProductController to ProductRepository--><path codeLine="48" d="M444.24,366.18 C430.02,406.21 414.21,450.7 403.54,480.72 " fill="none" id="SpecifyNewProductController-to-ProductRepository" style="stroke:#A80036;stroke-width:1.0;stroke-dasharray:7.0,7.0;"/><polygon fill="#A80036" points="401.74,485.78,408.5175,478.634,403.4108,481.0674,400.9774,475.9607,401.74,485.78" style="stroke:#A80036;stroke-width:1.0;"/><!--MD5=[5a7eb3d6c1f67307b43230e296442988]
link SpecifyNewProductController to CategoryRepository--><path codeLine="49" d="M509.76,366.18 C523.98,406.21 539.79,450.7 550.46,480.72 " fill="none" id="SpecifyNewProductController-to-CategoryRepository" style="stroke:#A80036;stroke-width:1.0;stroke-dasharray:7.0,7.0;"/><polygon fill="#A80036" points="552.26,485.78,553.0226,475.9607,550.5892,481.0674,545.4825,478.634,552.26,485.78" style="stroke:#A80036;stroke-width:1.0;"/><!--MD5=[6115f9b13323e0cea0976bdcaa8df831]
link SpecifyNewProductController to AuthenticationService--><path codeLine="50" d="M606.04,366.27 C620.58,376.9 635.15,387.63 649,398 C686.5,426.06 728.52,458.78 758.86,482.64 " fill="none" id="SpecifyNewProductController-to-AuthenticationService" style="stroke:#A80036;stroke-width:1.0;stroke-dasharray:7.0,7.0;"/><polygon fill="#A80036" points="762.87,485.8,758.263,477.0951,758.9379,482.7115,753.3215,483.3864,762.87,485.8" style="stroke:#A80036;stroke-width:1.0;"/><!--MD5=[0722eed29215b3947052801689b4cea4]
@startuml

package UI{
    class SpecifyNewProductUI{
    +doShow()
    }
}

package Controller{
    class SpecifyNewProductController{

        +getAllCategories()
        +specifyNewProduct(intCode, sDesc, eDesc, barc)
        +setCategory(chosenCategory)
        +setProductionCode(code)
        +setReference(ref)
        +setBrand(brand)
        +setPrice(price)
        +setTechnicalDescription(techD)
        +setImages(images)
        +saveRepository(product)
    }
}

package Core{
package Auth{
    class AuthenticationService{
    +ensureAuthenticatedUsrHasAnyOf(Role)
    }    
}
package Data{
class CategoryRepository{
    +activeCategories()
}
class ProductRepository{
    +save(product)
}
}
package Model{

    class Product{
        +create(intCode,sDesc,eDesc,barcode)
    }
}

}
SpecifyNewProductUI - -> SpecifyNewProductController
SpecifyNewProductController ..> Product
SpecifyNewProductController ..> ProductRepository
SpecifyNewProductController ..> CategoryRepository
SpecifyNewProductController ..> AuthenticationService




@enduml

PlantUML version 1.2021.11(Sat Oct 02 14:26:11 BST 2021)
(GPL source distribution)
Java Runtime: OpenJDK Runtime Environment
JVM: OpenJDK 64-Bit Server VM
Default Encoding: Cp1252
Language: pt
Country: PT
--></g></svg>