<?xml version="1.0" encoding="UTF-8" standalone="no"?><svg xmlns="http://www.w3.org/2000/svg" xmlns:xlink="http://www.w3.org/1999/xlink" contentScriptType="application/ecmascript" contentStyleType="text/css" height="1203px" preserveAspectRatio="none" style="width:2348px;height:1203px;background:#FFFFFF;" version="1.1" viewBox="0 0 2348 1203" width="2348px" zoomAndPan="magnify"><defs><filter height="300%" id="fvt1s50ahpra4" width="300%" x="-1" y="-1"><feGaussianBlur result="blurOut" stdDeviation="2.0"/><feColorMatrix in="blurOut" result="blurOut2" type="matrix" values="0 0 0 0 0 0 0 0 0 0 0 0 0 0 0 0 0 0 .4 0"/><feOffset dx="4.0" dy="4.0" in="blurOut2" result="blurOut3"/><feBlend in="SourceGraphic" in2="blurOut3" mode="normal"/></filter></defs><g><rect fill="#FFFFFF" filter="url(#fvt1s50ahpra4)" height="1009.1016" style="stroke:#A80036;stroke-width:1.0;" width="10" x="289" y="99.6094"/><rect fill="#FFFFFF" filter="url(#fvt1s50ahpra4)" height="986.75" style="stroke:#A80036;stroke-width:1.0;" width="10" x="948" y="121.9609"/><rect fill="#FFFFFF" filter="url(#fvt1s50ahpra4)" height="60.3516" style="stroke:#A80036;stroke-width:1.0;" width="10" x="1297" y="213.0156"/><rect fill="#FFFFFF" filter="url(#fvt1s50ahpra4)" height="131.0547" style="stroke:#A80036;stroke-width:1.0;" width="10" x="1297" y="364.4219"/><rect fill="#FFFFFF" filter="url(#fvt1s50ahpra4)" height="90.7031" style="stroke:#A80036;stroke-width:1.0;" width="10" x="1297" y="542.0859"/><rect fill="#FFFFFF" filter="url(#fvt1s50ahpra4)" height="60.3516" style="stroke:#A80036;stroke-width:1.0;" width="10" x="1297" y="911.3047"/><rect fill="#FFFFFF" filter="url(#fvt1s50ahpra4)" height="60.3516" style="stroke:#A80036;stroke-width:1.0;" width="10" x="1297" y="1009.0078"/><rect fill="#FFFFFF" filter="url(#fvt1s50ahpra4)" height="30" style="stroke:#A80036;stroke-width:1.0;" width="10" x="1483.5" y="243.3672"/><rect fill="#FFFFFF" filter="url(#fvt1s50ahpra4)" height="30" style="stroke:#A80036;stroke-width:1.0;" width="10" x="1826" y="435.125"/><rect fill="#FFFFFF" filter="url(#fvt1s50ahpra4)" height="30" style="stroke:#A80036;stroke-width:1.0;" width="10" x="1949" y="572.4375"/><rect fill="#FFFFFF" filter="url(#fvt1s50ahpra4)" height="30" style="stroke:#A80036;stroke-width:1.0;" width="10" x="1949" y="941.6563"/><rect fill="#FFFFFF" filter="url(#fvt1s50ahpra4)" height="30" style="stroke:#A80036;stroke-width:1.0;" width="10" x="2060" y="1039.3594"/><rect fill="#FFFFFF" filter="url(#fvt1s50ahpra4)" height="331.8672" style="stroke:#000000;stroke-width:2.0;" width="1988.5" x="9" y="647.7891"/><rect fill="#FFFFFF" filter="url(#fvt1s50ahpra4)" height="79.0547" style="stroke:#000000;stroke-width:2.0;" width="793.5" x="247" y="802.8984"/><line style="stroke:#A80036;stroke-width:1.0;stroke-dasharray:5.0,5.0;" x1="294" x2="294" y1="89.6094" y2="1117.7109"/><line style="stroke:#A80036;stroke-width:1.0;stroke-dasharray:5.0,5.0;" x1="952.5" x2="952.5" y1="89.6094" y2="1117.7109"/><line style="stroke:#A80036;stroke-width:1.0;stroke-dasharray:5.0,5.0;" x1="1301.5" x2="1301.5" y1="89.6094" y2="1117.7109"/><line style="stroke:#A80036;stroke-width:1.0;stroke-dasharray:5.0,5.0;" x1="1488.5" x2="1488.5" y1="89.6094" y2="1117.7109"/><line style="stroke:#A80036;stroke-width:1.0;stroke-dasharray:5.0,5.0;" x1="1830.5" x2="1830.5" y1="89.6094" y2="1117.7109"/><line style="stroke:#A80036;stroke-width:1.0;stroke-dasharray:5.0,5.0;" x1="1953.5" x2="1953.5" y1="506.4297" y2="1117.7109"/><line style="stroke:#A80036;stroke-width:1.0;stroke-dasharray:5.0,5.0;" x1="2064.5" x2="2064.5" y1="89.6094" y2="1117.7109"/><line style="stroke:#A80036;stroke-width:1.0;stroke-dasharray:5.0,5.0;" x1="2197.5" x2="2197.5" y1="89.6094" y2="1117.7109"/><line style="stroke:#A80036;stroke-width:1.0;stroke-dasharray:5.0,5.0;" x1="2300.5" x2="2300.5" y1="89.6094" y2="1117.7109"/><text fill="#000000" font-family="sans-serif" font-size="14" lengthAdjust="spacing" textLength="68" x="257" y="86.5332">SalesClerk</text><ellipse cx="294" cy="15" fill="#FEFECE" filter="url(#fvt1s50ahpra4)" rx="8" ry="8" style="stroke:#A80036;stroke-width:2.0;"/><path d="M294,23 L294,50 M281,31 L307,31 M294,50 L281,65 M294,50 L307,65 " fill="none" filter="url(#fvt1s50ahpra4)" style="stroke:#A80036;stroke-width:2.0;"/><text fill="#000000" font-family="sans-serif" font-size="14" lengthAdjust="spacing" textLength="68" x="257" y="1131.2441">SalesClerk</text><ellipse cx="294" cy="1144.3203" fill="#FEFECE" filter="url(#fvt1s50ahpra4)" rx="8" ry="8" style="stroke:#A80036;stroke-width:2.0;"/><path d="M294,1152.3203 L294,1179.3203 M281,1160.3203 L307,1160.3203 M294,1179.3203 L281,1194.3203 M294,1179.3203 L307,1194.3203 " fill="none" filter="url(#fvt1s50ahpra4)" style="stroke:#A80036;stroke-width:2.0;"/><rect fill="#FEFECE" filter="url(#fvt1s50ahpra4)" height="31.6094" style="stroke:#A80036;stroke-width:1.5;" width="151" x="875.5" y="53"/><text fill="#000000" font-family="sans-serif" font-size="14" lengthAdjust="spacing" textLength="137" x="882.5" y="74.5332">:SpecifyNewProductUI</text><rect fill="#FEFECE" filter="url(#fvt1s50ahpra4)" height="31.6094" style="stroke:#A80036;stroke-width:1.5;" width="151" x="875.5" y="1116.7109"/><text fill="#000000" font-family="sans-serif" font-size="14" lengthAdjust="spacing" textLength="137" x="882.5" y="1138.2441">:SpecifyNewProductUI</text><rect fill="#FEFECE" filter="url(#fvt1s50ahpra4)" height="31.6094" style="stroke:#A80036;stroke-width:1.5;" width="201" x="1199.5" y="53"/><text fill="#000000" font-family="sans-serif" font-size="14" lengthAdjust="spacing" textLength="187" x="1206.5" y="74.5332">:SpecifyNewProductController</text><rect fill="#FEFECE" filter="url(#fvt1s50ahpra4)" height="31.6094" style="stroke:#A80036;stroke-width:1.5;" width="201" x="1199.5" y="1116.7109"/><text fill="#000000" font-family="sans-serif" font-size="14" lengthAdjust="spacing" textLength="187" x="1206.5" y="1138.2441">:SpecifyNewProductController</text><rect fill="#FEFECE" filter="url(#fvt1s50ahpra4)" height="31.6094" style="stroke:#A80036;stroke-width:1.5;" width="144" x="1414.5" y="53"/><text fill="#000000" font-family="sans-serif" font-size="14" lengthAdjust="spacing" textLength="130" x="1421.5" y="74.5332">:CategoryRepository</text><rect fill="#FEFECE" filter="url(#fvt1s50ahpra4)" height="31.6094" style="stroke:#A80036;stroke-width:1.5;" width="144" x="1414.5" y="1116.7109"/><text fill="#000000" font-family="sans-serif" font-size="14" lengthAdjust="spacing" textLength="130" x="1421.5" y="1138.2441">:CategoryRepository</text><rect fill="#FEFECE" filter="url(#fvt1s50ahpra4)" height="31.6094" style="stroke:#A80036;stroke-width:1.5;" width="155" x="1751.5" y="53"/><text fill="#000000" font-family="sans-serif" font-size="14" lengthAdjust="spacing" textLength="141" x="1758.5" y="74.5332">:AuthenticationService</text><rect fill="#FEFECE" filter="url(#fvt1s50ahpra4)" height="31.6094" style="stroke:#A80036;stroke-width:1.5;" width="155" x="1751.5" y="1116.7109"/><text fill="#000000" font-family="sans-serif" font-size="14" lengthAdjust="spacing" textLength="141" x="1758.5" y="1138.2441">:AuthenticationService</text><rect fill="#FEFECE" filter="url(#fvt1s50ahpra4)" height="31.6094" style="stroke:#A80036;stroke-width:1.5;" width="63" x="1920.5" y="1116.7109"/><text fill="#000000" font-family="sans-serif" font-size="14" lengthAdjust="spacing" textLength="49" x="1927.5" y="1138.2441">Product</text><rect fill="#FEFECE" filter="url(#fvt1s50ahpra4)" height="31.6094" style="stroke:#A80036;stroke-width:1.5;" width="131" x="1997.5" y="53"/><text fill="#000000" font-family="sans-serif" font-size="14" lengthAdjust="spacing" textLength="117" x="2004.5" y="74.5332">ProductRepository</text><rect fill="#FEFECE" filter="url(#fvt1s50ahpra4)" height="31.6094" style="stroke:#A80036;stroke-width:1.5;" width="131" x="1997.5" y="1116.7109"/><text fill="#000000" font-family="sans-serif" font-size="14" lengthAdjust="spacing" textLength="117" x="2004.5" y="1138.2441">ProductRepository</text><rect fill="#FEFECE" filter="url(#fvt1s50ahpra4)" height="31.6094" style="stroke:#A80036;stroke-width:1.5;" width="106" x="2142.5" y="53"/><text fill="#000000" font-family="sans-serif" font-size="14" lengthAdjust="spacing" textLength="92" x="2149.5" y="74.5332">BufferedImage</text><rect fill="#FEFECE" filter="url(#fvt1s50ahpra4)" height="31.6094" style="stroke:#A80036;stroke-width:1.5;" width="106" x="2142.5" y="1116.7109"/><text fill="#000000" font-family="sans-serif" font-size="14" lengthAdjust="spacing" textLength="92" x="2149.5" y="1138.2441">BufferedImage</text><rect fill="#FEFECE" filter="url(#fvt1s50ahpra4)" height="31.6094" style="stroke:#A80036;stroke-width:1.5;" width="72" x="2262.5" y="53"/><text fill="#000000" font-family="sans-serif" font-size="14" lengthAdjust="spacing" textLength="58" x="2269.5" y="74.5332">Category</text><rect fill="#FEFECE" filter="url(#fvt1s50ahpra4)" height="31.6094" style="stroke:#A80036;stroke-width:1.5;" width="72" x="2262.5" y="1116.7109"/><text fill="#000000" font-family="sans-serif" font-size="14" lengthAdjust="spacing" textLength="58" x="2269.5" y="1138.2441">Category</text><rect fill="#FFFFFF" filter="url(#fvt1s50ahpra4)" height="1009.1016" style="stroke:#A80036;stroke-width:1.0;" width="10" x="289" y="99.6094"/><rect fill="#FFFFFF" filter="url(#fvt1s50ahpra4)" height="986.75" style="stroke:#A80036;stroke-width:1.0;" width="10" x="948" y="121.9609"/><rect fill="#FFFFFF" filter="url(#fvt1s50ahpra4)" height="60.3516" style="stroke:#A80036;stroke-width:1.0;" width="10" x="1297" y="213.0156"/><rect fill="#FFFFFF" filter="url(#fvt1s50ahpra4)" height="131.0547" style="stroke:#A80036;stroke-width:1.0;" width="10" x="1297" y="364.4219"/><rect fill="#FFFFFF" filter="url(#fvt1s50ahpra4)" height="90.7031" style="stroke:#A80036;stroke-width:1.0;" width="10" x="1297" y="542.0859"/><rect fill="#FFFFFF" filter="url(#fvt1s50ahpra4)" height="60.3516" style="stroke:#A80036;stroke-width:1.0;" width="10" x="1297" y="911.3047"/><rect fill="#FFFFFF" filter="url(#fvt1s50ahpra4)" height="60.3516" style="stroke:#A80036;stroke-width:1.0;" width="10" x="1297" y="1009.0078"/><rect fill="#FFFFFF" filter="url(#fvt1s50ahpra4)" height="30" style="stroke:#A80036;stroke-width:1.0;" width="10" x="1483.5" y="243.3672"/><rect fill="#FFFFFF" filter="url(#fvt1s50ahpra4)" height="30" style="stroke:#A80036;stroke-width:1.0;" width="10" x="1826" y="435.125"/><rect fill="#FFFFFF" filter="url(#fvt1s50ahpra4)" height="30" style="stroke:#A80036;stroke-width:1.0;" width="10" x="1949" y="572.4375"/><rect fill="#FFFFFF" filter="url(#fvt1s50ahpra4)" height="30" style="stroke:#A80036;stroke-width:1.0;" width="10" x="1949" y="941.6563"/><rect fill="#FFFFFF" filter="url(#fvt1s50ahpra4)" height="30" style="stroke:#A80036;stroke-width:1.0;" width="10" x="2060" y="1039.3594"/><polygon fill="#A80036" points="936,117.9609,946,121.9609,936,125.9609,940,121.9609" style="stroke:#A80036;stroke-width:1.0;"/><line style="stroke:#A80036;stroke-width:1.0;" x1="299" x2="942" y1="121.9609" y2="121.9609"/><text fill="#000000" font-family="sans-serif" font-size="13" font-weight="bold" lengthAdjust="spacing" textLength="7" x="306" y="117.1045">1</text><text fill="#000000" font-family="sans-serif" font-size="13" lengthAdjust="spacing" textLength="314" x="317" y="117.1045">Starts the process of specifying a new product for sale</text><polygon fill="#A80036" points="310,148.3125,300,152.3125,310,156.3125,306,152.3125" style="stroke:#A80036;stroke-width:1.0;"/><line style="stroke:#A80036;stroke-width:1.0;stroke-dasharray:2.0,2.0;" x1="304" x2="947" y1="152.3125" y2="152.3125"/><text fill="#000000" font-family="sans-serif" font-size="13" font-weight="bold" lengthAdjust="spacing" textLength="7" x="316" y="147.4561">2</text><text fill="#000000" font-family="sans-serif" font-size="13" lengthAdjust="spacing" textLength="614" x="327" y="147.4561">asks for the mandatory information first (internal code,short description, extended description and barcode)</text><polygon fill="#A80036" points="936,178.6641,946,182.6641,936,186.6641,940,182.6641" style="stroke:#A80036;stroke-width:1.0;"/><line style="stroke:#A80036;stroke-width:1.0;" x1="299" x2="942" y1="182.6641" y2="182.6641"/><text fill="#000000" font-family="sans-serif" font-size="13" font-weight="bold" lengthAdjust="spacing" textLength="7" x="306" y="177.8076">3</text><text fill="#000000" font-family="sans-serif" font-size="13" lengthAdjust="spacing" textLength="64" x="317" y="177.8076">inputs data</text><polygon fill="#A80036" points="1285,209.0156,1295,213.0156,1285,217.0156,1289,213.0156" style="stroke:#A80036;stroke-width:1.0;"/><line style="stroke:#A80036;stroke-width:1.0;" x1="958" x2="1291" y1="213.0156" y2="213.0156"/><text fill="#000000" font-family="sans-serif" font-size="13" font-weight="bold" lengthAdjust="spacing" textLength="7" x="965" y="208.1592">4</text><text fill="#000000" font-family="sans-serif" font-size="13" lengthAdjust="spacing" textLength="179" x="976" y="208.1592">categories = getAllCategories()</text><polygon fill="#A80036" points="1471.5,239.3672,1481.5,243.3672,1471.5,247.3672,1475.5,243.3672" style="stroke:#A80036;stroke-width:1.0;"/><line style="stroke:#A80036;stroke-width:1.0;" x1="1307" x2="1477.5" y1="243.3672" y2="243.3672"/><text fill="#000000" font-family="sans-serif" font-size="13" font-weight="bold" lengthAdjust="spacing" textLength="7" x="1314" y="238.5107">5</text><text fill="#000000" font-family="sans-serif" font-size="13" lengthAdjust="spacing" textLength="103" x="1325" y="238.5107">activeCategories()</text><polygon fill="#A80036" points="310,299.7188,300,303.7188,310,307.7188,306,303.7188" style="stroke:#A80036;stroke-width:1.0;"/><line style="stroke:#A80036;stroke-width:1.0;stroke-dasharray:2.0,2.0;" x1="304" x2="947" y1="303.7188" y2="303.7188"/><text fill="#000000" font-family="sans-serif" font-size="13" font-weight="bold" lengthAdjust="spacing" textLength="7" x="316" y="298.8623">6</text><text fill="#000000" font-family="sans-serif" font-size="13" lengthAdjust="spacing" textLength="348" x="327" y="298.8623">shows avaliable categories and asks the user to choose one</text><polygon fill="#A80036" points="936,330.0703,946,334.0703,936,338.0703,940,334.0703" style="stroke:#A80036;stroke-width:1.0;"/><line style="stroke:#A80036;stroke-width:1.0;" x1="299" x2="942" y1="334.0703" y2="334.0703"/><text fill="#000000" font-family="sans-serif" font-size="13" font-weight="bold" lengthAdjust="spacing" textLength="7" x="306" y="329.2139">7</text><text fill="#000000" font-family="sans-serif" font-size="13" lengthAdjust="spacing" textLength="64" x="317" y="329.2139">inputs data</text><polygon fill="#A80036" points="1285,360.4219,1295,364.4219,1285,368.4219,1289,364.4219" style="stroke:#A80036;stroke-width:1.0;"/><line style="stroke:#A80036;stroke-width:1.0;" x1="958" x2="1291" y1="364.4219" y2="364.4219"/><text fill="#000000" font-family="sans-serif" font-size="13" font-weight="bold" lengthAdjust="spacing" textLength="7" x="965" y="359.5654">8</text><text fill="#000000" font-family="sans-serif" font-size="13" lengthAdjust="spacing" textLength="309" x="976" y="359.5654">p = specifyNewProduct(intCode, sDesc, eDesc, barc)</text><path d="M1626,377.4219 L1626,403.4219 L2032,403.4219 L2032,387.4219 L2022,377.4219 L1626,377.4219 " fill="#FBFB77" filter="url(#fvt1s50ahpra4)" style="stroke:#A80036;stroke-width:1.0;"/><path d="M2022,377.4219 L2022,387.4219 L2032,387.4219 L2022,377.4219 " fill="#FBFB77" style="stroke:#A80036;stroke-width:1.0;"/><text fill="#000000" font-family="sans-serif" font-size="13" lengthAdjust="spacing" textLength="385" x="1632" y="395.917">ensure user is authenticated with the role "Sales Clerk" or "Admin"</text><polygon fill="#A80036" points="1814,431.125,1824,435.125,1814,439.125,1818,435.125" style="stroke:#A80036;stroke-width:1.0;"/><line style="stroke:#A80036;stroke-width:1.0;" x1="1307" x2="1820" y1="435.125" y2="435.125"/><text fill="#000000" font-family="sans-serif" font-size="13" font-weight="bold" lengthAdjust="spacing" textLength="7" x="1314" y="430.2686">9</text><text fill="#000000" font-family="sans-serif" font-size="13" lengthAdjust="spacing" textLength="489" x="1325" y="430.2686">ensureAuthenticatedUserHasAnyOf(BaseRoles.SALES_CLERK, BaseRoles.ADMIN)</text><polygon fill="#A80036" points="1908.5,491.4766,1918.5,495.4766,1908.5,499.4766,1912.5,495.4766" style="stroke:#A80036;stroke-width:1.0;"/><line style="stroke:#A80036;stroke-width:1.0;" x1="1302" x2="1914.5" y1="495.4766" y2="495.4766"/><text fill="#000000" font-family="sans-serif" font-size="13" font-weight="bold" lengthAdjust="spacing" textLength="14" x="1309" y="490.6201">10</text><text fill="#000000" font-family="sans-serif" font-size="13" lengthAdjust="spacing" textLength="282" x="1327" y="490.6201">new Product(intCode,shortD,extendedD,barcode)</text><rect fill="#FEFECE" filter="url(#fvt1s50ahpra4)" height="31.6094" style="stroke:#A80036;stroke-width:1.5;" width="63" x="1920.5" y="473.125"/><text fill="#000000" font-family="sans-serif" font-size="14" lengthAdjust="spacing" textLength="49" x="1927.5" y="494.6582">Product</text><polygon fill="#A80036" points="1285,538.0859,1295,542.0859,1285,546.0859,1289,542.0859" style="stroke:#A80036;stroke-width:1.0;"/><line style="stroke:#A80036;stroke-width:1.0;" x1="958" x2="1291" y1="542.0859" y2="542.0859"/><text fill="#000000" font-family="sans-serif" font-size="13" font-weight="bold" lengthAdjust="spacing" textLength="14" x="965" y="537.2295">11</text><text fill="#000000" font-family="sans-serif" font-size="13" lengthAdjust="spacing" textLength="183" x="983" y="537.2295">setCategory(chosenCategory,p)</text><polygon fill="#A80036" points="1937,568.4375,1947,572.4375,1937,576.4375,1941,572.4375" style="stroke:#A80036;stroke-width:1.0;"/><line style="stroke:#A80036;stroke-width:1.0;" x1="1307" x2="1943" y1="572.4375" y2="572.4375"/><text fill="#000000" font-family="sans-serif" font-size="13" font-weight="bold" lengthAdjust="spacing" textLength="14" x="1314" y="567.5811">12</text><text fill="#000000" font-family="sans-serif" font-size="13" lengthAdjust="spacing" textLength="172" x="1332" y="567.5811">setCategory(chosenCategory)</text><polygon fill="#A80036" points="310,628.7891,300,632.7891,310,636.7891,306,632.7891" style="stroke:#A80036;stroke-width:1.0;"/><line style="stroke:#A80036;stroke-width:1.0;stroke-dasharray:2.0,2.0;" x1="304" x2="947" y1="632.7891" y2="632.7891"/><text fill="#000000" font-family="sans-serif" font-size="13" font-weight="bold" lengthAdjust="spacing" textLength="14" x="316" y="627.9326">13</text><text fill="#000000" font-family="sans-serif" font-size="13" lengthAdjust="spacing" textLength="508" x="334" y="627.9326">asks user if they desire to input additional (not mandatory) information about the product</text><path d="M9,647.7891 L70,647.7891 L70,655.7891 L60,665.7891 L9,665.7891 L9,647.7891 " fill="#EEEEEE" style="stroke:#000000;stroke-width:1.0;"/><rect fill="none" height="331.8672" style="stroke:#000000;stroke-width:2.0;" width="1988.5" x="9" y="647.7891"/><text fill="#000000" font-family="sans-serif" font-size="13" font-weight="bold" lengthAdjust="spacing" textLength="16" x="24" y="662.2842">alt</text><text fill="#000000" font-family="sans-serif" font-size="11" font-weight="bold" lengthAdjust="spacing" textLength="96" x="85" y="661.208">["if user agrees"]</text><path d="M19,671.1406 L19,746.1406 L564,746.1406 L564,681.1406 L554,671.1406 L19,671.1406 " fill="#FBFB77" filter="url(#fvt1s50ahpra4)" style="stroke:#A80036;stroke-width:1.0;"/><path d="M554,671.1406 L554,681.1406 L564,681.1406 L554,671.1406 " fill="#FBFB77" style="stroke:#A80036;stroke-width:1.0;"/><text fill="#000000" font-family="sans-serif" font-size="13" lengthAdjust="spacing" textLength="431" x="25" y="689.6357">input data is now subjective, user can either add one or ten more attributes</text><text fill="#000000" font-family="sans-serif" font-size="13" lengthAdjust="spacing" textLength="505" x="29" y="705.9873">for each attribute not shown here, the process is equal to the category method that was</text><text fill="#000000" font-family="sans-serif" font-size="13" lengthAdjust="spacing" textLength="516" x="29" y="722.3389">shown above (call controller for setX method, which associates an attribute to the Product</text><text fill="#000000" font-family="sans-serif" font-size="13" lengthAdjust="spacing" textLength="190" x="29" y="738.6904">using set[attribute] method calls)</text><path d="M163,760.5469 L163,786.5469 L421,786.5469 L421,770.5469 L411,760.5469 L163,760.5469 " fill="#FBFB77" filter="url(#fvt1s50ahpra4)" style="stroke:#A80036;stroke-width:1.0;"/><path d="M411,760.5469 L411,770.5469 L421,770.5469 L411,760.5469 " fill="#FBFB77" style="stroke:#A80036;stroke-width:1.0;"/><text fill="#000000" font-family="sans-serif" font-size="13" lengthAdjust="spacing" textLength="237" x="169" y="779.042">for adding images the process is different</text><path d="M247,802.8984 L320,802.8984 L320,810.8984 L310,820.8984 L247,820.8984 L247,802.8984 " fill="#EEEEEE" style="stroke:#000000;stroke-width:1.0;"/><rect fill="none" height="79.0547" style="stroke:#000000;stroke-width:2.0;" width="793.5" x="247" y="802.8984"/><text fill="#000000" font-family="sans-serif" font-size="13" font-weight="bold" lengthAdjust="spacing" textLength="28" x="262" y="817.3936">loop</text><text fill="#000000" font-family="sans-serif" font-size="11" font-weight="bold" lengthAdjust="spacing" textLength="319" x="335" y="816.3174">[the desired quantity of pictures is subjective to the user]</text><polygon fill="#A80036" points="310,839.6016,300,843.6016,310,847.6016,306,843.6016" style="stroke:#A80036;stroke-width:1.0;"/><line style="stroke:#A80036;stroke-width:1.0;stroke-dasharray:2.0,2.0;" x1="304" x2="947" y1="843.6016" y2="843.6016"/><text fill="#000000" font-family="sans-serif" font-size="13" font-weight="bold" lengthAdjust="spacing" textLength="14" x="316" y="838.7451">14</text><text fill="#000000" font-family="sans-serif" font-size="13" lengthAdjust="spacing" textLength="174" x="334" y="838.7451">asks for the product's pictures</text><polygon fill="#A80036" points="936,869.9531,946,873.9531,936,877.9531,940,873.9531" style="stroke:#A80036;stroke-width:1.0;"/><line style="stroke:#A80036;stroke-width:1.0;" x1="299" x2="942" y1="873.9531" y2="873.9531"/><text fill="#000000" font-family="sans-serif" font-size="13" font-weight="bold" lengthAdjust="spacing" textLength="14" x="306" y="869.0967">15</text><text fill="#000000" font-family="sans-serif" font-size="13" lengthAdjust="spacing" textLength="64" x="324" y="869.0967">inputs data</text><polygon fill="#A80036" points="1285,907.3047,1295,911.3047,1285,915.3047,1289,911.3047" style="stroke:#A80036;stroke-width:1.0;"/><line style="stroke:#A80036;stroke-width:1.0;" x1="958" x2="1291" y1="911.3047" y2="911.3047"/><text fill="#000000" font-family="sans-serif" font-size="13" font-weight="bold" lengthAdjust="spacing" textLength="14" x="965" y="906.4482">16</text><text fill="#000000" font-family="sans-serif" font-size="13" lengthAdjust="spacing" textLength="125" x="983" y="906.4482">setImages(pictures,p)</text><polygon fill="#A80036" points="1937,937.6563,1947,941.6563,1937,945.6563,1941,941.6563" style="stroke:#A80036;stroke-width:1.0;"/><line style="stroke:#A80036;stroke-width:1.0;" x1="1307" x2="1943" y1="941.6563" y2="941.6563"/><text fill="#000000" font-family="sans-serif" font-size="13" font-weight="bold" lengthAdjust="spacing" textLength="14" x="1314" y="936.7998">17</text><text fill="#000000" font-family="sans-serif" font-size="13" lengthAdjust="spacing" textLength="114" x="1332" y="936.7998">setImages(pictures)</text><polygon fill="#A80036" points="1285,1005.0078,1295,1009.0078,1285,1013.0078,1289,1009.0078" style="stroke:#A80036;stroke-width:1.0;"/><line style="stroke:#A80036;stroke-width:1.0;" x1="958" x2="1291" y1="1009.0078" y2="1009.0078"/><text fill="#000000" font-family="sans-serif" font-size="13" font-weight="bold" lengthAdjust="spacing" textLength="14" x="965" y="1004.1514">18</text><text fill="#000000" font-family="sans-serif" font-size="13" lengthAdjust="spacing" textLength="103" x="983" y="1004.1514">saveRepository(p)</text><polygon fill="#A80036" points="2048,1035.3594,2058,1039.3594,2048,1043.3594,2052,1039.3594" style="stroke:#A80036;stroke-width:1.0;"/><line style="stroke:#A80036;stroke-width:1.0;" x1="1307" x2="2054" y1="1039.3594" y2="1039.3594"/><text fill="#000000" font-family="sans-serif" font-size="13" font-weight="bold" lengthAdjust="spacing" textLength="14" x="1314" y="1034.5029">19</text><text fill="#000000" font-family="sans-serif" font-size="13" lengthAdjust="spacing" textLength="41" x="1332" y="1034.5029">save(p)</text><polygon fill="#A80036" points="310,1095.7109,300,1099.7109,310,1103.7109,306,1099.7109" style="stroke:#A80036;stroke-width:1.0;"/><line style="stroke:#A80036;stroke-width:1.0;stroke-dasharray:2.0,2.0;" x1="304" x2="947" y1="1099.7109" y2="1099.7109"/><text fill="#000000" font-family="sans-serif" font-size="13" font-weight="bold" lengthAdjust="spacing" textLength="14" x="316" y="1094.8545">20</text><text fill="#000000" font-family="sans-serif" font-size="13" lengthAdjust="spacing" textLength="150" x="334" y="1094.8545">returns operation success</text><!--MD5=[5c95302345c314b91a8e4f0aa4d6da82]
@startuml
autonumber
actor SalesClerk as T
activate T
T -> ":SpecifyNewProductUI" : Starts the process of specifying a new product for sale
activate ":SpecifyNewProductUI"
T <- - ":SpecifyNewProductUI" : asks for the mandatory information first (internal code,short description, extended description and barcode)
T -> ":SpecifyNewProductUI" : inputs data
":SpecifyNewProductUI" -> ":SpecifyNewProductController" : categories = getAllCategories()
activate ":SpecifyNewProductController"
":SpecifyNewProductController" -> ":CategoryRepository" : activeCategories()
activate ":CategoryRepository"
deactivate ":CategoryRepository"
deactivate ":SpecifyNewProductController"
T <- - ":SpecifyNewProductUI" : shows avaliable categories and asks the user to choose one
T -> ":SpecifyNewProductUI" : inputs data
":SpecifyNewProductUI" -> ":SpecifyNewProductController" : p = specifyNewProduct(intCode, sDesc, eDesc, barc)
activate ":SpecifyNewProductController"
note over ":AuthenticationService" : ensure user is authenticated with the role "Sales Clerk" or "Admin"
":SpecifyNewProductController" -> ":AuthenticationService" : ensureAuthenticatedUserHasAnyOf(BaseRoles.SALES_CLERK, BaseRoles.ADMIN)
activate ":AuthenticationService"
deactivate ":AuthenticationService"
create "Product"
":SpecifyNewProductController" -> "Product" : new Product(intCode,shortD,extendedD,barcode)
deactivate ":SpecifyNewProductController"
":SpecifyNewProductUI" -> ":SpecifyNewProductController" : setCategory(chosenCategory,p)
activate ":SpecifyNewProductController"
":SpecifyNewProductController" -> "Product" : setCategory(chosenCategory)
activate "Product"
deactivate "Product"
T <- - ":SpecifyNewProductUI" : asks user if they desire to input additional (not mandatory) information about the product

alt "if user agrees"

note over T : input data is now subjective, user can either add one or ten more attributes\n for each attribute not shown here, the process is equal to the category method that was \n shown above (call controller for setX method, which associates an attribute to the Product \n using set[attribute] method calls)

deactivate ":SpecifyNewProductController"
note over T : for adding images the process is different


loop the desired quantity of pictures is subjective to the user
T <- - ":SpecifyNewProductUI" : asks for the product's pictures
T -> ":SpecifyNewProductUI" : inputs data
end
":SpecifyNewProductUI" -> ":SpecifyNewProductController" : setImages(pictures,p)
activate ":SpecifyNewProductController"
":SpecifyNewProductController" -> "Product" : setImages(pictures)
activate "Product"
deactivate "Product"
deactivate ":SpecifyNewProductController"
end
":SpecifyNewProductUI" -> ":SpecifyNewProductController" : saveRepository(p)
activate ":SpecifyNewProductController"
":SpecifyNewProductController" -> "ProductRepository" : save(p)
activate "ProductRepository"
deactivate "ProductRepository"
deactivate ":SpecifyNewProductController"
participant BufferedImage
participant Category
T <- - ":SpecifyNewProductUI" : returns operation success

@enduml

PlantUML version 1.2021.11(Sat Oct 02 14:26:11 BST 2021)
(GPL source distribution)
Java Runtime: OpenJDK Runtime Environment
JVM: OpenJDK 64-Bit Server VM
Default Encoding: Cp1252
Language: pt
Country: PT
--></g></svg>