<?xml version="1.0" encoding="UTF-8" standalone="no"?><svg xmlns="http://www.w3.org/2000/svg" xmlns:xlink="http://www.w3.org/1999/xlink" contentScriptType="application/ecmascript" contentStyleType="text/css" height="399.2px" preserveAspectRatio="none" style="width:723px;height:399px;background:#FFFFFF;" version="1.1" viewBox="0 0 723 399" width="723.2px" zoomAndPan="magnify"><defs><filter height="300%" id="fb81h4pbivmdw" width="300%" x="-1" y="-1"><feGaussianBlur result="blurOut" stdDeviation="1.6000000000000003"/><feColorMatrix in="blurOut" result="blurOut2" type="matrix" values="0 0 0 0 0 0 0 0 0 0 0 0 0 0 0 0 0 0 .4 0"/><feOffset dx="3.2000000000000006" dy="3.2000000000000006" in="blurOut2" result="blurOut3"/><feBlend in="SourceGraphic" in2="blurOut3" mode="normal"/></filter></defs><g><!--MD5=[9681dc6e01e10c6b4fe06895ae94f592]
cluster UI--><polygon fill="#FFFFFF" filter="url(#fb81h4pbivmdw)" points="228.8,4.8,244.8,4.8,250.4,23.6875,384,23.6875,384,96,228.8,96,228.8,4.8" style="stroke:#000000;stroke-width:1.2000000000000002;"/><line style="stroke:#000000;stroke-width:1.2000000000000002;" x1="228.8" x2="250.4" y1="23.6875" y2="23.6875"/><text fill="#000000" font-family="sans-serif" font-size="11.2" font-weight="bold" lengthAdjust="spacing" textLength="11.2" x="232" y="18.0266">UI</text><!--MD5=[1f2cfc53d9d308f53762fd0fcbaa4873]
cluster Controller--><polygon fill="#FFFFFF" filter="url(#fb81h4pbivmdw)" points="134.4,115.2,196,115.2,201.6,134.0875,490.4,134.0875,490.4,217.6,134.4,217.6,134.4,115.2" style="stroke:#000000;stroke-width:1.2000000000000002;"/><line style="stroke:#000000;stroke-width:1.2000000000000002;" x1="134.4" x2="201.6" y1="134.0875" y2="134.0875"/><text fill="#000000" font-family="sans-serif" font-size="11.2" font-weight="bold" lengthAdjust="spacing" textLength="56.8" x="137.6" y="128.4266">Controller</text><!--MD5=[2c2e2644034c00788261e03c85b06837]
cluster Core--><polygon fill="#FFFFFF" filter="url(#fb81h4pbivmdw)" points="12.8,236.8,44.8,236.8,50.4,255.6875,709.6,255.6875,709.6,393.6,12.8,393.6,12.8,236.8" style="stroke:#000000;stroke-width:1.2000000000000002;"/><line style="stroke:#000000;stroke-width:1.2000000000000002;" x1="12.8" x2="50.4" y1="255.6875" y2="255.6875"/><text fill="#000000" font-family="sans-serif" font-size="11.2" font-weight="bold" lengthAdjust="spacing" textLength="27.2" x="16" y="250.0266">Core</text><!--MD5=[acb0c8402f85a957a6e5910fb75f4576]
cluster Auth--><polygon fill="#FFFFFF" filter="url(#fb81h4pbivmdw)" points="485.6,277.6,516,277.6,521.6,296.4875,690.4,296.4875,690.4,368.8,485.6,368.8,485.6,277.6" style="stroke:#000000;stroke-width:1.2000000000000002;"/><line style="stroke:#000000;stroke-width:1.2000000000000002;" x1="485.6" x2="521.6" y1="296.4875" y2="296.4875"/><text fill="#000000" font-family="sans-serif" font-size="11.2" font-weight="bold" lengthAdjust="spacing" textLength="25.6" x="488.8" y="290.8266">Auth</text><!--MD5=[f21b1f164e99c6b37934f23ad048ad54]
cluster Data--><polygon fill="#FFFFFF" filter="url(#fb81h4pbivmdw)" points="333.6,272,363.2,272,368.8,290.8875,466.4,290.8875,466.4,374.4,333.6,374.4,333.6,272" style="stroke:#000000;stroke-width:1.2000000000000002;"/><line style="stroke:#000000;stroke-width:1.2000000000000002;" x1="333.6" x2="368.8" y1="290.8875" y2="290.8875"/><text fill="#000000" font-family="sans-serif" font-size="11.2" font-weight="bold" lengthAdjust="spacing" textLength="24.8" x="336.8" y="285.2266">Data</text><!--MD5=[15636c1ca4a123c16a2a1a8e90aca7a9]
cluster Model--><polygon fill="#FFFFFF" filter="url(#fb81h4pbivmdw)" points="32,277.6,72,277.6,77.6,296.4875,314.4,296.4875,314.4,368.8,32,368.8,32,277.6" style="stroke:#000000;stroke-width:1.2000000000000002;"/><line style="stroke:#000000;stroke-width:1.2000000000000002;" x1="32" x2="77.6" y1="296.4875" y2="296.4875"/><text fill="#000000" font-family="sans-serif" font-size="11.2" font-weight="bold" lengthAdjust="spacing" textLength="35.2" x="35.2" y="290.8266">Model</text><!--MD5=[d7b42206723faf57d3fc6da73a70f95b]
class ViewProductsCatalogUI--><rect codeLine="3" fill="#FEFECE" filter="url(#fb81h4pbivmdw)" height="49.4688" id="ViewProductsCatalogUI" style="stroke:#A80036;stroke-width:1.2000000000000002;" width="129.6" x="241.6" y="33.6"/><ellipse cx="253.6" cy="46.4" fill="#ADD1B2" rx="8.8" ry="8.8" style="stroke:#A80036;stroke-width:0.8000000000000002;"/><path d="M255.2,43.6 Q255.3625,43.2 255.55,43 Q255.7375,42.8 255.95,42.8 Q256.325,42.8 256.5625,43.025 Q256.8,43.25 256.8,43.775 L256.8,45.025 Q256.8,45.55 256.575,45.775 Q256.35,46 256,46 Q255.6875,46 255.4875,45.8625 Q255.2875,45.725 255.2,45.3625 Q255.1625,45.1125 255.025,44.975 Q254.775,44.7125 254.325,44.5625 Q253.875,44.4 253.425,44.4 Q252.8625,44.4 252.3875,44.625 Q251.925,44.85 251.5625,45.35 Q251.2,45.85 251.2,46.5375 L251.2,47.275 Q251.2,48.1 251.875,48.65 Q252.55,49.2 253.75,49.2 Q254.4625,49.2 254.9625,49.0375 Q255.25,48.95 255.575,48.6625 Q255.7875,48.5 255.9,48.45 Q256.0125,48.4 256.15,48.4 Q256.4125,48.4 256.6,48.6125 Q256.8,48.8125 256.8,49.1 Q256.8,49.375 256.525,49.7 Q256.125,50.175 255.4875,50.4375 Q254.65,50.8 253.625,50.8 Q252.425,50.8 251.4625,50.325 Q250.6875,49.95 250.1375,49.1375 Q249.6,48.325 249.6,47.3625 L249.6,46.4875 Q249.6,45.4875 250.075,44.6125 Q250.5625,43.7375 251.4,43.275 Q252.25,42.8 253.2,42.8 Q253.775,42.8 254.275,43 Q254.775,43.2 255.2,43.6 Z " fill="#000000"/><text fill="#000000" font-family="sans-serif" font-size="9.6" lengthAdjust="spacing" textLength="104" x="264.8" y="50.3281">ViewProductsCatalogUI</text><line style="stroke:#A80036;stroke-width:1.2000000000000002;" x1="242.4" x2="370.4" y1="59.2" y2="59.2"/><line style="stroke:#A80036;stroke-width:1.2000000000000002;" x1="242.4" x2="370.4" y1="65.6" y2="65.6"/><ellipse cx="250.4" cy="74.4" fill="#84BE84" rx="2.4" ry="2.4" style="stroke:#038048;stroke-width:0.8000000000000002;"/><text fill="#000000" font-family="sans-serif" font-size="8.8" lengthAdjust="spacing" textLength="39.2" x="257.6" y="77.9352">doShow()</text><!--MD5=[c9630809522291cda3a4503347fe673c]
class ViewProductsCatalogController--><rect codeLine="9" fill="#FEFECE" filter="url(#fb81h4pbivmdw)" height="49.4688" id="ViewProductsCatalogController" style="stroke:#A80036;stroke-width:1.2000000000000002;" width="163.2" x="314.4" y="149.6"/><ellipse cx="326.4" cy="162.4" fill="#ADD1B2" rx="8.8" ry="8.8" style="stroke:#A80036;stroke-width:0.8000000000000002;"/><path d="M328,159.6 Q328.1625,159.2 328.35,159 Q328.5375,158.8 328.75,158.8 Q329.125,158.8 329.3625,159.025 Q329.6,159.25 329.6,159.775 L329.6,161.025 Q329.6,161.55 329.375,161.775 Q329.15,162 328.8,162 Q328.4875,162 328.2875,161.8625 Q328.0875,161.725 328,161.3625 Q327.9625,161.1125 327.825,160.975 Q327.575,160.7125 327.125,160.5625 Q326.675,160.4 326.225,160.4 Q325.6625,160.4 325.1875,160.625 Q324.725,160.85 324.3625,161.35 Q324,161.85 324,162.5375 L324,163.275 Q324,164.1 324.675,164.65 Q325.35,165.2 326.55,165.2 Q327.2625,165.2 327.7625,165.0375 Q328.05,164.95 328.375,164.6625 Q328.5875,164.5 328.7,164.45 Q328.8125,164.4 328.95,164.4 Q329.2125,164.4 329.4,164.6125 Q329.6,164.8125 329.6,165.1 Q329.6,165.375 329.325,165.7 Q328.925,166.175 328.2875,166.4375 Q327.45,166.8 326.425,166.8 Q325.225,166.8 324.2625,166.325 Q323.4875,165.95 322.9375,165.1375 Q322.4,164.325 322.4,163.3625 L322.4,162.4875 Q322.4,161.4875 322.875,160.6125 Q323.3625,159.7375 324.2,159.275 Q325.05,158.8 326,158.8 Q326.575,158.8 327.075,159 Q327.575,159.2 328,159.6 Z " fill="#000000"/><text fill="#000000" font-family="sans-serif" font-size="9.6" lengthAdjust="spacing" textLength="137.6" x="337.6" y="166.3281">ViewProductsCatalogController</text><line style="stroke:#A80036;stroke-width:1.2000000000000002;" x1="315.2" x2="476.8" y1="175.2" y2="175.2"/><line style="stroke:#A80036;stroke-width:1.2000000000000002;" x1="315.2" x2="476.8" y1="181.6" y2="181.6"/><ellipse cx="323.2" cy="190.4" fill="#84BE84" rx="2.4" ry="2.4" style="stroke:#038048;stroke-width:0.8000000000000002;"/><text fill="#000000" font-family="sans-serif" font-size="8.8" lengthAdjust="spacing" textLength="104" x="330.4" y="193.9352">getProductsFilter(filter,key)</text><!--MD5=[7abb4ed877febb9ed7468996e6aace88]
class ViewProductInfoController--><rect codeLine="14" fill="#FEFECE" filter="url(#fb81h4pbivmdw)" height="60.5375" id="ViewProductInfoController" style="stroke:#A80036;stroke-width:1.2000000000000002;" width="139.2" x="147.2" y="144"/><ellipse cx="159.2" cy="156.8" fill="#ADD1B2" rx="8.8" ry="8.8" style="stroke:#A80036;stroke-width:0.8000000000000002;"/><path d="M160.8,154 Q160.9625,153.6 161.15,153.4 Q161.3375,153.2 161.55,153.2 Q161.925,153.2 162.1625,153.425 Q162.4,153.65 162.4,154.175 L162.4,155.425 Q162.4,155.95 162.175,156.175 Q161.95,156.4 161.6,156.4 Q161.2875,156.4 161.0875,156.2625 Q160.8875,156.125 160.8,155.7625 Q160.7625,155.5125 160.625,155.375 Q160.375,155.1125 159.925,154.9625 Q159.475,154.8 159.025,154.8 Q158.4625,154.8 157.9875,155.025 Q157.525,155.25 157.1625,155.75 Q156.8,156.25 156.8,156.9375 L156.8,157.675 Q156.8,158.5 157.475,159.05 Q158.15,159.6 159.35,159.6 Q160.0625,159.6 160.5625,159.4375 Q160.85,159.35 161.175,159.0625 Q161.3875,158.9 161.5,158.85 Q161.6125,158.8 161.75,158.8 Q162.0125,158.8 162.2,159.0125 Q162.4,159.2125 162.4,159.5 Q162.4,159.775 162.125,160.1 Q161.725,160.575 161.0875,160.8375 Q160.25,161.2 159.225,161.2 Q158.025,161.2 157.0625,160.725 Q156.2875,160.35 155.7375,159.5375 Q155.2,158.725 155.2,157.7625 L155.2,156.8875 Q155.2,155.8875 155.675,155.0125 Q156.1625,154.1375 157,153.675 Q157.85,153.2 158.8,153.2 Q159.375,153.2 159.875,153.4 Q160.375,153.6 160.8,154 Z " fill="#000000"/><text fill="#000000" font-family="sans-serif" font-size="9.6" lengthAdjust="spacing" textLength="113.6" x="170.4" y="160.7281">ViewProductInfoController</text><line style="stroke:#A80036;stroke-width:1.2000000000000002;" x1="148" x2="285.6" y1="169.6" y2="169.6"/><line style="stroke:#A80036;stroke-width:1.2000000000000002;" x1="148" x2="285.6" y1="176" y2="176"/><ellipse cx="156" cy="184.8" fill="#84BE84" rx="2.4" ry="2.4" style="stroke:#038048;stroke-width:0.8000000000000002;"/><text fill="#000000" font-family="sans-serif" font-size="8.8" lengthAdjust="spacing" textLength="117.6" x="163.2" y="188.3352">productAllInformation(product)</text><ellipse cx="156" cy="195.8688" fill="#84BE84" rx="2.4" ry="2.4" style="stroke:#038048;stroke-width:0.8000000000000002;"/><text fill="#000000" font-family="sans-serif" font-size="8.8" lengthAdjust="spacing" textLength="94.4" x="163.2" y="199.4039">displayPictures(product)</text><!--MD5=[b07be2b600772d055921457a51a4b081]
class AuthenticationService--><rect codeLine="22" fill="#FEFECE" filter="url(#fb81h4pbivmdw)" height="49.4688" id="AuthenticationService" style="stroke:#A80036;stroke-width:1.2000000000000002;" width="179.2" x="498.4" y="306.4"/><ellipse cx="537.8" cy="319.2" fill="#ADD1B2" rx="8.8" ry="8.8" style="stroke:#A80036;stroke-width:0.8000000000000002;"/><path d="M539.4,316.4 Q539.5625,316 539.75,315.8 Q539.9375,315.6 540.15,315.6 Q540.525,315.6 540.7625,315.825 Q541,316.05 541,316.575 L541,317.825 Q541,318.35 540.775,318.575 Q540.55,318.8 540.2,318.8 Q539.8875,318.8 539.6875,318.6625 Q539.4875,318.525 539.4,318.1625 Q539.3625,317.9125 539.225,317.775 Q538.975,317.5125 538.525,317.3625 Q538.075,317.2 537.625,317.2 Q537.0625,317.2 536.5875,317.425 Q536.125,317.65 535.7625,318.15 Q535.4,318.65 535.4,319.3375 L535.4,320.075 Q535.4,320.9 536.075,321.45 Q536.75,322 537.95,322 Q538.6625,322 539.1625,321.8375 Q539.45,321.75 539.775,321.4625 Q539.9875,321.3 540.1,321.25 Q540.2125,321.2 540.35,321.2 Q540.6125,321.2 540.8,321.4125 Q541,321.6125 541,321.9 Q541,322.175 540.725,322.5 Q540.325,322.975 539.6875,323.2375 Q538.85,323.6 537.825,323.6 Q536.625,323.6 535.6625,323.125 Q534.8875,322.75 534.3375,321.9375 Q533.8,321.125 533.8,320.1625 L533.8,319.2875 Q533.8,318.2875 534.275,317.4125 Q534.7625,316.5375 535.6,316.075 Q536.45,315.6 537.4,315.6 Q537.975,315.6 538.475,315.8 Q538.975,316 539.4,316.4 Z " fill="#000000"/><text fill="#000000" font-family="sans-serif" font-size="9.6" lengthAdjust="spacing" textLength="93.6" x="554.2" y="323.1281">AuthenticationService</text><line style="stroke:#A80036;stroke-width:1.2000000000000002;" x1="499.2" x2="676.8" y1="332" y2="332"/><line style="stroke:#A80036;stroke-width:1.2000000000000002;" x1="499.2" x2="676.8" y1="338.4" y2="338.4"/><ellipse cx="507.2" cy="347.2" fill="#84BE84" rx="2.4" ry="2.4" style="stroke:#038048;stroke-width:0.8000000000000002;"/><text fill="#000000" font-family="sans-serif" font-size="8.8" lengthAdjust="spacing" textLength="158.4" x="514.4" y="350.7352">ensureAuthenticatedUsrHasAnyOf(Role)</text><!--MD5=[f9761e4ec0e5a044b983a0fb01ce84a9]
class ProductRepository--><rect codeLine="28" fill="#FEFECE" filter="url(#fb81h4pbivmdw)" height="60.5375" id="ProductRepository" style="stroke:#A80036;stroke-width:1.2000000000000002;" width="106.4" x="346.8" y="300.8"/><ellipse cx="358.8" cy="313.6" fill="#ADD1B2" rx="8.8" ry="8.8" style="stroke:#A80036;stroke-width:0.8000000000000002;"/><path d="M360.4,310.8 Q360.5625,310.4 360.75,310.2 Q360.9375,310 361.15,310 Q361.525,310 361.7625,310.225 Q362,310.45 362,310.975 L362,312.225 Q362,312.75 361.775,312.975 Q361.55,313.2 361.2,313.2 Q360.8875,313.2 360.6875,313.0625 Q360.4875,312.925 360.4,312.5625 Q360.3625,312.3125 360.225,312.175 Q359.975,311.9125 359.525,311.7625 Q359.075,311.6 358.625,311.6 Q358.0625,311.6 357.5875,311.825 Q357.125,312.05 356.7625,312.55 Q356.4,313.05 356.4,313.7375 L356.4,314.475 Q356.4,315.3 357.075,315.85 Q357.75,316.4 358.95,316.4 Q359.6625,316.4 360.1625,316.2375 Q360.45,316.15 360.775,315.8625 Q360.9875,315.7 361.1,315.65 Q361.2125,315.6 361.35,315.6 Q361.6125,315.6 361.8,315.8125 Q362,316.0125 362,316.3 Q362,316.575 361.725,316.9 Q361.325,317.375 360.6875,317.6375 Q359.85,318 358.825,318 Q357.625,318 356.6625,317.525 Q355.8875,317.15 355.3375,316.3375 Q354.8,315.525 354.8,314.5625 L354.8,313.6875 Q354.8,312.6875 355.275,311.8125 Q355.7625,310.9375 356.6,310.475 Q357.45,310 358.4,310 Q358.975,310 359.475,310.2 Q359.975,310.4 360.4,310.8 Z " fill="#000000"/><text fill="#000000" font-family="sans-serif" font-size="9.6" lengthAdjust="spacing" textLength="80.8" x="370" y="317.5281">ProductRepository</text><line style="stroke:#A80036;stroke-width:1.2000000000000002;" x1="347.6" x2="452.4" y1="326.4" y2="326.4"/><line style="stroke:#A80036;stroke-width:1.2000000000000002;" x1="347.6" x2="452.4" y1="332.8" y2="332.8"/><ellipse cx="355.6" cy="341.6" fill="#84BE84" rx="2.4" ry="2.4" style="stroke:#038048;stroke-width:0.8000000000000002;"/><text fill="#000000" font-family="sans-serif" font-size="8.8" lengthAdjust="spacing" textLength="74.4" x="362.8" y="345.1352">query(query,class)</text><ellipse cx="355.6" cy="352.6688" fill="#84BE84" rx="2.4" ry="2.4" style="stroke:#038048;stroke-width:0.8000000000000002;"/><text fill="#000000" font-family="sans-serif" font-size="8.8" lengthAdjust="spacing" textLength="56" x="362.8" y="356.2039">getResultList()</text><!--MD5=[72136138052d025cffdce3c22fbd185f]
class Product--><rect codeLine="35" fill="#FEFECE" filter="url(#fb81h4pbivmdw)" height="49.4688" id="Product" style="stroke:#A80036;stroke-width:1.2000000000000002;" width="169.6" x="132" y="306.4"/><ellipse cx="196.6" cy="319.2" fill="#ADD1B2" rx="8.8" ry="8.8" style="stroke:#A80036;stroke-width:0.8000000000000002;"/><path d="M198.2,316.4 Q198.3625,316 198.55,315.8 Q198.7375,315.6 198.95,315.6 Q199.325,315.6 199.5625,315.825 Q199.8,316.05 199.8,316.575 L199.8,317.825 Q199.8,318.35 199.575,318.575 Q199.35,318.8 199,318.8 Q198.6875,318.8 198.4875,318.6625 Q198.2875,318.525 198.2,318.1625 Q198.1625,317.9125 198.025,317.775 Q197.775,317.5125 197.325,317.3625 Q196.875,317.2 196.425,317.2 Q195.8625,317.2 195.3875,317.425 Q194.925,317.65 194.5625,318.15 Q194.2,318.65 194.2,319.3375 L194.2,320.075 Q194.2,320.9 194.875,321.45 Q195.55,322 196.75,322 Q197.4625,322 197.9625,321.8375 Q198.25,321.75 198.575,321.4625 Q198.7875,321.3 198.9,321.25 Q199.0125,321.2 199.15,321.2 Q199.4125,321.2 199.6,321.4125 Q199.8,321.6125 199.8,321.9 Q199.8,322.175 199.525,322.5 Q199.125,322.975 198.4875,323.2375 Q197.65,323.6 196.625,323.6 Q195.425,323.6 194.4625,323.125 Q193.6875,322.75 193.1375,321.9375 Q192.6,321.125 192.6,320.1625 L192.6,319.2875 Q192.6,318.2875 193.075,317.4125 Q193.5625,316.5375 194.4,316.075 Q195.25,315.6 196.2,315.6 Q196.775,315.6 197.275,315.8 Q197.775,316 198.2,316.4 Z " fill="#000000"/><text fill="#000000" font-family="sans-serif" font-size="9.6" lengthAdjust="spacing" textLength="33.6" x="213" y="323.1281">Product</text><line style="stroke:#A80036;stroke-width:1.2000000000000002;" x1="132.8" x2="300.8" y1="332" y2="332"/><line style="stroke:#A80036;stroke-width:1.2000000000000002;" x1="132.8" x2="300.8" y1="338.4" y2="338.4"/><ellipse cx="140.8" cy="347.2" fill="#84BE84" rx="2.4" ry="2.4" style="stroke:#038048;stroke-width:0.8000000000000002;"/><text fill="#000000" font-family="sans-serif" font-size="8.8" lengthAdjust="spacing" textLength="148.8" x="148" y="350.7352">create(intCode,sDesc,eDesc,barcode)</text><!--MD5=[a520837ef4416b7ac44f8bb1541877a6]
class JFrame--><rect codeLine="38" fill="#FEFECE" filter="url(#fb81h4pbivmdw)" height="38.4" id="JFrame" style="stroke:#A80036;stroke-width:1.2000000000000002;" width="59.2" x="44.8" y="312"/><ellipse cx="56.8" cy="324.8" fill="#ADD1B2" rx="8.8" ry="8.8" style="stroke:#A80036;stroke-width:0.8000000000000002;"/><path d="M58.4,322 Q58.5625,321.6 58.75,321.4 Q58.9375,321.2 59.15,321.2 Q59.525,321.2 59.7625,321.425 Q60,321.65 60,322.175 L60,323.425 Q60,323.95 59.775,324.175 Q59.55,324.4 59.2,324.4 Q58.8875,324.4 58.6875,324.2625 Q58.4875,324.125 58.4,323.7625 Q58.3625,323.5125 58.225,323.375 Q57.975,323.1125 57.525,322.9625 Q57.075,322.8 56.625,322.8 Q56.0625,322.8 55.5875,323.025 Q55.125,323.25 54.7625,323.75 Q54.4,324.25 54.4,324.9375 L54.4,325.675 Q54.4,326.5 55.075,327.05 Q55.75,327.6 56.95,327.6 Q57.6625,327.6 58.1625,327.4375 Q58.45,327.35 58.775,327.0625 Q58.9875,326.9 59.1,326.85 Q59.2125,326.8 59.35,326.8 Q59.6125,326.8 59.8,327.0125 Q60,327.2125 60,327.5 Q60,327.775 59.725,328.1 Q59.325,328.575 58.6875,328.8375 Q57.85,329.2 56.825,329.2 Q55.625,329.2 54.6625,328.725 Q53.8875,328.35 53.3375,327.5375 Q52.8,326.725 52.8,325.7625 L52.8,324.8875 Q52.8,323.8875 53.275,323.0125 Q53.7625,322.1375 54.6,321.675 Q55.45,321.2 56.4,321.2 Q56.975,321.2 57.475,321.4 Q57.975,321.6 58.4,322 Z " fill="#000000"/><text fill="#000000" font-family="sans-serif" font-size="9.6" lengthAdjust="spacing" textLength="33.6" x="68" y="328.7281">JFrame</text><line style="stroke:#A80036;stroke-width:1.2000000000000002;" x1="45.6" x2="103.2" y1="337.6" y2="337.6"/><line style="stroke:#A80036;stroke-width:1.2000000000000002;" x1="45.6" x2="103.2" y1="344" y2="344"/><!--MD5=[d2f68f18293892b19b7df0cf6896bd31]
link ViewProductsCatalogUI to ViewProductsCatalogController--><path codeLine="42" d="M325.4,83.464 C339.776,101.816 359.528,127.032 374.48,146.12 " fill="none" id="ViewProductsCatalogUI-to-ViewProductsCatalogController" style="stroke:#A80036;stroke-width:0.8000000000000002;"/><polygon fill="#A80036" points="377.024,149.376,375.1066,141.7338,374.5588,146.226,370.0666,145.6782,377.024,149.376" style="stroke:#A80036;stroke-width:0.8000000000000002;"/><!--MD5=[4c39d7b35d2bd163cda3c9dd45229d1c]
link ViewProductsCatalogUI to ViewProductInfoController--><path codeLine="43" d="M287.4,83.464 C274.392,100.072 256.976,122.304 242.704,140.528 " fill="none" id="ViewProductsCatalogUI-to-ViewProductInfoController" style="stroke:#A80036;stroke-width:0.8000000000000002;"/><polygon fill="#A80036" points="240.072,143.88,247.0359,140.1944,242.5428,140.7343,242.0029,136.2412,240.072,143.88" style="stroke:#A80036;stroke-width:0.8000000000000002;"/><!--MD5=[51b010bccf5128e734ae3ded576b125b]
link ViewProductInfoController to Product--><path codeLine="44" d="M216.8,205.128 C216.8,233.048 216.8,274.424 216.8,301.888 " fill="none" id="ViewProductInfoController-to-Product" style="stroke:#A80036;stroke-width:0.8000000000000002;stroke-dasharray:7.0,7.0;"/><polygon fill="#A80036" points="216.8,306.168,220,298.968,216.8,302.168,213.6,298.968,216.8,306.168" style="stroke:#A80036;stroke-width:0.8000000000000002;"/><!--MD5=[531f7a4f3bfe4625008e0601ee46006f]
link ViewProductInfoController to JFrame--><path codeLine="45" d="M150.024,204.824 C138.488,212.016 127.352,220.536 118.4,230.4 C98.12,252.744 86.048,285.936 79.824,307.864 " fill="none" id="ViewProductInfoController-to-JFrame" style="stroke:#A80036;stroke-width:0.8000000000000002;stroke-dasharray:7.0,7.0;"/><polygon fill="#A80036" points="78.728,311.824,83.728,305.7347,79.7921,307.9681,77.5587,304.0322,78.728,311.824" style="stroke:#A80036;stroke-width:0.8000000000000002;"/><!--MD5=[13293da300e0838f26628a930a706b17]
link ViewProductsCatalogController to Product--><path codeLine="46" d="M368,199.448 C335.384,227.696 281.672,274.216 247.816,303.536 " fill="none" id="ViewProductsCatalogController-to-Product" style="stroke:#A80036;stroke-width:0.8000000000000002;stroke-dasharray:7.0,7.0;"/><polygon fill="#A80036" points="244.6,306.32,252.14,304.0335,247.6265,303.7046,247.9554,299.1911,244.6,306.32" style="stroke:#A80036;stroke-width:0.8000000000000002;"/><!--MD5=[b500c80c98bde3d4e0a0dbbc72c34566]
link ViewProductsCatalogController to ProductRepository--><path codeLine="47" d="M396.624,199.448 C397.296,225.536 398.368,267.208 399.128,296.52 " fill="none" id="ViewProductsCatalogController-to-ProductRepository" style="stroke:#A80036;stroke-width:0.8000000000000002;stroke-dasharray:7.0,7.0;"/><polygon fill="#A80036" points="399.232,300.752,402.2459,293.4721,399.1292,296.7533,395.848,293.6366,399.232,300.752" style="stroke:#A80036;stroke-width:0.8000000000000002;"/><!--MD5=[64a8fb2b2f83290abb1dd2c22d8b3f35]
link ViewProductsCatalogController to AuthenticationService--><path codeLine="48" d="M426.968,199.232 C439.288,208.856 453.56,220.088 466.4,230.4 C496.992,254.968 531.512,283.432 555.936,303.688 " fill="none" id="ViewProductsCatalogController-to-AuthenticationService" style="stroke:#A80036;stroke-width:0.8000000000000002;stroke-dasharray:7.0,7.0;"/><polygon fill="#A80036" points="559.16,306.368,555.6593,299.3093,556.0806,303.8152,551.5747,304.2364,559.16,306.368" style="stroke:#A80036;stroke-width:0.8000000000000002;"/><!--MD5=[ace55a2bc8f02dae7b5bbb462cea7f9e]
@startuml

package UI{
    class ViewProductsCatalogUI{
    +doShow()
    }
}

package Controller{
    class ViewProductsCatalogController{
    +getProductsFilter(filter,key)


    }
    class ViewProductInfoController{
    +productAllInformation(product)
    +displayPictures(product)
    }
}

package Core{
package Auth{
    class AuthenticationService{
    +ensureAuthenticatedUsrHasAnyOf(Role)
    }    
}
package Data{

class ProductRepository{
    +query(query,class)
    +getResultList()
}
}
package Model{

    class Product{
        +create(intCode,sDesc,eDesc,barcode)
    }
    class JFrame{}
}

}
ViewProductsCatalogUI - -> ViewProductsCatalogController
ViewProductsCatalogUI - -> ViewProductInfoController
ViewProductInfoController ..> Product
ViewProductInfoController ..> JFrame
ViewProductsCatalogController ..> Product
ViewProductsCatalogController ..> ProductRepository
ViewProductsCatalogController ..> AuthenticationService




@enduml

PlantUML version 1.2021.11(Sat Oct 02 14:26:11 BST 2021)
(GPL source distribution)
Java Runtime: OpenJDK Runtime Environment
JVM: OpenJDK 64-Bit Server VM
Default Encoding: Cp1252
Language: pt
Country: PT
--></g></svg>