<?xml version="1.0" encoding="UTF-8" standalone="no"?><svg xmlns="http://www.w3.org/2000/svg" xmlns:xlink="http://www.w3.org/1999/xlink" contentScriptType="application/ecmascript" contentStyleType="text/css" height="484px" preserveAspectRatio="none" style="width:407px;height:484px;background:#FFFFFF;" version="1.1" viewBox="0 0 407 484" width="407px" zoomAndPan="magnify"><defs><filter height="300%" id="f1v1lbfkfbv99r" width="300%" x="-1" y="-1"><feGaussianBlur result="blurOut" stdDeviation="2.0"/><feColorMatrix in="blurOut" result="blurOut2" type="matrix" values="0 0 0 0 0 0 0 0 0 0 0 0 0 0 0 0 0 0 .4 0"/><feOffset dx="4.0" dy="4.0" in="blurOut2" result="blurOut3"/><feBlend in="SourceGraphic" in2="blurOut3" mode="normal"/></filter></defs><g><!--MD5=[a943f77524e9270b87d81c72dc1d0e3e]
cluster base.app.ordersserver--><polygon fill="#FFFFFF" filter="url(#f1v1lbfkfbv99r)" points="16,6,184,6,191,29.6094,194,29.6094,194,339,16,339,16,6" style="stroke:#000000;stroke-width:1.5;"/><line style="stroke:#000000;stroke-width:1.5;" x1="16" x2="191" y1="29.6094" y2="29.6094"/><text fill="#000000" font-family="sans-serif" font-size="14" font-weight="bold" lengthAdjust="spacing" textLength="162" x="20" y="22.5332">base.app.ordersserver</text><!--MD5=[6deae7916c33f6ef5d792aed13cd1a28]
cluster base.core.infrasctructure.spomsp.commonrequest--><polygon fill="#FFFFFF" filter="url(#f1v1lbfkfbv99r)" points="18,363,380,363,387,386.6094,390,386.6094,390,477,18,477,18,363" style="stroke:#000000;stroke-width:1.5;"/><line style="stroke:#000000;stroke-width:1.5;" x1="18" x2="387" y1="386.6094" y2="386.6094"/><text fill="#000000" font-family="sans-serif" font-size="14" font-weight="bold" lengthAdjust="spacing" textLength="356" x="22" y="379.5332">base.core.infrasctructure.spomsp.commonrequest</text><!--MD5=[7f724613c5b3b757655ce4cc8f1c0042]
class OrdersServer--><rect codeLine="3" fill="#FEFECE" filter="url(#f1v1lbfkfbv99r)" height="61.8359" id="OrdersServer" style="stroke:#A80036;stroke-width:1.5;" width="105" x="52.5" y="42"/><ellipse cx="67.5" cy="58" fill="#ADD1B2" rx="11" ry="11" style="stroke:#A80036;stroke-width:1.0;"/><path d="M69.5,54.5 Q69.7031,54 69.9375,53.75 Q70.1719,53.5 70.4375,53.5 Q70.9063,53.5 71.2031,53.7813 Q71.5,54.0625 71.5,54.7188 L71.5,56.2813 Q71.5,56.9375 71.2188,57.2188 Q70.9375,57.5 70.5,57.5 Q70.1094,57.5 69.8594,57.3281 Q69.6094,57.1563 69.5,56.7031 Q69.4531,56.3906 69.2813,56.2188 Q68.9688,55.8906 68.4063,55.7031 Q67.8438,55.5 67.2813,55.5 Q66.5781,55.5 65.9844,55.7813 Q65.4063,56.0625 64.9531,56.6875 Q64.5,57.3125 64.5,58.1719 L64.5,59.0938 Q64.5,60.125 65.3438,60.8125 Q66.1875,61.5 67.6875,61.5 Q68.5781,61.5 69.2031,61.2969 Q69.5625,61.1875 69.9688,60.8281 Q70.2344,60.625 70.375,60.5625 Q70.5156,60.5 70.6875,60.5 Q71.0156,60.5 71.25,60.7656 Q71.5,61.0156 71.5,61.375 Q71.5,61.7188 71.1563,62.125 Q70.6563,62.7188 69.8594,63.0469 Q68.8125,63.5 67.5313,63.5 Q66.0313,63.5 64.8281,62.9063 Q63.8594,62.4375 63.1719,61.4219 Q62.5,60.4063 62.5,59.2031 L62.5,58.1094 Q62.5,56.8594 63.0938,55.7656 Q63.7031,54.6719 64.75,54.0938 Q65.8125,53.5 67,53.5 Q67.7188,53.5 68.3438,53.75 Q68.9688,54 69.5,54.5 Z " fill="#000000"/><text fill="#000000" font-family="sans-serif" font-size="12" lengthAdjust="spacing" textLength="73" x="81.5" y="62.9102">OrdersServer</text><line style="stroke:#A80036;stroke-width:1.5;" x1="53.5" x2="156.5" y1="74" y2="74"/><line style="stroke:#A80036;stroke-width:1.5;" x1="53.5" x2="156.5" y1="82" y2="82"/><ellipse cx="63.5" cy="93" fill="#84BE84" rx="3" ry="3" style="stroke:#038048;stroke-width:1.0;"/><text fill="#000000" font-family="sans-serif" font-size="11" lengthAdjust="spacing" textLength="30" x="72.5" y="97.4189">main()</text><!--MD5=[98ea555aa51d22ee501578b80d42fcf0]
class OrdersServerThread--><rect codeLine="6" fill="#FEFECE" filter="url(#f1v1lbfkfbv99r)" height="158.6875" id="OrdersServerThread" style="stroke:#A80036;stroke-width:1.5;" width="144" x="33" y="164"/><ellipse cx="48" cy="180" fill="#ADD1B2" rx="11" ry="11" style="stroke:#A80036;stroke-width:1.0;"/><path d="M50,176.5 Q50.2031,176 50.4375,175.75 Q50.6719,175.5 50.9375,175.5 Q51.4063,175.5 51.7031,175.7813 Q52,176.0625 52,176.7188 L52,178.2813 Q52,178.9375 51.7188,179.2188 Q51.4375,179.5 51,179.5 Q50.6094,179.5 50.3594,179.3281 Q50.1094,179.1563 50,178.7031 Q49.9531,178.3906 49.7813,178.2188 Q49.4688,177.8906 48.9063,177.7031 Q48.3438,177.5 47.7813,177.5 Q47.0781,177.5 46.4844,177.7813 Q45.9063,178.0625 45.4531,178.6875 Q45,179.3125 45,180.1719 L45,181.0938 Q45,182.125 45.8438,182.8125 Q46.6875,183.5 48.1875,183.5 Q49.0781,183.5 49.7031,183.2969 Q50.0625,183.1875 50.4688,182.8281 Q50.7344,182.625 50.875,182.5625 Q51.0156,182.5 51.1875,182.5 Q51.5156,182.5 51.75,182.7656 Q52,183.0156 52,183.375 Q52,183.7188 51.6563,184.125 Q51.1563,184.7188 50.3594,185.0469 Q49.3125,185.5 48.0313,185.5 Q46.5313,185.5 45.3281,184.9063 Q44.3594,184.4375 43.6719,183.4219 Q43,182.4063 43,181.2031 L43,180.1094 Q43,178.8594 43.5938,177.7656 Q44.2031,176.6719 45.25,176.0938 Q46.3125,175.5 47.5,175.5 Q48.2188,175.5 48.8438,175.75 Q49.4688,176 50,176.5 Z " fill="#000000"/><text fill="#000000" font-family="sans-serif" font-size="12" lengthAdjust="spacing" textLength="112" x="62" y="184.9102">OrdersServerThread</text><line style="stroke:#A80036;stroke-width:1.5;" x1="34" x2="176" y1="196" y2="196"/><line style="stroke:#A80036;stroke-width:1.5;" x1="34" x2="176" y1="204" y2="204"/><ellipse cx="44" cy="215" fill="#84BE84" rx="3" ry="3" style="stroke:#038048;stroke-width:1.0;"/><text fill="#000000" font-family="sans-serif" font-size="11" lengthAdjust="spacing" textLength="24" x="53" y="219.4189">run()</text><ellipse cx="44" cy="228.8359" fill="#84BE84" rx="3" ry="3" style="stroke:#038048;stroke-width:1.0;"/><text fill="#000000" font-family="sans-serif" font-size="11" lengthAdjust="spacing" textLength="76" x="53" y="233.2549">replyMessage()</text><ellipse cx="44" cy="242.6719" fill="#84BE84" rx="3" ry="3" style="stroke:#038048;stroke-width:1.0;"/><text fill="#000000" font-family="sans-serif" font-size="11" lengthAdjust="spacing" textLength="66" x="53" y="247.0908">handleClient()</text><ellipse cx="44" cy="256.5078" fill="#84BE84" rx="3" ry="3" style="stroke:#038048;stroke-width:1.0;"/><text fill="#000000" font-family="sans-serif" font-size="11" lengthAdjust="spacing" textLength="94" x="53" y="260.9268">handleCartUpdate()</text><ellipse cx="44" cy="270.3438" fill="#84BE84" rx="3" ry="3" style="stroke:#038048;stroke-width:1.0;"/><text fill="#000000" font-family="sans-serif" font-size="11" lengthAdjust="spacing" textLength="99" x="53" y="274.7627">handleCartRemove()</text><ellipse cx="44" cy="284.1797" fill="#84BE84" rx="3" ry="3" style="stroke:#038048;stroke-width:1.0;"/><text fill="#000000" font-family="sans-serif" font-size="11" lengthAdjust="spacing" textLength="113" x="53" y="288.5986">handleProductCatalog()</text><ellipse cx="44" cy="298.0156" fill="#84BE84" rx="3" ry="3" style="stroke:#038048;stroke-width:1.0;"/><text fill="#000000" font-family="sans-serif" font-size="11" lengthAdjust="spacing" textLength="92" x="53" y="302.4346">handleCategories()</text><ellipse cx="44" cy="311.8516" fill="#84BE84" rx="3" ry="3" style="stroke:#038048;stroke-width:1.0;"/><text fill="#000000" font-family="sans-serif" font-size="11" lengthAdjust="spacing" textLength="105" x="53" y="316.2705">handleShoppingCart()</text><!--MD5=[a1b0ede640bd7a922d076a52445d580c]
class ProtocolV1Request--><rect codeLine="18" fill="#FEFECE" filter="url(#f1v1lbfkfbv99r)" height="61.8359" id="ProtocolV1Request" style="stroke:#A80036;stroke-width:1.5;" width="138" x="36" y="399"/><ellipse cx="51" cy="415" fill="#ADD1B2" rx="11" ry="11" style="stroke:#A80036;stroke-width:1.0;"/><path d="M53,411.5 Q53.2031,411 53.4375,410.75 Q53.6719,410.5 53.9375,410.5 Q54.4063,410.5 54.7031,410.7813 Q55,411.0625 55,411.7188 L55,413.2813 Q55,413.9375 54.7188,414.2188 Q54.4375,414.5 54,414.5 Q53.6094,414.5 53.3594,414.3281 Q53.1094,414.1563 53,413.7031 Q52.9531,413.3906 52.7813,413.2188 Q52.4688,412.8906 51.9063,412.7031 Q51.3438,412.5 50.7813,412.5 Q50.0781,412.5 49.4844,412.7813 Q48.9063,413.0625 48.4531,413.6875 Q48,414.3125 48,415.1719 L48,416.0938 Q48,417.125 48.8438,417.8125 Q49.6875,418.5 51.1875,418.5 Q52.0781,418.5 52.7031,418.2969 Q53.0625,418.1875 53.4688,417.8281 Q53.7344,417.625 53.875,417.5625 Q54.0156,417.5 54.1875,417.5 Q54.5156,417.5 54.75,417.7656 Q55,418.0156 55,418.375 Q55,418.7188 54.6563,419.125 Q54.1563,419.7188 53.3594,420.0469 Q52.3125,420.5 51.0313,420.5 Q49.5313,420.5 48.3281,419.9063 Q47.3594,419.4375 46.6719,418.4219 Q46,417.4063 46,416.2031 L46,415.1094 Q46,413.8594 46.5938,412.7656 Q47.2031,411.6719 48.25,411.0938 Q49.3125,410.5 50.5,410.5 Q51.2188,410.5 51.8438,410.75 Q52.4688,411 53,411.5 Z " fill="#000000"/><text fill="#000000" font-family="sans-serif" font-size="12" lengthAdjust="spacing" textLength="106" x="65" y="419.9102">ProtocolV1Request</text><line style="stroke:#A80036;stroke-width:1.5;" x1="37" x2="173" y1="431" y2="431"/><line style="stroke:#A80036;stroke-width:1.5;" x1="37" x2="173" y1="439" y2="439"/><ellipse cx="47" cy="450" fill="#84BE84" rx="3" ry="3" style="stroke:#038048;stroke-width:1.0;"/><text fill="#000000" font-family="sans-serif" font-size="11" lengthAdjust="spacing" textLength="47" x="56" y="454.4189">execute()</text><!--MD5=[a6f52de39aa2db243864854ce014cc45]
link OrdersServer to OrdersServerThread--><path codeLine="27" d="M105,104.12 C105,119.44 105,138.89 105,158.34 " fill="none" id="OrdersServer-to-OrdersServerThread" style="stroke:#A80036;stroke-width:1.0;"/><polygon fill="#A80036" points="105,163.82,109,154.82,105,158.82,101,154.82,105,163.82" style="stroke:#A80036;stroke-width:1.0;"/><!--MD5=[8556f57cb1d7ea30ea90575b5f123919]
link OrdersServerThread to ProtocolV1Request--><path codeLine="28" d="M105,323.01 C105,347.5 105,373.31 105,393.33 " fill="none" id="OrdersServerThread-to-ProtocolV1Request" style="stroke:#A80036;stroke-width:1.0;stroke-dasharray:7.0,7.0;"/><polygon fill="#A80036" points="105,398.55,109,389.55,105,393.55,101,389.55,105,398.55" style="stroke:#A80036;stroke-width:1.0;"/><!--MD5=[71467119ffc271af24eaf1a9d8686e68]
@startuml

package base.app.ordersserver{
    class OrdersServer{
    +main()
    }
    class OrdersServerThread{
    +run()
    +replyMessage()
    +handleClient()
    +handleCartUpdate()
    +handleCartRemove()
    +handleProductCatalog()
    +handleCategories()
    +handleShoppingCart()
    }
}
package base.core.infrasctructure.spomsp.commonrequest{
    class ProtocolV1Request{
    +execute()
}






OrdersServer - -> OrdersServerThread
OrdersServerThread ..> ProtocolV1Request




@enduml

PlantUML version 1.2021.11(Sat Oct 02 14:26:11 BST 2021)
(GPL source distribution)
Java Runtime: OpenJDK Runtime Environment
JVM: OpenJDK 64-Bit Server VM
Default Encoding: Cp1252
Language: pt
Country: PT
--></g></svg>