<?xml version="1.0" encoding="UTF-8" standalone="no"?><svg xmlns="http://www.w3.org/2000/svg" xmlns:xlink="http://www.w3.org/1999/xlink" contentStyleType="text/css" height="401px" preserveAspectRatio="none" style="width:851px;height:401px;background:#FFFFFF;" version="1.1" viewBox="0 0 851 401" width="851px" zoomAndPan="magnify"><defs/><g><rect fill="#FFFFFF" height="151.7578" style="stroke:#181818;stroke-width:1.0;" width="10" x="345" y="134.9219"/><rect fill="#FFFFFF" height="30.3516" style="stroke:#181818;stroke-width:1.0;" width="10" x="760" y="165.2734"/><rect fill="#FFFFFF" height="30.3516" style="stroke:#181818;stroke-width:1.0;" width="10" x="760" y="225.9766"/><line style="stroke:#181818;stroke-width:0.5;stroke-dasharray:5.0,5.0;" x1="64" x2="64" y1="86.2188" y2="304.6797"/><line style="stroke:#181818;stroke-width:0.5;stroke-dasharray:5.0,5.0;" x1="350" x2="350" y1="86.2188" y2="304.6797"/><line style="stroke:#181818;stroke-width:0.5;stroke-dasharray:5.0,5.0;" x1="764.5" x2="764.5" y1="86.2188" y2="304.6797"/><rect fill="#E2E2F0" height="49.2188" rx="2.5" ry="2.5" style="stroke:#181818;stroke-width:0.5;" width="118" x="5" y="36"/><text fill="#000000" font-family="sans-serif" font-size="14" font-style="italic" lengthAdjust="spacing" textLength="95" x="16.5" y="57.5332">«presentation»</text><text fill="#000000" font-family="sans-serif" font-size="14" lengthAdjust="spacing" textLength="104" x="12" y="75.1426">StatisticReportUI</text><rect fill="#E2E2F0" height="49.2188" rx="2.5" ry="2.5" style="stroke:#181818;stroke-width:0.5;" width="118" x="5" y="303.6797"/><text fill="#000000" font-family="sans-serif" font-size="14" font-style="italic" lengthAdjust="spacing" textLength="95" x="16.5" y="325.2129">«presentation»</text><text fill="#000000" font-family="sans-serif" font-size="14" lengthAdjust="spacing" textLength="104" x="12" y="342.8223">StatisticReportUI</text><rect fill="#E2E2F0" height="49.2188" rx="2.5" ry="2.5" style="stroke:#181818;stroke-width:0.5;" width="168" x="266" y="36"/><text fill="#000000" font-family="sans-serif" font-size="14" font-style="italic" lengthAdjust="spacing" textLength="84" x="308" y="57.5332">«application»</text><text fill="#000000" font-family="sans-serif" font-size="14" lengthAdjust="spacing" textLength="154" x="273" y="75.1426">StatisticReportController</text><rect fill="#E2E2F0" height="49.2188" rx="2.5" ry="2.5" style="stroke:#181818;stroke-width:0.5;" width="168" x="266" y="303.6797"/><text fill="#000000" font-family="sans-serif" font-size="14" font-style="italic" lengthAdjust="spacing" textLength="84" x="308" y="325.2129">«application»</text><text fill="#000000" font-family="sans-serif" font-size="14" lengthAdjust="spacing" textLength="154" x="273" y="342.8223">StatisticReportController</text><text fill="#000000" font-family="sans-serif" font-size="14" font-style="italic" lengthAdjust="spacing" textLength="79" x="722.5" y="65.5332">«repository»</text><text fill="#000000" font-family="sans-serif" font-size="14" lengthAdjust="spacing" textLength="165" x="679.5" y="83.1426">SurveyAnswersRepository</text><path d="M747,15 C747,5 765,5 765,5 C765,5 783,5 783,15 L783,41 C783,51 765,51 765,51 C765,51 747,51 747,41 L747,15 " fill="#E2E2F0" style="stroke:#181818;stroke-width:1.5;"/><path d="M747,15 C747,25 765,25 765,25 C765,25 783,25 783,15 " fill="none" style="stroke:#181818;stroke-width:1.5;"/><text fill="#000000" font-family="sans-serif" font-size="14" font-style="italic" lengthAdjust="spacing" textLength="79" x="722.5" y="318.2129">«repository»</text><text fill="#000000" font-family="sans-serif" font-size="14" lengthAdjust="spacing" textLength="165" x="679.5" y="335.8223">SurveyAnswersRepository</text><path d="M747,348.8984 C747,338.8984 765,338.8984 765,338.8984 C765,338.8984 783,338.8984 783,348.8984 L783,374.8984 C783,384.8984 765,384.8984 765,384.8984 C765,384.8984 747,384.8984 747,374.8984 L747,348.8984 " fill="#E2E2F0" style="stroke:#181818;stroke-width:1.5;"/><path d="M747,348.8984 C747,358.8984 765,358.8984 765,358.8984 C765,358.8984 783,358.8984 783,348.8984 " fill="none" style="stroke:#181818;stroke-width:1.5;"/><rect fill="#FFFFFF" height="151.7578" style="stroke:#181818;stroke-width:1.0;" width="10" x="345" y="134.9219"/><rect fill="#FFFFFF" height="30.3516" style="stroke:#181818;stroke-width:1.0;" width="10" x="760" y="165.2734"/><rect fill="#FFFFFF" height="30.3516" style="stroke:#181818;stroke-width:1.0;" width="10" x="760" y="225.9766"/><polygon fill="#181818" points="333,130.9219,343,134.9219,333,138.9219,337,134.9219" style="stroke:#181818;stroke-width:1.0;"/><line style="stroke:#181818;stroke-width:1.0;" x1="64" x2="339" y1="134.9219" y2="134.9219"/><text fill="#000000" font-family="sans-serif" font-size="13" font-weight="bold" lengthAdjust="spacing" textLength="7" x="71" y="121.8896">1</text><text fill="#000000" font-family="sans-serif" font-size="13" lengthAdjust="spacing" textLength="179" x="82" y="113.7139">getPercentageAnswerQuestion</text><text fill="#000000" font-family="sans-serif" font-size="13" lengthAdjust="spacing" textLength="251" x="82" y="130.0654">(idSurvey, idSection, questionDTO, answer)</text><polygon fill="#181818" points="748,161.2734,758,165.2734,748,169.2734,752,165.2734" style="stroke:#181818;stroke-width:1.0;"/><line style="stroke:#181818;stroke-width:1.0;" x1="355" x2="754" y1="165.2734" y2="165.2734"/><text fill="#000000" font-family="sans-serif" font-size="13" font-weight="bold" lengthAdjust="spacing" textLength="7" x="362" y="160.417">2</text><text fill="#000000" font-family="sans-serif" font-size="13" lengthAdjust="spacing" textLength="375" x="373" y="160.417">numberAnswerQuestion(surveyID, sectionID, questionID, answer)</text><polygon fill="#181818" points="366,191.625,356,195.625,366,199.625,362,195.625" style="stroke:#181818;stroke-width:1.0;"/><line style="stroke:#181818;stroke-width:1.0;" x1="360" x2="764" y1="195.625" y2="195.625"/><text fill="#000000" font-family="sans-serif" font-size="13" font-weight="bold" lengthAdjust="spacing" textLength="7" x="372" y="190.7686">3</text><text fill="#000000" font-family="sans-serif" font-size="13" lengthAdjust="spacing" textLength="43" x="383" y="190.7686">number</text><polygon fill="#181818" points="748,221.9766,758,225.9766,748,229.9766,752,225.9766" style="stroke:#181818;stroke-width:1.0;"/><line style="stroke:#181818;stroke-width:1.0;" x1="355" x2="754" y1="225.9766" y2="225.9766"/><text fill="#000000" font-family="sans-serif" font-size="13" font-weight="bold" lengthAdjust="spacing" textLength="7" x="362" y="221.1201">4</text><text fill="#000000" font-family="sans-serif" font-size="13" lengthAdjust="spacing" textLength="315" x="373" y="221.1201">totalAnswersQuestion(surveyID, sectionID, questionID)</text><polygon fill="#181818" points="366,252.3281,356,256.3281,366,260.3281,362,256.3281" style="stroke:#181818;stroke-width:1.0;"/><line style="stroke:#181818;stroke-width:1.0;stroke-dasharray:2.0,2.0;" x1="360" x2="764" y1="256.3281" y2="256.3281"/><text fill="#000000" font-family="sans-serif" font-size="13" font-weight="bold" lengthAdjust="spacing" textLength="7" x="372" y="251.4717">5</text><text fill="#000000" font-family="sans-serif" font-size="13" lengthAdjust="spacing" textLength="43" x="383" y="251.4717">number</text><polygon fill="#181818" points="75,282.6797,65,286.6797,75,290.6797,71,286.6797" style="stroke:#181818;stroke-width:1.0;"/><line style="stroke:#181818;stroke-width:1.0;stroke-dasharray:2.0,2.0;" x1="69" x2="349" y1="286.6797" y2="286.6797"/><text fill="#000000" font-family="sans-serif" font-size="13" font-weight="bold" lengthAdjust="spacing" textLength="7" x="81" y="281.8232">6</text><text fill="#000000" font-family="sans-serif" font-size="13" lengthAdjust="spacing" textLength="64" x="92" y="281.8232">percentage</text><!--MD5=[19abea0b44690d701061a4b927039eee]
@startuml

autonumber
participant StatisticReportUI as UI <<presentation>>
participant StatisticReportController as Controller <<application>>
database SurveyAnswersRepository as SurveyAnswersRepository <<repository>>

UI -> Controller : getPercentageAnswerQuestion\n(idSurvey, idSection, questionDTO, answer)
activate Controller
Controller -> SurveyAnswersRepository : numberAnswerQuestion(surveyID, sectionID, questionID, answer)
activate SurveyAnswersRepository
SurveyAnswersRepository -> Controller : number
deactivate SurveyAnswersRepository
Controller -> SurveyAnswersRepository : totalAnswersQuestion(surveyID, sectionID, questionID)
activate SurveyAnswersRepository
SurveyAnswersRepository - -> Controller : number
deactivate SurveyAnswersRepository
Controller - -> UI : percentage
deactivate Controller
deactivate UI

@enduml

PlantUML version 1.2022.5(Sat Apr 30 11:55:52 BST 2022)
(GPL source distribution)
Java Runtime: OpenJDK Runtime Environment
JVM: OpenJDK 64-Bit Server VM
Default Encoding: Cp1252
Language: pt
Country: PT
--></g></svg>