<?xml version="1.0" encoding="UTF-8" standalone="no"?><svg xmlns="http://www.w3.org/2000/svg" xmlns:xlink="http://www.w3.org/1999/xlink" contentStyleType="text/css" height="730.8px" preserveAspectRatio="none" style="width:565px;height:730px;background:#FFFFFF;" version="1.1" viewBox="0 0 565 730" width="565.6px" zoomAndPan="magnify"><defs/><g><rect fill="#FFFFFF" height="649.825" style="stroke:#181818;stroke-width:0.4000000000000001;" width="4" x="20.2" y="38.4875"/><rect fill="#FFFFFF" height="627.8031" style="stroke:#181818;stroke-width:0.4000000000000001;" width="4" x="109" y="60.5094"/><rect fill="#FFFFFF" height="36.7188" style="stroke:#181818;stroke-width:0.4000000000000001;" width="4" x="111" y="365.7656"/><rect fill="#FFFFFF" height="615.6625" style="stroke:#181818;stroke-width:0.4000000000000001;" width="4" x="285.8" y="72.65"/><rect fill="#FFFFFF" height="12.1406" style="stroke:#181818;stroke-width:0.4000000000000001;" width="4" x="338.6" y="198.5969"/><rect fill="#FFFFFF" height="12.1406" style="stroke:#181818;stroke-width:0.4000000000000001;" width="4" x="381.4" y="107.0719"/><rect fill="#FFFFFF" height="12.1406" style="stroke:#181818;stroke-width:0.4000000000000001;" width="4" x="381.4" y="174.3156"/><rect fill="#FFFFFF" height="12.1406" style="stroke:#181818;stroke-width:0.4000000000000001;" width="4" x="441" y="247.1594"/><rect fill="#FFFFFF" height="12.1406" style="stroke:#181818;stroke-width:0.4000000000000001;" width="4" x="441" y="295.7219"/><rect fill="#FFFFFF" height="12.1406" style="stroke:#181818;stroke-width:0.4000000000000001;" width="4" x="511.2" y="436.5063"/><rect fill="#FFFFFF" height="12.1406" style="stroke:#181818;stroke-width:0.4000000000000001;" width="4" x="511.2" y="575.5875"/><rect fill="#FFFFFF" height="12.1406" style="stroke:#181818;stroke-width:0.4000000000000001;" width="4" x="511.2" y="637.0906"/><rect height="594.3219" style="stroke:#000000;stroke-width:0.6000000000000001;fill:none;" width="504.2" x="59.2" y="78.65"/><rect height="344.1688" style="stroke:#000000;stroke-width:0.6000000000000001;fill:none;" width="496.2" x="63.2" y="326.0031"/><rect height="331.2281" style="stroke:#000000;stroke-width:0.6000000000000001;fill:none;" width="488.2" x="67.2" y="336.1438"/><rect height="56.2" style="stroke:#000000;stroke-width:0.6000000000000001;fill:none;" width="260.4" x="79.4" y="346.2844"/><rect height="25.9188" style="stroke:#000000;stroke-width:0.6000000000000001;fill:none;" width="131.2" x="83.4" y="373.7656"/><rect height="87.4219" style="stroke:#000000;stroke-width:0.6000000000000001;fill:none;" width="472" x="79.4" y="408.0844"/><rect height="25.9188" style="stroke:#000000;stroke-width:0.6000000000000001;fill:none;" width="86.8" x="83.4" y="466.7875"/><rect height="40.4594" style="stroke:#000000;stroke-width:0.6000000000000001;fill:none;" width="80.4" x="71.2" y="501.1063"/><rect height="55.9031" style="stroke:#000000;stroke-width:0.6000000000000001;fill:none;" width="468" x="83.4" y="547.1656"/><rect height="55.9031" style="stroke:#000000;stroke-width:0.6000000000000001;fill:none;" width="468" x="83.4" y="608.6688"/><line style="stroke:#181818;stroke-width:0.20000000000000004;fill:none;stroke-dasharray:5.0,5.0;" x1="22" x2="22" y1="34.4875" y2="691.9125"/><line style="stroke:#181818;stroke-width:0.20000000000000004;fill:none;stroke-dasharray:5.0,5.0;" x1="111" x2="111" y1="34.4875" y2="691.9125"/><line style="stroke:#181818;stroke-width:0.20000000000000004;fill:none;stroke-dasharray:5.0,5.0;" x1="287.8" x2="287.8" y1="34.4875" y2="691.9125"/><line style="stroke:#181818;stroke-width:0.20000000000000004;fill:none;stroke-dasharray:5.0,5.0;" x1="340.6" x2="340.6" y1="34.4875" y2="691.9125"/><line style="stroke:#181818;stroke-width:0.20000000000000004;fill:none;stroke-dasharray:5.0,5.0;" x1="383.4" x2="383.4" y1="34.4875" y2="691.9125"/><line style="stroke:#181818;stroke-width:0.20000000000000004;fill:none;stroke-dasharray:5.0,5.0;" x1="443" x2="443" y1="34.4875" y2="691.9125"/><line style="stroke:#181818;stroke-width:0.20000000000000004;fill:none;stroke-dasharray:5.0,5.0;" x1="513" x2="513" y1="34.4875" y2="691.9125"/><text fill="#000000" font-family="sans-serif" font-size="5.6" lengthAdjust="spacing" textLength="38" x="2" y="33.257">Sales Manager</text><ellipse cx="22.2" cy="6.8438" fill="#E2E2F0" rx="3.2" ry="3.2" style="stroke:#181818;stroke-width:0.20000000000000004;"/><path d="M22.2,10.0438 L22.2,20.8438 M17,13.2438 L27.4,13.2438 M22.2,20.8438 L17,26.8438 M22.2,20.8438 L27.4,26.8438 " fill="none" style="stroke:#181818;stroke-width:0.20000000000000004;"/><text fill="#000000" font-family="sans-serif" font-size="5.6" lengthAdjust="spacing" textLength="38" x="2" y="697.3258">Sales Manager</text><ellipse cx="22.2" cy="701.9563" fill="#E2E2F0" rx="3.2" ry="3.2" style="stroke:#181818;stroke-width:0.20000000000000004;"/><path d="M22.2,705.1563 L22.2,715.9563 M17,708.3563 L27.4,708.3563 M22.2,715.9563 L17,721.9563 M22.2,715.9563 L27.4,721.9563 " fill="none" style="stroke:#181818;stroke-width:0.20000000000000004;"/><rect fill="#E2E2F0" height="19.6875" rx="1" ry="1" style="stroke:#181818;stroke-width:0.20000000000000004;" width="47.2" x="87.4" y="14.4"/><text fill="#000000" font-family="sans-serif" font-size="5.6" font-style="italic" lengthAdjust="spacing" textLength="38" x="92" y="23.0133">«presentation»</text><text fill="#000000" font-family="sans-serif" font-size="5.6" lengthAdjust="spacing" textLength="41.6" x="90.2" y="30.057">StatisticReportUI</text><rect fill="#E2E2F0" height="19.6875" rx="1" ry="1" style="stroke:#181818;stroke-width:0.20000000000000004;" width="47.2" x="87.4" y="691.5125"/><text fill="#000000" font-family="sans-serif" font-size="5.6" font-style="italic" lengthAdjust="spacing" textLength="38" x="92" y="700.1258">«presentation»</text><text fill="#000000" font-family="sans-serif" font-size="5.6" lengthAdjust="spacing" textLength="41.6" x="90.2" y="707.1695">StatisticReportUI</text><rect fill="#E2E2F0" height="19.6875" rx="1" ry="1" style="stroke:#181818;stroke-width:0.20000000000000004;" width="67.2" x="254.2" y="14.4"/><text fill="#000000" font-family="sans-serif" font-size="5.6" font-style="italic" lengthAdjust="spacing" textLength="33.6" x="271" y="23.0133">«application»</text><text fill="#000000" font-family="sans-serif" font-size="5.6" lengthAdjust="spacing" textLength="61.6" x="257" y="30.057">StatisticReportController</text><rect fill="#E2E2F0" height="19.6875" rx="1" ry="1" style="stroke:#181818;stroke-width:0.20000000000000004;" width="67.2" x="254.2" y="691.5125"/><text fill="#000000" font-family="sans-serif" font-size="5.6" font-style="italic" lengthAdjust="spacing" textLength="33.6" x="271" y="700.1258">«application»</text><text fill="#000000" font-family="sans-serif" font-size="5.6" lengthAdjust="spacing" textLength="61.6" x="257" y="707.1695">StatisticReportController</text><rect fill="#E2E2F0" height="19.6875" rx="1" ry="1" style="stroke:#181818;stroke-width:0.20000000000000004;" width="30.4" x="325.4" y="14.4"/><text fill="#000000" font-family="sans-serif" font-size="5.6" font-style="italic" lengthAdjust="spacing" textLength="24.8" x="328.2" y="23.0133">«domain»</text><text fill="#000000" font-family="sans-serif" font-size="5.6" lengthAdjust="spacing" textLength="17.6" x="331.8" y="30.057">Survey</text><rect fill="#E2E2F0" height="19.6875" rx="1" ry="1" style="stroke:#181818;stroke-width:0.20000000000000004;" width="30.4" x="325.4" y="691.5125"/><text fill="#000000" font-family="sans-serif" font-size="5.6" font-style="italic" lengthAdjust="spacing" textLength="24.8" x="328.2" y="700.1258">«domain»</text><text fill="#000000" font-family="sans-serif" font-size="5.6" lengthAdjust="spacing" textLength="17.6" x="331.8" y="707.1695">Survey</text><text fill="#000000" font-family="sans-serif" font-size="5.6" font-style="italic" lengthAdjust="spacing" textLength="31.6" x="366.4" y="26.2133">«repository»</text><text fill="#000000" font-family="sans-serif" font-size="5.6" lengthAdjust="spacing" textLength="44.8" x="359.8" y="33.257">SurveyRepository</text><path d="M376.2,6 C376.2,2 383.4,2 383.4,2 C383.4,2 390.6,2 390.6,6 L390.6,16.4 C390.6,20.4 383.4,20.4 383.4,20.4 C383.4,20.4 376.2,20.4 376.2,16.4 L376.2,6 " fill="#E2E2F0" style="stroke:#181818;stroke-width:0.6000000000000001;"/><path d="M376.2,6 C376.2,10 383.4,10 383.4,10 C383.4,10 390.6,10 390.6,6 " fill="none" style="stroke:#181818;stroke-width:0.6000000000000001;"/><text fill="#000000" font-family="sans-serif" font-size="5.6" font-style="italic" lengthAdjust="spacing" textLength="31.6" x="366.4" y="697.3258">«repository»</text><text fill="#000000" font-family="sans-serif" font-size="5.6" lengthAdjust="spacing" textLength="44.8" x="359.8" y="704.3695">SurveyRepository</text><path d="M376.2,709.6 C376.2,705.6 383.4,705.6 383.4,705.6 C383.4,705.6 390.6,705.6 390.6,709.6 L390.6,720 C390.6,724 383.4,724 383.4,724 C383.4,724 376.2,724 376.2,720 L376.2,709.6 " fill="#E2E2F0" style="stroke:#181818;stroke-width:0.6000000000000001;"/><path d="M376.2,709.6 C376.2,713.6 383.4,713.6 383.4,713.6 C383.4,713.6 390.6,713.6 390.6,709.6 " fill="none" style="stroke:#181818;stroke-width:0.6000000000000001;"/><text fill="#000000" font-family="sans-serif" font-size="5.6" font-style="italic" lengthAdjust="spacing" textLength="31.6" x="426" y="26.2133">«repository»</text><text fill="#000000" font-family="sans-serif" font-size="5.6" lengthAdjust="spacing" textLength="61.6" x="411" y="33.257">SurveyTargetRepository</text><path d="M435.8,6 C435.8,2 443,2 443,2 C443,2 450.2,2 450.2,6 L450.2,16.4 C450.2,20.4 443,20.4 443,20.4 C443,20.4 435.8,20.4 435.8,16.4 L435.8,6 " fill="#E2E2F0" style="stroke:#181818;stroke-width:0.6000000000000001;"/><path d="M435.8,6 C435.8,10 443,10 443,10 C443,10 450.2,10 450.2,6 " fill="none" style="stroke:#181818;stroke-width:0.6000000000000001;"/><text fill="#000000" font-family="sans-serif" font-size="5.6" font-style="italic" lengthAdjust="spacing" textLength="31.6" x="426" y="697.3258">«repository»</text><text fill="#000000" font-family="sans-serif" font-size="5.6" lengthAdjust="spacing" textLength="61.6" x="411" y="704.3695">SurveyTargetRepository</text><path d="M435.8,709.6 C435.8,705.6 443,705.6 443,705.6 C443,705.6 450.2,705.6 450.2,709.6 L450.2,720 C450.2,724 443,724 443,724 C443,724 435.8,724 435.8,720 L435.8,709.6 " fill="#E2E2F0" style="stroke:#181818;stroke-width:0.6000000000000001;"/><path d="M435.8,709.6 C435.8,713.6 443,713.6 443,713.6 C443,713.6 450.2,713.6 450.2,709.6 " fill="none" style="stroke:#181818;stroke-width:0.6000000000000001;"/><text fill="#000000" font-family="sans-serif" font-size="5.6" font-style="italic" lengthAdjust="spacing" textLength="31.6" x="496.2" y="26.2133">«repository»</text><text fill="#000000" font-family="sans-serif" font-size="5.6" lengthAdjust="spacing" textLength="66" x="479" y="33.257">SurveyAnswersRepository</text><path d="M506,6 C506,2 513.2,2 513.2,2 C513.2,2 520.4,2 520.4,6 L520.4,16.4 C520.4,20.4 513.2,20.4 513.2,20.4 C513.2,20.4 506,20.4 506,16.4 L506,6 " fill="#E2E2F0" style="stroke:#181818;stroke-width:0.6000000000000001;"/><path d="M506,6 C506,10 513.2,10 513.2,10 C513.2,10 520.4,10 520.4,6 " fill="none" style="stroke:#181818;stroke-width:0.6000000000000001;"/><text fill="#000000" font-family="sans-serif" font-size="5.6" font-style="italic" lengthAdjust="spacing" textLength="31.6" x="496.2" y="697.3258">«repository»</text><text fill="#000000" font-family="sans-serif" font-size="5.6" lengthAdjust="spacing" textLength="66" x="479" y="704.3695">SurveyAnswersRepository</text><path d="M506,709.6 C506,705.6 513.2,705.6 513.2,705.6 C513.2,705.6 520.4,705.6 520.4,709.6 L520.4,720 C520.4,724 513.2,724 513.2,724 C513.2,724 506,724 506,720 L506,709.6 " fill="#E2E2F0" style="stroke:#181818;stroke-width:0.6000000000000001;"/><path d="M506,709.6 C506,713.6 513.2,713.6 513.2,713.6 C513.2,713.6 520.4,713.6 520.4,709.6 " fill="none" style="stroke:#181818;stroke-width:0.6000000000000001;"/><rect fill="#FFFFFF" height="649.825" style="stroke:#181818;stroke-width:0.4000000000000001;" width="4" x="20.2" y="38.4875"/><rect fill="#FFFFFF" height="627.8031" style="stroke:#181818;stroke-width:0.4000000000000001;" width="4" x="109" y="60.5094"/><rect fill="#FFFFFF" height="36.7188" style="stroke:#181818;stroke-width:0.4000000000000001;" width="4" x="111" y="365.7656"/><rect fill="#FFFFFF" height="615.6625" style="stroke:#181818;stroke-width:0.4000000000000001;" width="4" x="285.8" y="72.65"/><rect fill="#FFFFFF" height="12.1406" style="stroke:#181818;stroke-width:0.4000000000000001;" width="4" x="338.6" y="198.5969"/><rect fill="#FFFFFF" height="12.1406" style="stroke:#181818;stroke-width:0.4000000000000001;" width="4" x="381.4" y="107.0719"/><rect fill="#FFFFFF" height="12.1406" style="stroke:#181818;stroke-width:0.4000000000000001;" width="4" x="381.4" y="174.3156"/><rect fill="#FFFFFF" height="12.1406" style="stroke:#181818;stroke-width:0.4000000000000001;" width="4" x="441" y="247.1594"/><rect fill="#FFFFFF" height="12.1406" style="stroke:#181818;stroke-width:0.4000000000000001;" width="4" x="441" y="295.7219"/><rect fill="#FFFFFF" height="12.1406" style="stroke:#181818;stroke-width:0.4000000000000001;" width="4" x="511.2" y="436.5063"/><rect fill="#FFFFFF" height="12.1406" style="stroke:#181818;stroke-width:0.4000000000000001;" width="4" x="511.2" y="575.5875"/><rect fill="#FFFFFF" height="12.1406" style="stroke:#181818;stroke-width:0.4000000000000001;" width="4" x="511.2" y="637.0906"/><polygon fill="#181818" points="104.2,58.9094,108.2,60.5094,104.2,62.1094,105.8,60.5094" style="stroke:#181818;stroke-width:0.4000000000000001;"/><line style="stroke:#181818;stroke-width:0.4000000000000001;" x1="24.2" x2="106.6" y1="60.5094" y2="60.5094"/><text fill="#000000" font-family="sans-serif" font-size="5.2" font-weight="bold" lengthAdjust="spacing" textLength="2.8" x="27" y="52.0262">1</text><text fill="#000000" font-family="sans-serif" font-size="5.2" lengthAdjust="spacing" textLength="62" x="31.4" y="45.4855">Starts the process to get a</text><text fill="#000000" font-family="sans-serif" font-size="5.2" lengthAdjust="spacing" textLength="64.4" x="31.4" y="52.0262">statistical report regarding a</text><text fill="#000000" font-family="sans-serif" font-size="5.2" lengthAdjust="spacing" textLength="72.8" x="31.4" y="58.5668">previously set up questionnaire.</text><polygon fill="#181818" points="281,71.05,285,72.65,281,74.25,282.6,72.65" style="stroke:#181818;stroke-width:0.4000000000000001;"/><line style="stroke:#181818;stroke-width:0.4000000000000001;" x1="113" x2="283.4" y1="72.65" y2="72.65"/><text fill="#000000" font-family="sans-serif" font-size="5.2" font-weight="bold" lengthAdjust="spacing" textLength="2.8" x="115.8" y="70.7074">2</text><text fill="#000000" font-family="sans-serif" font-size="5.2" lengthAdjust="spacing" textLength="14.4" x="120.2" y="70.7074">create</text><path d="M59.2,78.65 L88.4,78.65 L88.4,81.9906 L84.4,85.9906 L59.2,85.9906 L59.2,78.65 " fill="#EEEEEE" style="stroke:#000000;stroke-width:0.6000000000000001;"/><rect fill="none" height="594.3219" style="stroke:#000000;stroke-width:0.6000000000000001;" width="504.2" x="59.2" y="78.65"/><text fill="#000000" font-family="sans-serif" font-size="5.2" font-weight="bold" lengthAdjust="spacing" textLength="11.2" x="65.2" y="84.448">loop</text><text fill="#000000" font-family="sans-serif" font-size="4.4" font-weight="bold" lengthAdjust="spacing" textLength="149.2" x="94.4" y="84.0176">[this can be done for as many surveys as the Sales Manager wants]</text><polygon fill="#181818" points="281,93.3313,285,94.9313,281,96.5313,282.6,94.9313" style="stroke:#181818;stroke-width:0.4000000000000001;"/><line style="stroke:#181818;stroke-width:0.4000000000000001;" x1="113" x2="283.4" y1="94.9313" y2="94.9313"/><text fill="#000000" font-family="sans-serif" font-size="5.2" font-weight="bold" lengthAdjust="spacing" textLength="2.8" x="115.8" y="92.9887">3</text><text fill="#000000" font-family="sans-serif" font-size="5.2" lengthAdjust="spacing" textLength="26.8" x="120.2" y="92.9887">allSurveys()</text><polygon fill="#181818" points="376.6,105.4719,380.6,107.0719,376.6,108.6719,378.2,107.0719" style="stroke:#181818;stroke-width:0.4000000000000001;"/><line style="stroke:#181818;stroke-width:0.4000000000000001;" x1="289.8" x2="379" y1="107.0719" y2="107.0719"/><text fill="#000000" font-family="sans-serif" font-size="5.2" font-weight="bold" lengthAdjust="spacing" textLength="2.8" x="292.6" y="105.1293">4</text><text fill="#000000" font-family="sans-serif" font-size="5.2" lengthAdjust="spacing" textLength="26.8" x="297" y="105.1293">allSurveys()</text><polygon fill="#181818" points="294.2,117.6125,290.2,119.2125,294.2,120.8125,292.6,119.2125" style="stroke:#181818;stroke-width:0.4000000000000001;"/><line style="stroke:#181818;stroke-width:0.4000000000000001;stroke-dasharray:2.0,2.0;" x1="291.8" x2="383" y1="119.2125" y2="119.2125"/><text fill="#000000" font-family="sans-serif" font-size="5.2" font-weight="bold" lengthAdjust="spacing" textLength="2.8" x="296.6" y="117.2699">5</text><text fill="#000000" font-family="sans-serif" font-size="5.2" lengthAdjust="spacing" textLength="23.6" x="301" y="117.2699">allSurveys</text><polygon fill="#181818" points="117.4,129.7531,113.4,131.3531,117.4,132.9531,115.8,131.3531" style="stroke:#181818;stroke-width:0.4000000000000001;"/><line style="stroke:#181818;stroke-width:0.4000000000000001;stroke-dasharray:2.0,2.0;" x1="115" x2="285.4" y1="131.3531" y2="131.3531"/><text fill="#000000" font-family="sans-serif" font-size="5.2" font-weight="bold" lengthAdjust="spacing" textLength="2.8" x="119.8" y="129.4105">6</text><text fill="#000000" font-family="sans-serif" font-size="5.2" lengthAdjust="spacing" textLength="33.6" x="124.2" y="129.4105">surveyDTOList</text><polygon fill="#181818" points="117.4,148.4344,113.4,150.0344,117.4,151.6344,115.8,150.0344" style="stroke:#181818;stroke-width:0.4000000000000001;"/><line style="stroke:#181818;stroke-width:0.4000000000000001;" x1="115" x2="285.4" y1="150.0344" y2="150.0344"/><text fill="#000000" font-family="sans-serif" font-size="5.2" font-weight="bold" lengthAdjust="spacing" textLength="2.8" x="119.8" y="144.8215">7</text><text fill="#000000" font-family="sans-serif" font-size="5.2" lengthAdjust="spacing" textLength="40" x="124.2" y="141.5512">Asks for ID of the</text><text fill="#000000" font-family="sans-serif" font-size="5.2" lengthAdjust="spacing" textLength="42" x="124.2" y="148.0918">survey and inputs.</text><polygon fill="#181818" points="281,160.575,285,162.175,281,163.775,282.6,162.175" style="stroke:#181818;stroke-width:0.4000000000000001;"/><line style="stroke:#181818;stroke-width:0.4000000000000001;" x1="113" x2="283.4" y1="162.175" y2="162.175"/><text fill="#000000" font-family="sans-serif" font-size="5.2" font-weight="bold" lengthAdjust="spacing" textLength="2.8" x="115.8" y="160.2324">8</text><text fill="#000000" font-family="sans-serif" font-size="5.2" lengthAdjust="spacing" textLength="40.4" x="120.2" y="160.2324">getSurveyDTO(id)</text><polygon fill="#181818" points="376.6,172.7156,380.6,174.3156,376.6,175.9156,378.2,174.3156" style="stroke:#181818;stroke-width:0.4000000000000001;"/><line style="stroke:#181818;stroke-width:0.4000000000000001;" x1="289.8" x2="379" y1="174.3156" y2="174.3156"/><text fill="#000000" font-family="sans-serif" font-size="5.2" font-weight="bold" lengthAdjust="spacing" textLength="2.8" x="292.6" y="172.373">9</text><text fill="#000000" font-family="sans-serif" font-size="5.2" lengthAdjust="spacing" textLength="41.2" x="297" y="172.373">findBySurveyId(id)</text><polygon fill="#181818" points="294.2,184.8563,290.2,186.4563,294.2,188.0563,292.6,186.4563" style="stroke:#181818;stroke-width:0.4000000000000001;"/><line style="stroke:#181818;stroke-width:0.4000000000000001;stroke-dasharray:2.0,2.0;" x1="291.8" x2="383" y1="186.4563" y2="186.4563"/><text fill="#000000" font-family="sans-serif" font-size="5.2" font-weight="bold" lengthAdjust="spacing" textLength="5.6" x="296.6" y="184.5137">10</text><text fill="#000000" font-family="sans-serif" font-size="5.2" lengthAdjust="spacing" textLength="14.8" x="303.8" y="184.5137">survey</text><polygon fill="#181818" points="333.8,196.9969,337.8,198.5969,333.8,200.1969,335.4,198.5969" style="stroke:#181818;stroke-width:0.4000000000000001;"/><line style="stroke:#181818;stroke-width:0.4000000000000001;" x1="289.8" x2="336.2" y1="198.5969" y2="198.5969"/><text fill="#000000" font-family="sans-serif" font-size="5.2" font-weight="bold" lengthAdjust="spacing" textLength="5.6" x="292.6" y="196.6543">11</text><text fill="#000000" font-family="sans-serif" font-size="5.2" lengthAdjust="spacing" textLength="18" x="299.8" y="196.6543">toDTO()</text><polygon fill="#181818" points="294.2,209.1375,290.2,210.7375,294.2,212.3375,292.6,210.7375" style="stroke:#181818;stroke-width:0.4000000000000001;"/><line style="stroke:#181818;stroke-width:0.4000000000000001;stroke-dasharray:2.0,2.0;" x1="291.8" x2="340.2" y1="210.7375" y2="210.7375"/><text fill="#000000" font-family="sans-serif" font-size="5.2" font-weight="bold" lengthAdjust="spacing" textLength="5.6" x="296.6" y="208.7949">12</text><text fill="#000000" font-family="sans-serif" font-size="5.2" lengthAdjust="spacing" textLength="25.2" x="303.8" y="208.7949">surveyDTO</text><polygon fill="#181818" points="117.4,221.2781,113.4,222.8781,117.4,224.4781,115.8,222.8781" style="stroke:#181818;stroke-width:0.4000000000000001;"/><line style="stroke:#181818;stroke-width:0.4000000000000001;stroke-dasharray:2.0,2.0;" x1="115" x2="285.4" y1="222.8781" y2="222.8781"/><text fill="#000000" font-family="sans-serif" font-size="5.2" font-weight="bold" lengthAdjust="spacing" textLength="5.6" x="119.8" y="220.9355">13</text><text fill="#000000" font-family="sans-serif" font-size="5.2" lengthAdjust="spacing" textLength="25.2" x="127" y="220.9355">surveyDTO</text><polygon fill="#181818" points="281,233.4188,285,235.0188,281,236.6188,282.6,235.0188" style="stroke:#181818;stroke-width:0.4000000000000001;"/><line style="stroke:#181818;stroke-width:0.4000000000000001;" x1="113" x2="283.4" y1="235.0188" y2="235.0188"/><text fill="#000000" font-family="sans-serif" font-size="5.2" font-weight="bold" lengthAdjust="spacing" textLength="5.6" x="115.8" y="233.0762">14</text><text fill="#000000" font-family="sans-serif" font-size="5.2" lengthAdjust="spacing" textLength="97.2" x="123" y="233.0762">numberCustomersRequestedToAnswer(id)</text><polygon fill="#181818" points="436.2,245.5594,440.2,247.1594,436.2,248.7594,437.8,247.1594" style="stroke:#181818;stroke-width:0.4000000000000001;"/><line style="stroke:#181818;stroke-width:0.4000000000000001;" x1="289.8" x2="438.6" y1="247.1594" y2="247.1594"/><text fill="#000000" font-family="sans-serif" font-size="5.2" font-weight="bold" lengthAdjust="spacing" textLength="5.6" x="292.6" y="245.2168">15</text><text fill="#000000" font-family="sans-serif" font-size="5.2" lengthAdjust="spacing" textLength="97.2" x="299.8" y="245.2168">numberCustomersRequestedToAnswer(id)</text><polygon fill="#181818" points="294.2,257.7,290.2,259.3,294.2,260.9,292.6,259.3" style="stroke:#181818;stroke-width:0.4000000000000001;"/><line style="stroke:#181818;stroke-width:0.4000000000000001;stroke-dasharray:2.0,2.0;" x1="291.8" x2="442.6" y1="259.3" y2="259.3"/><text fill="#000000" font-family="sans-serif" font-size="5.2" font-weight="bold" lengthAdjust="spacing" textLength="5.6" x="296.6" y="257.3574">16</text><text fill="#000000" font-family="sans-serif" font-size="5.2" lengthAdjust="spacing" textLength="17.2" x="303.8" y="257.3574">number</text><polygon fill="#181818" points="117.4,269.8406,113.4,271.4406,117.4,273.0406,115.8,271.4406" style="stroke:#181818;stroke-width:0.4000000000000001;"/><line style="stroke:#181818;stroke-width:0.4000000000000001;stroke-dasharray:2.0,2.0;" x1="115" x2="285.4" y1="271.4406" y2="271.4406"/><text fill="#000000" font-family="sans-serif" font-size="5.2" font-weight="bold" lengthAdjust="spacing" textLength="5.6" x="119.8" y="269.498">17</text><text fill="#000000" font-family="sans-serif" font-size="5.2" lengthAdjust="spacing" textLength="17.2" x="127" y="269.498">number</text><polygon fill="#181818" points="281,281.9813,285,283.5813,281,285.1813,282.6,283.5813" style="stroke:#181818;stroke-width:0.4000000000000001;"/><line style="stroke:#181818;stroke-width:0.4000000000000001;" x1="113" x2="283.4" y1="283.5813" y2="283.5813"/><text fill="#000000" font-family="sans-serif" font-size="5.2" font-weight="bold" lengthAdjust="spacing" textLength="5.6" x="115.8" y="281.6387">18</text><text fill="#000000" font-family="sans-serif" font-size="5.2" lengthAdjust="spacing" textLength="97.2" x="123" y="281.6387">numberCustomersRequestedToAnswer(id)</text><polygon fill="#181818" points="436.2,294.1219,440.2,295.7219,436.2,297.3219,437.8,295.7219" style="stroke:#181818;stroke-width:0.4000000000000001;"/><line style="stroke:#181818;stroke-width:0.4000000000000001;" x1="289.8" x2="438.6" y1="295.7219" y2="295.7219"/><text fill="#000000" font-family="sans-serif" font-size="5.2" font-weight="bold" lengthAdjust="spacing" textLength="5.6" x="292.6" y="293.7793">19</text><text fill="#000000" font-family="sans-serif" font-size="5.2" lengthAdjust="spacing" textLength="72.4" x="299.8" y="293.7793">numberCustomersAnswered(id)</text><polygon fill="#181818" points="294.2,306.2625,290.2,307.8625,294.2,309.4625,292.6,307.8625" style="stroke:#181818;stroke-width:0.4000000000000001;"/><line style="stroke:#181818;stroke-width:0.4000000000000001;stroke-dasharray:2.0,2.0;" x1="291.8" x2="442.6" y1="307.8625" y2="307.8625"/><text fill="#000000" font-family="sans-serif" font-size="5.2" font-weight="bold" lengthAdjust="spacing" textLength="5.6" x="296.6" y="305.9199">20</text><text fill="#000000" font-family="sans-serif" font-size="5.2" lengthAdjust="spacing" textLength="17.2" x="303.8" y="305.9199">number</text><polygon fill="#181818" points="117.4,318.4031,113.4,320.0031,117.4,321.6031,115.8,320.0031" style="stroke:#181818;stroke-width:0.4000000000000001;"/><line style="stroke:#181818;stroke-width:0.4000000000000001;stroke-dasharray:2.0,2.0;" x1="115" x2="285.4" y1="320.0031" y2="320.0031"/><text fill="#000000" font-family="sans-serif" font-size="5.2" font-weight="bold" lengthAdjust="spacing" textLength="5.6" x="119.8" y="318.0605">21</text><text fill="#000000" font-family="sans-serif" font-size="5.2" lengthAdjust="spacing" textLength="17.2" x="127" y="318.0605">number</text><path d="M63.2,326.0031 L92.4,326.0031 L92.4,329.3438 L88.4,333.3438 L63.2,333.3438 L63.2,326.0031 " fill="#EEEEEE" style="stroke:#000000;stroke-width:0.6000000000000001;"/><rect fill="none" height="344.1688" style="stroke:#000000;stroke-width:0.6000000000000001;" width="496.2" x="63.2" y="326.0031"/><text fill="#000000" font-family="sans-serif" font-size="5.2" font-weight="bold" lengthAdjust="spacing" textLength="11.2" x="69.2" y="331.8012">loop</text><text fill="#000000" font-family="sans-serif" font-size="4.4" font-weight="bold" lengthAdjust="spacing" textLength="69.2" x="98.4" y="331.3707">[for each section of the survey]</text><path d="M67.2,336.1438 L96.4,336.1438 L96.4,339.4844 L92.4,343.4844 L67.2,343.4844 L67.2,336.1438 " fill="#EEEEEE" style="stroke:#000000;stroke-width:0.6000000000000001;"/><rect fill="none" height="331.2281" style="stroke:#000000;stroke-width:0.6000000000000001;" width="488.2" x="67.2" y="336.1438"/><text fill="#000000" font-family="sans-serif" font-size="5.2" font-weight="bold" lengthAdjust="spacing" textLength="11.2" x="73.2" y="341.9418">loop</text><text fill="#000000" font-family="sans-serif" font-size="4.4" font-weight="bold" lengthAdjust="spacing" textLength="73.6" x="102.4" y="341.5113">[for each question of the section]</text><path d="M79.4,346.2844 L103.8,346.2844 L103.8,349.625 L99.8,353.625 L79.4,353.625 L79.4,346.2844 " fill="#EEEEEE" style="stroke:#000000;stroke-width:0.6000000000000001;"/><rect fill="none" height="56.2" style="stroke:#000000;stroke-width:0.6000000000000001;" width="260.4" x="79.4" y="346.2844"/><text fill="#000000" font-family="sans-serif" font-size="5.2" font-weight="bold" lengthAdjust="spacing" textLength="6.4" x="85.4" y="352.0824">alt</text><text fill="#000000" font-family="sans-serif" font-size="4.4" font-weight="bold" lengthAdjust="spacing" textLength="228" x="109.8" y="351.652">[if type is SINGLE_CHOICE or SCALING or MULTIPLE_CHOICE (each alternative, not combined responses)]</text><line style="stroke:#181818;stroke-width:0.4000000000000001;" x1="113" x2="131.8" y1="360.5656" y2="360.5656"/><line style="stroke:#181818;stroke-width:0.4000000000000001;" x1="131.8" x2="131.8" y1="360.5656" y2="365.7656"/><line style="stroke:#181818;stroke-width:0.4000000000000001;" x1="115.4" x2="131.8" y1="365.7656" y2="365.7656"/><polygon fill="#181818" points="119.4,364.1656,115.4,365.7656,119.4,367.3656,117.8,365.7656" style="stroke:#181818;stroke-width:0.4000000000000001;"/><text fill="#000000" font-family="sans-serif" font-size="5.2" font-weight="bold" lengthAdjust="spacing" textLength="5.6" x="117.8" y="358.623">22</text><text fill="#000000" font-family="sans-serif" font-size="5.2" lengthAdjust="spacing" textLength="146" x="125" y="358.623">answerWithMultipleAnswers(idSurvey, idSection, questionDTO)</text><path d="M83.4,373.7656 L112.6,373.7656 L112.6,377.1063 L108.6,381.1063 L83.4,381.1063 L83.4,373.7656 " fill="#EEEEEE" style="stroke:#000000;stroke-width:0.6000000000000001;"/><rect fill="none" height="25.9188" style="stroke:#000000;stroke-width:0.6000000000000001;" width="131.2" x="83.4" y="373.7656"/><text fill="#000000" font-family="sans-serif" font-size="5.2" font-weight="bold" lengthAdjust="spacing" textLength="11.2" x="89.4" y="379.5637">loop</text><text fill="#000000" font-family="sans-serif" font-size="4.4" font-weight="bold" lengthAdjust="spacing" textLength="94" x="118.6" y="379.1332">[for each possibly answer of the question]</text><rect height="16.5781" style="stroke:#000000;stroke-width:0.6000000000000001;fill:none;" width="74.4" x="86.2" y="381.1063"/><path d="M86.2,381.1063 L111,381.1063 L111,384.3063 L107,388.3063 L86.2,388.3063 L86.2,381.1063 " fill="#EEEEEE" style="stroke:#000000;stroke-width:0.8000000000000002;"/><text fill="#000000" font-family="sans-serif" font-size="5.2" font-weight="bold" lengthAdjust="spacing" textLength="6.8" x="91.4" y="387.3043">ref</text><text fill="#000000" font-family="sans-serif" font-size="4.8" lengthAdjust="spacing" textLength="71.2" x="87.8" y="394.8891">SD_PercentageAnswerQuestion</text><path d="M79.4,408.0844 L103.8,408.0844 L103.8,411.425 L99.8,415.425 L79.4,415.425 L79.4,408.0844 " fill="#EEEEEE" style="stroke:#000000;stroke-width:0.6000000000000001;"/><rect fill="none" height="87.4219" style="stroke:#000000;stroke-width:0.6000000000000001;" width="472" x="79.4" y="408.0844"/><text fill="#000000" font-family="sans-serif" font-size="5.2" font-weight="bold" lengthAdjust="spacing" textLength="6.4" x="85.4" y="413.8824">alt</text><text fill="#000000" font-family="sans-serif" font-size="4.4" font-weight="bold" lengthAdjust="spacing" textLength="63.2" x="109.8" y="413.452">[if type is MULTIPLE_CHOICE]</text><polygon fill="#181818" points="281,422.7656,285,424.3656,281,425.9656,282.6,424.3656" style="stroke:#181818;stroke-width:0.4000000000000001;"/><line style="stroke:#181818;stroke-width:0.4000000000000001;" x1="113" x2="283.4" y1="424.3656" y2="424.3656"/><text fill="#000000" font-family="sans-serif" font-size="5.2" font-weight="bold" lengthAdjust="spacing" textLength="5.6" x="115.8" y="422.423">23</text><text fill="#000000" font-family="sans-serif" font-size="5.2" lengthAdjust="spacing" textLength="111.6" x="123" y="422.423">combinations(idSurvey, idSection, questionDTO)</text><polygon fill="#181818" points="506.4,434.9063,510.4,436.5063,506.4,438.1063,508,436.5063" style="stroke:#181818;stroke-width:0.4000000000000001;"/><line style="stroke:#181818;stroke-width:0.4000000000000001;" x1="289.8" x2="508.8" y1="436.5063" y2="436.5063"/><text fill="#000000" font-family="sans-serif" font-size="5.2" font-weight="bold" lengthAdjust="spacing" textLength="5.6" x="292.6" y="434.5637">24</text><text fill="#000000" font-family="sans-serif" font-size="5.2" lengthAdjust="spacing" textLength="111.6" x="299.8" y="434.5637">combinations(idSurvey, idSection, questionDTO)</text><polygon fill="#181818" points="294.2,447.0469,290.2,448.6469,294.2,450.2469,292.6,448.6469" style="stroke:#181818;stroke-width:0.4000000000000001;"/><line style="stroke:#181818;stroke-width:0.4000000000000001;stroke-dasharray:2.0,2.0;" x1="291.8" x2="512.8" y1="448.6469" y2="448.6469"/><text fill="#000000" font-family="sans-serif" font-size="5.2" font-weight="bold" lengthAdjust="spacing" textLength="5.6" x="296.6" y="446.7043">25</text><text fill="#000000" font-family="sans-serif" font-size="5.2" lengthAdjust="spacing" textLength="44.8" x="303.8" y="446.7043">list of combinations</text><polygon fill="#181818" points="117.4,459.1875,113.4,460.7875,117.4,462.3875,115.8,460.7875" style="stroke:#181818;stroke-width:0.4000000000000001;"/><line style="stroke:#181818;stroke-width:0.4000000000000001;stroke-dasharray:2.0,2.0;" x1="115" x2="285.4" y1="460.7875" y2="460.7875"/><text fill="#000000" font-family="sans-serif" font-size="5.2" font-weight="bold" lengthAdjust="spacing" textLength="5.6" x="119.8" y="458.8449">26</text><text fill="#000000" font-family="sans-serif" font-size="5.2" lengthAdjust="spacing" textLength="44.8" x="127" y="458.8449">list of combinations</text><path d="M83.4,466.7875 L112.6,466.7875 L112.6,470.1281 L108.6,474.1281 L83.4,474.1281 L83.4,466.7875 " fill="#EEEEEE" style="stroke:#000000;stroke-width:0.6000000000000001;"/><rect fill="none" height="25.9188" style="stroke:#000000;stroke-width:0.6000000000000001;" width="86.8" x="83.4" y="466.7875"/><text fill="#000000" font-family="sans-serif" font-size="5.2" font-weight="bold" lengthAdjust="spacing" textLength="11.2" x="89.4" y="472.5855">loop</text><text fill="#000000" font-family="sans-serif" font-size="4.4" font-weight="bold" lengthAdjust="spacing" textLength="49.6" x="118.6" y="472.1551">[for each combination]</text><rect height="16.5781" style="stroke:#000000;stroke-width:0.6000000000000001;fill:none;" width="74.4" x="86.2" y="474.1281"/><path d="M86.2,474.1281 L111,474.1281 L111,477.3281 L107,481.3281 L86.2,481.3281 L86.2,474.1281 " fill="#EEEEEE" style="stroke:#000000;stroke-width:0.8000000000000002;"/><text fill="#000000" font-family="sans-serif" font-size="5.2" font-weight="bold" lengthAdjust="spacing" textLength="6.8" x="91.4" y="480.3262">ref</text><text fill="#000000" font-family="sans-serif" font-size="4.8" lengthAdjust="spacing" textLength="71.2" x="87.8" y="487.9109">SD_PercentageAnswerQuestion</text><path d="M71.2,501.1063 L95.6,501.1063 L95.6,504.4469 L91.6,508.4469 L71.2,508.4469 L71.2,501.1063 " fill="#EEEEEE" style="stroke:#000000;stroke-width:0.6000000000000001;"/><rect fill="none" height="40.4594" style="stroke:#000000;stroke-width:0.6000000000000001;" width="80.4" x="71.2" y="501.1063"/><text fill="#000000" font-family="sans-serif" font-size="5.2" font-weight="bold" lengthAdjust="spacing" textLength="6.4" x="77.2" y="506.9043">alt</text><text fill="#000000" font-family="sans-serif" font-size="4.4" font-weight="bold" lengthAdjust="spacing" textLength="48" x="101.6" y="506.4738">[if type is YES_OR_NO]</text><rect height="16.5781" style="stroke:#000000;stroke-width:0.6000000000000001;fill:none;" width="74.4" x="86.2" y="508.4469"/><path d="M86.2,508.4469 L111,508.4469 L111,511.6469 L107,515.6469 L86.2,515.6469 L86.2,508.4469 " fill="#EEEEEE" style="stroke:#000000;stroke-width:0.8000000000000002;"/><text fill="#000000" font-family="sans-serif" font-size="5.2" font-weight="bold" lengthAdjust="spacing" textLength="6.8" x="91.4" y="514.6449">ref</text><text fill="#000000" font-family="sans-serif" font-size="4.8" lengthAdjust="spacing" textLength="71.2" x="87.8" y="522.2297">SD_PercentageAnswerQuestion</text><path d="M75.2,529.025 L75.2,539.425 L146.8,539.425 L146.8,533.025 L142.8,529.025 L75.2,529.025 " fill="#FEFFDD" style="stroke:#181818;stroke-width:0.20000000000000004;"/><path d="M142.8,529.025 L142.8,533.025 L146.8,533.025 L142.8,529.025 " fill="#FEFFDD" style="stroke:#181818;stroke-width:0.20000000000000004;"/><text fill="#000000" font-family="sans-serif" font-size="5.2" lengthAdjust="spacing" textLength="63.2" x="77.6" y="536.423">for answer "YES" and "NO"</text><path d="M83.4,547.1656 L107.8,547.1656 L107.8,550.5063 L103.8,554.5063 L83.4,554.5063 L83.4,547.1656 " fill="#EEEEEE" style="stroke:#000000;stroke-width:0.6000000000000001;"/><rect fill="none" height="55.9031" style="stroke:#000000;stroke-width:0.6000000000000001;" width="468" x="83.4" y="547.1656"/><text fill="#000000" font-family="sans-serif" font-size="5.2" font-weight="bold" lengthAdjust="spacing" textLength="6.4" x="89.4" y="552.9637">alt</text><text fill="#000000" font-family="sans-serif" font-size="4.4" font-weight="bold" lengthAdjust="spacing" textLength="46.4" x="113.8" y="552.5332">[if type is FREE_TEXT]</text><polygon fill="#181818" points="281,561.8469,285,563.4469,281,565.0469,282.6,563.4469" style="stroke:#181818;stroke-width:0.4000000000000001;"/><line style="stroke:#181818;stroke-width:0.4000000000000001;" x1="113" x2="283.4" y1="563.4469" y2="563.4469"/><text fill="#000000" font-family="sans-serif" font-size="5.2" font-weight="bold" lengthAdjust="spacing" textLength="5.6" x="115.8" y="561.5043">27</text><text fill="#000000" font-family="sans-serif" font-size="5.2" lengthAdjust="spacing" textLength="156" x="123" y="561.5043">numberCustomersAnswerQuestion(idSurvey, idSection, idQuestion)</text><polygon fill="#181818" points="506.4,573.9875,510.4,575.5875,506.4,577.1875,508,575.5875" style="stroke:#181818;stroke-width:0.4000000000000001;"/><line style="stroke:#181818;stroke-width:0.4000000000000001;" x1="289.8" x2="508.8" y1="575.5875" y2="575.5875"/><text fill="#000000" font-family="sans-serif" font-size="5.2" font-weight="bold" lengthAdjust="spacing" textLength="5.6" x="292.6" y="573.6449">28</text><text fill="#000000" font-family="sans-serif" font-size="5.2" lengthAdjust="spacing" textLength="156" x="299.8" y="573.6449">numberCustomersAnswerQuestion(idSurvey, idSection, idQuestion)</text><polygon fill="#181818" points="294.2,586.1281,290.2,587.7281,294.2,589.3281,292.6,587.7281" style="stroke:#181818;stroke-width:0.4000000000000001;"/><line style="stroke:#181818;stroke-width:0.4000000000000001;stroke-dasharray:2.0,2.0;" x1="291.8" x2="512.8" y1="587.7281" y2="587.7281"/><text fill="#000000" font-family="sans-serif" font-size="5.2" font-weight="bold" lengthAdjust="spacing" textLength="5.6" x="296.6" y="585.7855">29</text><text fill="#000000" font-family="sans-serif" font-size="5.2" lengthAdjust="spacing" textLength="17.2" x="303.8" y="585.7855">number</text><polygon fill="#181818" points="117.4,598.2688,113.4,599.8688,117.4,601.4688,115.8,599.8688" style="stroke:#181818;stroke-width:0.4000000000000001;"/><line style="stroke:#181818;stroke-width:0.4000000000000001;stroke-dasharray:2.0,2.0;" x1="115" x2="285.4" y1="599.8688" y2="599.8688"/><text fill="#000000" font-family="sans-serif" font-size="5.2" font-weight="bold" lengthAdjust="spacing" textLength="5.6" x="119.8" y="597.9262">30</text><text fill="#000000" font-family="sans-serif" font-size="5.2" lengthAdjust="spacing" textLength="17.2" x="127" y="597.9262">number</text><path d="M83.4,608.6688 L107.8,608.6688 L107.8,612.0094 L103.8,616.0094 L83.4,616.0094 L83.4,608.6688 " fill="#EEEEEE" style="stroke:#000000;stroke-width:0.6000000000000001;"/><rect fill="none" height="55.9031" style="stroke:#000000;stroke-width:0.6000000000000001;" width="468" x="83.4" y="608.6688"/><text fill="#000000" font-family="sans-serif" font-size="5.2" font-weight="bold" lengthAdjust="spacing" textLength="6.4" x="89.4" y="614.4668">alt</text><text fill="#000000" font-family="sans-serif" font-size="4.4" font-weight="bold" lengthAdjust="spacing" textLength="42.4" x="113.8" y="614.0363">[if type is NUMERIC]</text><polygon fill="#181818" points="281,623.35,285,624.95,281,626.55,282.6,624.95" style="stroke:#181818;stroke-width:0.4000000000000001;"/><line style="stroke:#181818;stroke-width:0.4000000000000001;" x1="113" x2="283.4" y1="624.95" y2="624.95"/><text fill="#000000" font-family="sans-serif" font-size="5.2" font-weight="bold" lengthAdjust="spacing" textLength="5.6" x="115.8" y="623.0074">31</text><text fill="#000000" font-family="sans-serif" font-size="5.2" lengthAdjust="spacing" textLength="110.4" x="123" y="623.0074">averageAnswer(idSurvey, idSection, idQuestion)</text><polygon fill="#181818" points="506.4,635.4906,510.4,637.0906,506.4,638.6906,508,637.0906" style="stroke:#181818;stroke-width:0.4000000000000001;"/><line style="stroke:#181818;stroke-width:0.4000000000000001;" x1="289.8" x2="508.8" y1="637.0906" y2="637.0906"/><text fill="#000000" font-family="sans-serif" font-size="5.2" font-weight="bold" lengthAdjust="spacing" textLength="5.6" x="292.6" y="635.148">32</text><text fill="#000000" font-family="sans-serif" font-size="5.2" lengthAdjust="spacing" textLength="110.4" x="299.8" y="635.148">averageAnswer(idSurvey, idSection, idQuestion)</text><polygon fill="#181818" points="294.2,647.6313,290.2,649.2313,294.2,650.8313,292.6,649.2313" style="stroke:#181818;stroke-width:0.4000000000000001;"/><line style="stroke:#181818;stroke-width:0.4000000000000001;stroke-dasharray:2.0,2.0;" x1="291.8" x2="512.8" y1="649.2313" y2="649.2313"/><text fill="#000000" font-family="sans-serif" font-size="5.2" font-weight="bold" lengthAdjust="spacing" textLength="5.6" x="296.6" y="647.2887">33</text><text fill="#000000" font-family="sans-serif" font-size="5.2" lengthAdjust="spacing" textLength="17.2" x="303.8" y="647.2887">number</text><polygon fill="#181818" points="117.4,659.7719,113.4,661.3719,117.4,662.9719,115.8,661.3719" style="stroke:#181818;stroke-width:0.4000000000000001;"/><line style="stroke:#181818;stroke-width:0.4000000000000001;stroke-dasharray:2.0,2.0;" x1="115" x2="285.4" y1="661.3719" y2="661.3719"/><text fill="#000000" font-family="sans-serif" font-size="5.2" font-weight="bold" lengthAdjust="spacing" textLength="5.6" x="119.8" y="659.4293">34</text><text fill="#000000" font-family="sans-serif" font-size="5.2" lengthAdjust="spacing" textLength="17.2" x="127" y="659.4293">number</text><polygon fill="#181818" points="28.6,683.1125,24.6,684.7125,28.6,686.3125,27,684.7125" style="stroke:#181818;stroke-width:0.4000000000000001;"/><line style="stroke:#181818;stroke-width:0.4000000000000001;" x1="26.2" x2="108.6" y1="684.7125" y2="684.7125"/><text fill="#000000" font-family="sans-serif" font-size="5.2" font-weight="bold" lengthAdjust="spacing" textLength="5.6" x="31" y="682.7699">35</text><text fill="#000000" font-family="sans-serif" font-size="5.2" lengthAdjust="spacing" textLength="20.4" x="38.2" y="682.7699">Success</text><!--MD5=[f98d7fee235149ef60ab16ad5990f235]
@startuml

autonumber
actor "Sales Manager" as SM
participant StatisticReportUI as UI <<presentation>>
participant StatisticReportController as Controller <<application>>
participant Survey as Survey <<domain>>
database SurveyRepository as SurveyRepository <<repository>>
database SurveyTargetRepository as SurveyTargetRepository <<repository>>
database SurveyAnswersRepository as SurveyAnswersRepository <<repository>>

activate SM
SM -> UI : Starts the process to get a \nstatistical report regarding a \npreviously set up questionnaire.
activate UI
UI -> Controller: create
activate Controller
loop this can be done for as many surveys as the Sales Manager wants
UI -> Controller : allSurveys()
Controller -> SurveyRepository : allSurveys()
activate SurveyRepository
SurveyRepository - -> Controller : allSurveys
deactivate SurveyRepository
Controller - -> UI : surveyDTOList
Controller -> UI : Asks for ID of the \nsurvey and inputs.
UI -> Controller : getSurveyDTO(id)
Controller -> SurveyRepository : findBySurveyId(id)
activate SurveyRepository
SurveyRepository - -> Controller : survey
deactivate SurveyRepository
Controller -> Survey : toDTO()
activate Survey
Survey - -> Controller : surveyDTO
deactivate Survey
Controller - -> UI : surveyDTO
UI -> Controller : numberCustomersRequestedToAnswer(id)
Controller -> SurveyTargetRepository : numberCustomersRequestedToAnswer(id)
activate SurveyTargetRepository
SurveyTargetRepository - -> Controller : number
deactivate SurveyTargetRepository
Controller - -> UI : number
UI -> Controller : numberCustomersRequestedToAnswer(id)
Controller -> SurveyTargetRepository : numberCustomersAnswered(id)
activate SurveyTargetRepository
SurveyTargetRepository - -> Controller : number
deactivate SurveyTargetRepository
Controller - -> UI : number
loop for each section of the survey
    loop for each question of the section
        alt if type is SINGLE_CHOICE or SCALING or MULTIPLE_CHOICE (each alternative, not combined responses)
            UI -> UI : answerWithMultipleAnswers(idSurvey, idSection, questionDTO)
            activate UI
            loop for each possibly answer of the question
                ref over UI
                    SD_PercentageAnswerQuestion
                end ref
            end loop
            deactivate UI
        end alt
        alt if type is MULTIPLE_CHOICE
            UI -> Controller : combinations(idSurvey, idSection, questionDTO)
            Controller -> SurveyAnswersRepository : combinations(idSurvey, idSection, questionDTO)
            activate SurveyAnswersRepository
            SurveyAnswersRepository - -> Controller : list of combinations
            deactivate SurveyAnswersRepository
            Controller - -> UI : list of combinations
            loop for each combination
                ref over UI
                    SD_PercentageAnswerQuestion
                end ref
            end loop
        end alt
        alt if type is YES_OR_NO
            ref over UI
                SD_PercentageAnswerQuestion
            end ref
            note over UI
            for answer "YES" and "NO"
            end note
        end alt
        alt if type is FREE_TEXT
            UI -> Controller : numberCustomersAnswerQuestion(idSurvey, idSection, idQuestion)
            Controller -> SurveyAnswersRepository : numberCustomersAnswerQuestion(idSurvey, idSection, idQuestion)
            activate SurveyAnswersRepository
            SurveyAnswersRepository - -> Controller : number
            deactivate SurveyAnswersRepository
            Controller - -> UI : number
        end alt
        alt if type is NUMERIC
            UI -> Controller : averageAnswer(idSurvey, idSection, idQuestion)
            Controller -> SurveyAnswersRepository : averageAnswer(idSurvey, idSection, idQuestion)
            activate SurveyAnswersRepository
            SurveyAnswersRepository - -> Controller : number
            deactivate SurveyAnswersRepository
            Controller - -> UI : number
        end alt
    end loop
end loop
end loop
UI -> SM : Success

@enduml

PlantUML version 1.2022.5(Sat Apr 30 11:55:52 BST 2022)
(GPL source distribution)
Java Runtime: OpenJDK Runtime Environment
JVM: OpenJDK 64-Bit Server VM
Default Encoding: Cp1252
Language: pt
Country: PT
--></g></svg>