<?xml version="1.0" encoding="UTF-8" standalone="no"?><svg xmlns="http://www.w3.org/2000/svg" xmlns:xlink="http://www.w3.org/1999/xlink" contentScriptType="application/ecmascript" contentStyleType="text/css" height="700px" preserveAspectRatio="none" style="width:1300px;height:700px;background:#FFFFFF;" version="1.1" viewBox="0 0 1300 700" width="1300px" zoomAndPan="magnify"><defs><filter height="300%" id="ff4o25t4kyqbx" width="300%" x="-1" y="-1"><feGaussianBlur result="blurOut" stdDeviation="2.0"/><feColorMatrix in="blurOut" result="blurOut2" type="matrix" values="0 0 0 0 0 0 0 0 0 0 0 0 0 0 0 0 0 0 .4 0"/><feOffset dx="4.0" dy="4.0" in="blurOut2" result="blurOut3"/><feBlend in="SourceGraphic" in2="blurOut3" mode="normal"/></filter></defs><g><rect fill="#FFFFFF" filter="url(#ff4o25t4kyqbx)" height="504.2734" style="stroke:#A80036;stroke-width:1.0;" width="10" x="87.5" y="99.6094"/><rect fill="#FFFFFF" filter="url(#ff4o25t4kyqbx)" height="465.5703" style="stroke:#A80036;stroke-width:1.0;" width="10" x="396.5" y="138.3125"/><rect fill="#FFFFFF" filter="url(#ff4o25t4kyqbx)" height="91.0547" style="stroke:#A80036;stroke-width:1.0;" width="10" x="722.5" y="168.6641"/><rect fill="#FFFFFF" filter="url(#ff4o25t4kyqbx)" height="151.0547" style="stroke:#A80036;stroke-width:1.0;" width="10" x="722.5" y="345.7734"/><rect fill="#FFFFFF" filter="url(#ff4o25t4kyqbx)" height="30.3516" style="stroke:#A80036;stroke-width:1.0;" width="10" x="722.5" y="534.1797"/><rect fill="#FFFFFF" filter="url(#ff4o25t4kyqbx)" height="30" style="stroke:#A80036;stroke-width:1.0;" width="10" x="1067.5" y="376.125"/><rect fill="#FFFFFF" filter="url(#ff4o25t4kyqbx)" height="30.3516" style="stroke:#A80036;stroke-width:1.0;" width="10" x="1215.5" y="199.0156"/><rect fill="#FFFFFF" filter="url(#ff4o25t4kyqbx)" height="30" style="stroke:#A80036;stroke-width:1.0;" width="10" x="1215.5" y="436.4766"/><rect fill="#FFFFFF" filter="url(#ff4o25t4kyqbx)" height="230.1094" style="stroke:#000000;stroke-width:2.0;" width="1276" x="10" y="274.7188"/><line style="stroke:#A80036;stroke-width:1.0;stroke-dasharray:5.0,5.0;" x1="92" x2="92" y1="89.6094" y2="612.8828"/><line style="stroke:#A80036;stroke-width:1.0;stroke-dasharray:5.0,5.0;" x1="401" x2="401" y1="89.6094" y2="612.8828"/><line style="stroke:#A80036;stroke-width:1.0;stroke-dasharray:5.0,5.0;" x1="727.5" x2="727.5" y1="89.6094" y2="612.8828"/><line style="stroke:#A80036;stroke-width:1.0;stroke-dasharray:5.0,5.0;" x1="1072" x2="1072" y1="89.6094" y2="612.8828"/><line style="stroke:#A80036;stroke-width:1.0;stroke-dasharray:5.0,5.0;" x1="1220" x2="1220" y1="89.6094" y2="612.8828"/><text fill="#000000" font-family="sans-serif" font-size="14" lengthAdjust="spacing" textLength="139" x="20" y="86.5332">Warehouse Employee</text><ellipse cx="92.5" cy="15" fill="#FEFECE" filter="url(#ff4o25t4kyqbx)" rx="8" ry="8" style="stroke:#A80036;stroke-width:2.0;"/><path d="M92.5,23 L92.5,50 M79.5,31 L105.5,31 M92.5,50 L79.5,65 M92.5,50 L105.5,65 " fill="none" filter="url(#ff4o25t4kyqbx)" style="stroke:#A80036;stroke-width:2.0;"/><text fill="#000000" font-family="sans-serif" font-size="14" lengthAdjust="spacing" textLength="139" x="20" y="626.416">Warehouse Employee</text><ellipse cx="92.5" cy="639.4922" fill="#FEFECE" filter="url(#ff4o25t4kyqbx)" rx="8" ry="8" style="stroke:#A80036;stroke-width:2.0;"/><path d="M92.5,647.4922 L92.5,674.4922 M79.5,655.4922 L105.5,655.4922 M92.5,674.4922 L79.5,689.4922 M92.5,674.4922 L105.5,689.4922 " fill="none" filter="url(#ff4o25t4kyqbx)" style="stroke:#A80036;stroke-width:2.0;"/><rect fill="#FEFECE" filter="url(#ff4o25t4kyqbx)" height="49.2188" style="stroke:#A80036;stroke-width:1.5;" width="173" x="313" y="35.3906"/><text fill="#000000" font-family="sans-serif" font-size="14" font-style="italic" lengthAdjust="spacing" textLength="95" x="352" y="56.9238">«presentation»</text><text fill="#000000" font-family="sans-serif" font-size="14" lengthAdjust="spacing" textLength="159" x="320" y="74.5332">AlreadyPreparedByAgvUI</text><rect fill="#FEFECE" filter="url(#ff4o25t4kyqbx)" height="49.2188" style="stroke:#A80036;stroke-width:1.5;" width="173" x="313" y="611.8828"/><text fill="#000000" font-family="sans-serif" font-size="14" font-style="italic" lengthAdjust="spacing" textLength="95" x="352" y="633.416">«presentation»</text><text fill="#000000" font-family="sans-serif" font-size="14" lengthAdjust="spacing" textLength="159" x="320" y="651.0254">AlreadyPreparedByAgvUI</text><rect fill="#FEFECE" filter="url(#ff4o25t4kyqbx)" height="49.2188" style="stroke:#A80036;stroke-width:1.5;" width="272" x="589.5" y="35.3906"/><text fill="#000000" font-family="sans-serif" font-size="14" font-style="italic" lengthAdjust="spacing" textLength="84" x="683.5" y="56.9238">«application»</text><text fill="#000000" font-family="sans-serif" font-size="14" lengthAdjust="spacing" textLength="258" x="596.5" y="74.5332">AlreadyPreparedOrdersByAGVController</text><rect fill="#FEFECE" filter="url(#ff4o25t4kyqbx)" height="49.2188" style="stroke:#A80036;stroke-width:1.5;" width="272" x="589.5" y="611.8828"/><text fill="#000000" font-family="sans-serif" font-size="14" font-style="italic" lengthAdjust="spacing" textLength="84" x="683.5" y="633.416">«application»</text><text fill="#000000" font-family="sans-serif" font-size="14" lengthAdjust="spacing" textLength="258" x="596.5" y="651.0254">AlreadyPreparedOrdersByAGVController</text><rect fill="#FEFECE" filter="url(#ff4o25t4kyqbx)" height="31.6094" style="stroke:#A80036;stroke-width:1.5;" width="51" x="1045" y="53"/><text fill="#000000" font-family="sans-serif" font-size="14" lengthAdjust="spacing" textLength="37" x="1052" y="74.5332">Order</text><rect fill="#FEFECE" filter="url(#ff4o25t4kyqbx)" height="31.6094" style="stroke:#A80036;stroke-width:1.5;" width="51" x="1045" y="611.8828"/><text fill="#000000" font-family="sans-serif" font-size="14" lengthAdjust="spacing" textLength="37" x="1052" y="633.416">Order</text><text fill="#000000" font-family="sans-serif" font-size="14" font-style="italic" lengthAdjust="spacing" textLength="79" x="1178" y="68.9238">«repository»</text><text fill="#000000" font-family="sans-serif" font-size="14" lengthAdjust="spacing" textLength="105" x="1165" y="86.5332">OrderRepository</text><path d="M1202.5,18.3906 C1202.5,8.3906 1220.5,8.3906 1220.5,8.3906 C1220.5,8.3906 1238.5,8.3906 1238.5,18.3906 L1238.5,44.3906 C1238.5,54.3906 1220.5,54.3906 1220.5,54.3906 C1220.5,54.3906 1202.5,54.3906 1202.5,44.3906 L1202.5,18.3906 " fill="#FEFECE" filter="url(#ff4o25t4kyqbx)" style="stroke:#000000;stroke-width:1.5;"/><path d="M1202.5,18.3906 C1202.5,28.3906 1220.5,28.3906 1220.5,28.3906 C1220.5,28.3906 1238.5,28.3906 1238.5,18.3906 " fill="none" style="stroke:#000000;stroke-width:1.5;"/><text fill="#000000" font-family="sans-serif" font-size="14" font-style="italic" lengthAdjust="spacing" textLength="79" x="1178" y="626.416">«repository»</text><text fill="#000000" font-family="sans-serif" font-size="14" lengthAdjust="spacing" textLength="105" x="1165" y="644.0254">OrderRepository</text><path d="M1202.5,657.1016 C1202.5,647.1016 1220.5,647.1016 1220.5,647.1016 C1220.5,647.1016 1238.5,647.1016 1238.5,657.1016 L1238.5,683.1016 C1238.5,693.1016 1220.5,693.1016 1220.5,693.1016 C1220.5,693.1016 1202.5,693.1016 1202.5,683.1016 L1202.5,657.1016 " fill="#FEFECE" filter="url(#ff4o25t4kyqbx)" style="stroke:#000000;stroke-width:1.5;"/><path d="M1202.5,657.1016 C1202.5,667.1016 1220.5,667.1016 1220.5,667.1016 C1220.5,667.1016 1238.5,667.1016 1238.5,657.1016 " fill="none" style="stroke:#000000;stroke-width:1.5;"/><rect fill="#FFFFFF" filter="url(#ff4o25t4kyqbx)" height="504.2734" style="stroke:#A80036;stroke-width:1.0;" width="10" x="87.5" y="99.6094"/><rect fill="#FFFFFF" filter="url(#ff4o25t4kyqbx)" height="465.5703" style="stroke:#A80036;stroke-width:1.0;" width="10" x="396.5" y="138.3125"/><rect fill="#FFFFFF" filter="url(#ff4o25t4kyqbx)" height="91.0547" style="stroke:#A80036;stroke-width:1.0;" width="10" x="722.5" y="168.6641"/><rect fill="#FFFFFF" filter="url(#ff4o25t4kyqbx)" height="151.0547" style="stroke:#A80036;stroke-width:1.0;" width="10" x="722.5" y="345.7734"/><rect fill="#FFFFFF" filter="url(#ff4o25t4kyqbx)" height="30.3516" style="stroke:#A80036;stroke-width:1.0;" width="10" x="722.5" y="534.1797"/><rect fill="#FFFFFF" filter="url(#ff4o25t4kyqbx)" height="30" style="stroke:#A80036;stroke-width:1.0;" width="10" x="1067.5" y="376.125"/><rect fill="#FFFFFF" filter="url(#ff4o25t4kyqbx)" height="30.3516" style="stroke:#A80036;stroke-width:1.0;" width="10" x="1215.5" y="199.0156"/><rect fill="#FFFFFF" filter="url(#ff4o25t4kyqbx)" height="30" style="stroke:#A80036;stroke-width:1.0;" width="10" x="1215.5" y="436.4766"/><polygon fill="#A80036" points="384.5,134.3125,394.5,138.3125,384.5,142.3125,388.5,138.3125" style="stroke:#A80036;stroke-width:1.0;"/><line style="stroke:#A80036;stroke-width:1.0;" x1="97.5" x2="390.5" y1="138.3125" y2="138.3125"/><text fill="#000000" font-family="sans-serif" font-size="13" font-weight="bold" lengthAdjust="spacing" textLength="7" x="104.5" y="125.2803">1</text><text fill="#000000" font-family="sans-serif" font-size="13" lengthAdjust="spacing" textLength="265" x="115.5" y="117.1045">Starts the process to access the list of orders</text><text fill="#000000" font-family="sans-serif" font-size="13" lengthAdjust="spacing" textLength="163" x="119.5" y="133.4561">that are ready to be packed.</text><polygon fill="#A80036" points="710.5,164.6641,720.5,168.6641,710.5,172.6641,714.5,168.6641" style="stroke:#A80036;stroke-width:1.0;"/><line style="stroke:#A80036;stroke-width:1.0;" x1="406.5" x2="716.5" y1="168.6641" y2="168.6641"/><text fill="#000000" font-family="sans-serif" font-size="13" font-weight="bold" lengthAdjust="spacing" textLength="7" x="413.5" y="163.8076">2</text><text fill="#000000" font-family="sans-serif" font-size="13" lengthAdjust="spacing" textLength="175" x="424.5" y="163.8076">asks for list of prepared orders</text><polygon fill="#A80036" points="1203.5,195.0156,1213.5,199.0156,1203.5,203.0156,1207.5,199.0156" style="stroke:#A80036;stroke-width:1.0;"/><line style="stroke:#A80036;stroke-width:1.0;" x1="732.5" x2="1209.5" y1="199.0156" y2="199.0156"/><text fill="#000000" font-family="sans-serif" font-size="13" font-weight="bold" lengthAdjust="spacing" textLength="7" x="739.5" y="194.1592">3</text><text fill="#000000" font-family="sans-serif" font-size="13" lengthAdjust="spacing" textLength="453" x="750.5" y="194.1592">Starts communication to database (order READY_TO_BE_PACKED state list)</text><polygon fill="#A80036" points="743.5,225.3672,733.5,229.3672,743.5,233.3672,739.5,229.3672" style="stroke:#A80036;stroke-width:1.0;"/><line style="stroke:#A80036;stroke-width:1.0;" x1="737.5" x2="1219.5" y1="229.3672" y2="229.3672"/><text fill="#000000" font-family="sans-serif" font-size="13" font-weight="bold" lengthAdjust="spacing" textLength="7" x="749.5" y="224.5107">4</text><text fill="#000000" font-family="sans-serif" font-size="13" lengthAdjust="spacing" textLength="61" x="760.5" y="224.5107">returns list</text><polygon fill="#A80036" points="417.5,255.7188,407.5,259.7188,417.5,263.7188,413.5,259.7188" style="stroke:#A80036;stroke-width:1.0;"/><line style="stroke:#A80036;stroke-width:1.0;" x1="411.5" x2="726.5" y1="259.7188" y2="259.7188"/><text fill="#000000" font-family="sans-serif" font-size="13" font-weight="bold" lengthAdjust="spacing" textLength="7" x="423.5" y="254.8623">5</text><text fill="#000000" font-family="sans-serif" font-size="13" lengthAdjust="spacing" textLength="124" x="434.5" y="254.8623">Shows list as options</text><path d="M10,274.7188 L83,274.7188 L83,282.7188 L73,292.7188 L10,292.7188 L10,274.7188 " fill="#EEEEEE" style="stroke:#000000;stroke-width:1.0;"/><rect fill="none" height="230.1094" style="stroke:#000000;stroke-width:2.0;" width="1276" x="10" y="274.7188"/><text fill="#000000" font-family="sans-serif" font-size="13" font-weight="bold" lengthAdjust="spacing" textLength="28" x="25" y="289.2139">loop</text><text fill="#000000" font-family="sans-serif" font-size="11" font-weight="bold" lengthAdjust="spacing" textLength="407" x="98" y="288.1377">[this can be done for as many orders as the warehouse employee needs]</text><polygon fill="#A80036" points="384.5,311.4219,394.5,315.4219,384.5,319.4219,388.5,315.4219" style="stroke:#A80036;stroke-width:1.0;"/><line style="stroke:#A80036;stroke-width:1.0;" x1="97.5" x2="390.5" y1="315.4219" y2="315.4219"/><text fill="#000000" font-family="sans-serif" font-size="13" font-weight="bold" lengthAdjust="spacing" textLength="7" x="104.5" y="310.5654">6</text><text fill="#000000" font-family="sans-serif" font-size="13" lengthAdjust="spacing" textLength="175" x="115.5" y="310.5654">Chooses order to update state</text><polygon fill="#A80036" points="710.5,341.7734,720.5,345.7734,710.5,349.7734,714.5,345.7734" style="stroke:#A80036;stroke-width:1.0;"/><line style="stroke:#A80036;stroke-width:1.0;" x1="406.5" x2="716.5" y1="345.7734" y2="345.7734"/><text fill="#000000" font-family="sans-serif" font-size="13" font-weight="bold" lengthAdjust="spacing" textLength="7" x="413.5" y="340.917">7</text><text fill="#000000" font-family="sans-serif" font-size="13" lengthAdjust="spacing" textLength="155" x="424.5" y="340.917">Sends info (option number)</text><polygon fill="#A80036" points="1055.5,372.125,1065.5,376.125,1055.5,380.125,1059.5,376.125" style="stroke:#A80036;stroke-width:1.0;"/><line style="stroke:#A80036;stroke-width:1.0;" x1="732.5" x2="1061.5" y1="376.125" y2="376.125"/><text fill="#000000" font-family="sans-serif" font-size="13" font-weight="bold" lengthAdjust="spacing" textLength="7" x="739.5" y="371.2686">8</text><text fill="#000000" font-family="sans-serif" font-size="13" lengthAdjust="spacing" textLength="305" x="750.5" y="371.2686">updates order state to READY_TO_BE_DELIVERED</text><polygon fill="#A80036" points="1203.5,432.4766,1213.5,436.4766,1203.5,440.4766,1207.5,436.4766" style="stroke:#A80036;stroke-width:1.0;"/><line style="stroke:#A80036;stroke-width:1.0;" x1="732.5" x2="1209.5" y1="436.4766" y2="436.4766"/><text fill="#000000" font-family="sans-serif" font-size="13" font-weight="bold" lengthAdjust="spacing" textLength="7" x="739.5" y="431.6201">9</text><text fill="#000000" font-family="sans-serif" font-size="13" lengthAdjust="spacing" textLength="76" x="750.5" y="431.6201">saves update</text><polygon fill="#A80036" points="417.5,492.8281,407.5,496.8281,417.5,500.8281,413.5,496.8281" style="stroke:#A80036;stroke-width:1.0;"/><line style="stroke:#A80036;stroke-width:1.0;" x1="411.5" x2="726.5" y1="496.8281" y2="496.8281"/><text fill="#000000" font-family="sans-serif" font-size="13" font-weight="bold" lengthAdjust="spacing" textLength="14" x="423.5" y="491.9717">10</text><text fill="#000000" font-family="sans-serif" font-size="13" lengthAdjust="spacing" textLength="274" x="441.5" y="491.9717">removes option from list and shows updated list</text><polygon fill="#A80036" points="710.5,530.1797,720.5,534.1797,710.5,538.1797,714.5,534.1797" style="stroke:#A80036;stroke-width:1.0;"/><line style="stroke:#A80036;stroke-width:1.0;" x1="406.5" x2="716.5" y1="534.1797" y2="534.1797"/><text fill="#000000" font-family="sans-serif" font-size="13" font-weight="bold" lengthAdjust="spacing" textLength="14" x="413.5" y="529.3232">11</text><text fill="#000000" font-family="sans-serif" font-size="13" lengthAdjust="spacing" textLength="87" x="431.5" y="529.3232">Ends operation</text><polygon fill="#A80036" points="417.5,560.5313,407.5,564.5313,417.5,568.5313,413.5,564.5313" style="stroke:#A80036;stroke-width:1.0;"/><line style="stroke:#A80036;stroke-width:1.0;stroke-dasharray:2.0,2.0;" x1="411.5" x2="726.5" y1="564.5313" y2="564.5313"/><text fill="#000000" font-family="sans-serif" font-size="13" font-weight="bold" lengthAdjust="spacing" textLength="14" x="423.5" y="559.6748">12</text><text fill="#000000" font-family="sans-serif" font-size="13" lengthAdjust="spacing" textLength="156" x="441.5" y="559.6748">informs operation success.</text><polygon fill="#A80036" points="108.5,590.8828,98.5,594.8828,108.5,598.8828,104.5,594.8828" style="stroke:#A80036;stroke-width:1.0;"/><line style="stroke:#A80036;stroke-width:1.0;stroke-dasharray:2.0,2.0;" x1="102.5" x2="395.5" y1="594.8828" y2="594.8828"/><text fill="#000000" font-family="sans-serif" font-size="13" font-weight="bold" lengthAdjust="spacing" textLength="14" x="114.5" y="590.0264">13</text><text fill="#000000" font-family="sans-serif" font-size="13" lengthAdjust="spacing" textLength="156" x="132.5" y="590.0264">informs operation success.</text><!--MD5=[08558069e36620f7b69f57dcb8dd9d65]
@startuml

autonumber
actor "Warehouse Employee" as WE
participant AlreadyPreparedByAgvUI as UI <<presentation>>
participant AlreadyPreparedOrdersByAGVController as Controller <<application>>
participant Order as ORD
database OrderRepository as Repository <<repository>>

activate WE
WE -> UI : Starts the process to access the list of orders \n that are ready to be packed.
activate UI
UI -> Controller: asks for list of prepared orders
activate Controller

Controller ->Repository : Starts communication to database (order READY_TO_BE_PACKED state list)
activate Repository
Repository -> Controller : returns list
deactivate Repository
Controller -> UI: Shows list as options
deactivate Controller 
loop this can be done for as many orders as the warehouse employee needs
WE -> UI: Chooses order to update state
UI -> Controller: Sends info (option number)
activate Controller
Controller -> ORD: updates order state to READY_TO_BE_DELIVERED
activate ORD
deactivate ORD
Controller -> Repository : saves update
activate Repository

deactivate Repository

Controller -> UI: removes option from list and shows updated list
deactivate Controller
end loop
UI->Controller: Ends operation
activate Controller
Controller - ->UI: informs operation success.
deactivate Controller
UI - -> WE : informs operation success.

@enduml

PlantUML version 1.2021.11(Sat Oct 02 14:26:11 BST 2021)
(GPL source distribution)
Java Runtime: OpenJDK Runtime Environment
JVM: OpenJDK 64-Bit Server VM
Default Encoding: Cp1252
Language: pt
Country: PT
--></g></svg>