<?xml version="1.0" encoding="UTF-8" standalone="no"?><svg xmlns="http://www.w3.org/2000/svg" xmlns:xlink="http://www.w3.org/1999/xlink" contentScriptType="application/ecmascript" contentStyleType="text/css" height="1318px" preserveAspectRatio="none" style="width:942px;height:1318px;background:#FFFFFF;" version="1.1" viewBox="0 0 942 1318" width="942px" zoomAndPan="magnify"><defs><filter height="300%" id="f4e9bp48zbkw9" width="300%" x="-1" y="-1"><feGaussianBlur result="blurOut" stdDeviation="2.0"/><feColorMatrix in="blurOut" result="blurOut2" type="matrix" values="0 0 0 0 0 0 0 0 0 0 0 0 0 0 0 0 0 0 .4 0"/><feOffset dx="4.0" dy="4.0" in="blurOut2" result="blurOut3"/><feBlend in="SourceGraphic" in2="blurOut3" mode="normal"/></filter></defs><g><rect fill="#FFFFFF" filter="url(#f4e9bp48zbkw9)" height="1124.0078" style="stroke:#A80036;stroke-width:1.0;" width="10" x="33.5" y="99.6094"/><rect fill="#FFFFFF" filter="url(#f4e9bp48zbkw9)" height="1101.6563" style="stroke:#A80036;stroke-width:1.0;" width="10" x="371.5" y="121.9609"/><rect fill="#FFFFFF" filter="url(#f4e9bp48zbkw9)" height="1071.3047" style="stroke:#A80036;stroke-width:1.0;" width="10" x="648.5" y="152.3125"/><rect fill="#FFFFFF" filter="url(#f4e9bp48zbkw9)" height="30.3516" style="stroke:#A80036;stroke-width:1.0;" width="10" x="878.5" y="182.6641"/><rect fill="#FFFFFF" filter="url(#f4e9bp48zbkw9)" height="30.3516" style="stroke:#A80036;stroke-width:1.0;" width="10" x="878.5" y="364.7734"/><rect fill="#FFFFFF" filter="url(#f4e9bp48zbkw9)" height="30.3516" style="stroke:#A80036;stroke-width:1.0;" width="10" x="878.5" y="577.2344"/><rect fill="#FFFFFF" filter="url(#f4e9bp48zbkw9)" height="30.3516" style="stroke:#A80036;stroke-width:1.0;" width="10" x="878.5" y="759.3438"/><rect fill="#FFFFFF" filter="url(#f4e9bp48zbkw9)" height="30.3516" style="stroke:#A80036;stroke-width:1.0;" width="10" x="878.5" y="911.1016"/><rect fill="#FFFFFF" filter="url(#f4e9bp48zbkw9)" height="30.3516" style="stroke:#A80036;stroke-width:1.0;" width="10" x="878.5" y="1123.5625"/><line style="stroke:#A80036;stroke-width:1.0;stroke-dasharray:5.0,5.0;" x1="38" x2="38" y1="89.6094" y2="1232.6172"/><line style="stroke:#A80036;stroke-width:1.0;stroke-dasharray:5.0,5.0;" x1="376.5" x2="376.5" y1="89.6094" y2="1232.6172"/><line style="stroke:#A80036;stroke-width:1.0;stroke-dasharray:5.0,5.0;" x1="653.5" x2="653.5" y1="89.6094" y2="1232.6172"/><line style="stroke:#A80036;stroke-width:1.0;stroke-dasharray:5.0,5.0;" x1="883" x2="883" y1="89.6094" y2="1232.6172"/><text fill="#000000" font-family="sans-serif" font-size="14" lengthAdjust="spacing" textLength="61" x="5" y="86.5332">Costumer</text><ellipse cx="38.5" cy="15" fill="#FEFECE" filter="url(#f4e9bp48zbkw9)" rx="8" ry="8" style="stroke:#A80036;stroke-width:2.0;"/><path d="M38.5,23 L38.5,50 M25.5,31 L51.5,31 M38.5,50 L25.5,65 M38.5,50 L51.5,65 " fill="none" filter="url(#f4e9bp48zbkw9)" style="stroke:#A80036;stroke-width:2.0;"/><text fill="#000000" font-family="sans-serif" font-size="14" lengthAdjust="spacing" textLength="61" x="5" y="1246.1504">Costumer</text><ellipse cx="38.5" cy="1259.2266" fill="#FEFECE" filter="url(#f4e9bp48zbkw9)" rx="8" ry="8" style="stroke:#A80036;stroke-width:2.0;"/><path d="M38.5,1267.2266 L38.5,1294.2266 M25.5,1275.2266 L51.5,1275.2266 M38.5,1294.2266 L25.5,1309.2266 M38.5,1294.2266 L51.5,1309.2266 " fill="none" filter="url(#f4e9bp48zbkw9)" style="stroke:#A80036;stroke-width:2.0;"/><rect fill="#FEFECE" filter="url(#f4e9bp48zbkw9)" height="49.2188" style="stroke:#A80036;stroke-width:1.5;" width="204" x="272.5" y="35.3906"/><text fill="#000000" font-family="sans-serif" font-size="14" font-style="italic" lengthAdjust="spacing" textLength="95" x="327" y="56.9238">«presentation»</text><text fill="#000000" font-family="sans-serif" font-size="14" lengthAdjust="spacing" textLength="190" x="279.5" y="74.5332">AddProductToShoppingCartUI</text><rect fill="#FEFECE" filter="url(#f4e9bp48zbkw9)" height="49.2188" style="stroke:#A80036;stroke-width:1.5;" width="204" x="272.5" y="1231.6172"/><text fill="#000000" font-family="sans-serif" font-size="14" font-style="italic" lengthAdjust="spacing" textLength="95" x="327" y="1253.1504">«presentation»</text><text fill="#000000" font-family="sans-serif" font-size="14" lengthAdjust="spacing" textLength="190" x="279.5" y="1270.7598">AddProductToShoppingCartUI</text><rect fill="#FEFECE" filter="url(#f4e9bp48zbkw9)" height="49.2188" style="stroke:#A80036;stroke-width:1.5;" width="254" x="524.5" y="35.3906"/><text fill="#000000" font-family="sans-serif" font-size="14" font-style="italic" lengthAdjust="spacing" textLength="84" x="609.5" y="56.9238">«application»</text><text fill="#000000" font-family="sans-serif" font-size="14" lengthAdjust="spacing" textLength="240" x="531.5" y="74.5332">AddProductToShoppingCartController</text><rect fill="#FEFECE" filter="url(#f4e9bp48zbkw9)" height="49.2188" style="stroke:#A80036;stroke-width:1.5;" width="254" x="524.5" y="1231.6172"/><text fill="#000000" font-family="sans-serif" font-size="14" font-style="italic" lengthAdjust="spacing" textLength="84" x="609.5" y="1253.1504">«application»</text><text fill="#000000" font-family="sans-serif" font-size="14" lengthAdjust="spacing" textLength="240" x="531.5" y="1270.7598">AddProductToShoppingCartController</text><rect fill="#FEFECE" filter="url(#f4e9bp48zbkw9)" height="49.2188" style="stroke:#A80036;stroke-width:1.5;" width="93" x="835" y="35.3906"/><text fill="#000000" font-family="sans-serif" font-size="14" font-style="italic" lengthAdjust="spacing" textLength="57" x="853" y="56.9238">«Server»</text><text fill="#000000" font-family="sans-serif" font-size="14" lengthAdjust="spacing" textLength="79" x="842" y="74.5332">OrderServer</text><rect fill="#FEFECE" filter="url(#f4e9bp48zbkw9)" height="49.2188" style="stroke:#A80036;stroke-width:1.5;" width="93" x="835" y="1231.6172"/><text fill="#000000" font-family="sans-serif" font-size="14" font-style="italic" lengthAdjust="spacing" textLength="57" x="853" y="1253.1504">«Server»</text><text fill="#000000" font-family="sans-serif" font-size="14" lengthAdjust="spacing" textLength="79" x="842" y="1270.7598">OrderServer</text><rect fill="#FFFFFF" filter="url(#f4e9bp48zbkw9)" height="1124.0078" style="stroke:#A80036;stroke-width:1.0;" width="10" x="33.5" y="99.6094"/><rect fill="#FFFFFF" filter="url(#f4e9bp48zbkw9)" height="1101.6563" style="stroke:#A80036;stroke-width:1.0;" width="10" x="371.5" y="121.9609"/><rect fill="#FFFFFF" filter="url(#f4e9bp48zbkw9)" height="1071.3047" style="stroke:#A80036;stroke-width:1.0;" width="10" x="648.5" y="152.3125"/><rect fill="#FFFFFF" filter="url(#f4e9bp48zbkw9)" height="30.3516" style="stroke:#A80036;stroke-width:1.0;" width="10" x="878.5" y="182.6641"/><rect fill="#FFFFFF" filter="url(#f4e9bp48zbkw9)" height="30.3516" style="stroke:#A80036;stroke-width:1.0;" width="10" x="878.5" y="364.7734"/><rect fill="#FFFFFF" filter="url(#f4e9bp48zbkw9)" height="30.3516" style="stroke:#A80036;stroke-width:1.0;" width="10" x="878.5" y="577.2344"/><rect fill="#FFFFFF" filter="url(#f4e9bp48zbkw9)" height="30.3516" style="stroke:#A80036;stroke-width:1.0;" width="10" x="878.5" y="759.3438"/><rect fill="#FFFFFF" filter="url(#f4e9bp48zbkw9)" height="30.3516" style="stroke:#A80036;stroke-width:1.0;" width="10" x="878.5" y="911.1016"/><rect fill="#FFFFFF" filter="url(#f4e9bp48zbkw9)" height="30.3516" style="stroke:#A80036;stroke-width:1.0;" width="10" x="878.5" y="1123.5625"/><polygon fill="#A80036" points="359.5,117.9609,369.5,121.9609,359.5,125.9609,363.5,121.9609" style="stroke:#A80036;stroke-width:1.0;"/><line style="stroke:#A80036;stroke-width:1.0;" x1="43.5" x2="365.5" y1="121.9609" y2="121.9609"/><text fill="#000000" font-family="sans-serif" font-size="13" font-weight="bold" lengthAdjust="spacing" textLength="7" x="50.5" y="117.1045">1</text><text fill="#000000" font-family="sans-serif" font-size="13" lengthAdjust="spacing" textLength="111" x="61.5" y="117.1045">Logs in the system</text><polygon fill="#A80036" points="636.5,148.3125,646.5,152.3125,636.5,156.3125,640.5,152.3125" style="stroke:#A80036;stroke-width:1.0;"/><line style="stroke:#A80036;stroke-width:1.0;" x1="381.5" x2="642.5" y1="152.3125" y2="152.3125"/><text fill="#000000" font-family="sans-serif" font-size="13" font-weight="bold" lengthAdjust="spacing" textLength="7" x="388.5" y="147.4561">2</text><text fill="#000000" font-family="sans-serif" font-size="13" lengthAdjust="spacing" textLength="99" x="399.5" y="147.4561">sends user email</text><polygon fill="#A80036" points="866.5,178.6641,876.5,182.6641,866.5,186.6641,870.5,182.6641" style="stroke:#A80036;stroke-width:1.0;"/><line style="stroke:#A80036;stroke-width:1.0;" x1="658.5" x2="872.5" y1="182.6641" y2="182.6641"/><text fill="#000000" font-family="sans-serif" font-size="13" font-weight="bold" lengthAdjust="spacing" textLength="7" x="665.5" y="177.8076">3</text><text fill="#000000" font-family="sans-serif" font-size="13" lengthAdjust="spacing" textLength="190" x="676.5" y="177.8076">starts communication with server</text><polygon fill="#A80036" points="669.5,209.0156,659.5,213.0156,669.5,217.0156,665.5,213.0156" style="stroke:#A80036;stroke-width:1.0;"/><line style="stroke:#A80036;stroke-width:1.0;stroke-dasharray:2.0,2.0;" x1="663.5" x2="882.5" y1="213.0156" y2="213.0156"/><text fill="#000000" font-family="sans-serif" font-size="13" font-weight="bold" lengthAdjust="spacing" textLength="7" x="675.5" y="208.1592">4</text><text fill="#000000" font-family="sans-serif" font-size="13" lengthAdjust="spacing" textLength="162" x="686.5" y="208.1592">informs connection success</text><polygon fill="#A80036" points="392.5,239.3672,382.5,243.3672,392.5,247.3672,388.5,243.3672" style="stroke:#A80036;stroke-width:1.0;"/><line style="stroke:#A80036;stroke-width:1.0;stroke-dasharray:2.0,2.0;" x1="386.5" x2="647.5" y1="243.3672" y2="243.3672"/><text fill="#000000" font-family="sans-serif" font-size="13" font-weight="bold" lengthAdjust="spacing" textLength="7" x="398.5" y="238.5107">5</text><text fill="#000000" font-family="sans-serif" font-size="13" lengthAdjust="spacing" textLength="95" x="409.5" y="238.5107">informs success</text><polygon fill="#A80036" points="54.5,269.7188,44.5,273.7188,54.5,277.7188,50.5,273.7188" style="stroke:#A80036;stroke-width:1.0;"/><line style="stroke:#A80036;stroke-width:1.0;" x1="48.5" x2="370.5" y1="273.7188" y2="273.7188"/><text fill="#000000" font-family="sans-serif" font-size="13" font-weight="bold" lengthAdjust="spacing" textLength="7" x="60.5" y="268.8623">6</text><text fill="#000000" font-family="sans-serif" font-size="13" lengthAdjust="spacing" textLength="78" x="71.5" y="268.8623">Gives options</text><polygon fill="#A80036" points="359.5,300.0703,369.5,304.0703,359.5,308.0703,363.5,304.0703" style="stroke:#A80036;stroke-width:1.0;"/><line style="stroke:#A80036;stroke-width:1.0;" x1="43.5" x2="365.5" y1="304.0703" y2="304.0703"/><text fill="#000000" font-family="sans-serif" font-size="13" font-weight="bold" lengthAdjust="spacing" textLength="7" x="50.5" y="299.2139">7</text><text fill="#000000" font-family="sans-serif" font-size="13" lengthAdjust="spacing" textLength="74" x="61.5" y="299.2139">inputs option</text><polygon fill="#A80036" points="636.5,330.4219,646.5,334.4219,636.5,338.4219,640.5,334.4219" style="stroke:#A80036;stroke-width:1.0;"/><line style="stroke:#A80036;stroke-width:1.0;" x1="381.5" x2="642.5" y1="334.4219" y2="334.4219"/><text fill="#000000" font-family="sans-serif" font-size="13" font-weight="bold" lengthAdjust="spacing" textLength="7" x="388.5" y="329.5654">8</text><text fill="#000000" font-family="sans-serif" font-size="13" lengthAdjust="spacing" textLength="88" x="399.5" y="329.5654">getCategories()</text><polygon fill="#A80036" points="866.5,360.7734,876.5,364.7734,866.5,368.7734,870.5,364.7734" style="stroke:#A80036;stroke-width:1.0;"/><line style="stroke:#A80036;stroke-width:1.0;" x1="658.5" x2="872.5" y1="364.7734" y2="364.7734"/><text fill="#000000" font-family="sans-serif" font-size="13" font-weight="bold" lengthAdjust="spacing" textLength="7" x="665.5" y="359.917">9</text><text fill="#000000" font-family="sans-serif" font-size="13" lengthAdjust="spacing" textLength="108" x="676.5" y="359.917">handleCategories()</text><polygon fill="#A80036" points="669.5,391.125,659.5,395.125,669.5,399.125,665.5,395.125" style="stroke:#A80036;stroke-width:1.0;"/><line style="stroke:#A80036;stroke-width:1.0;stroke-dasharray:2.0,2.0;" x1="663.5" x2="882.5" y1="395.125" y2="395.125"/><text fill="#000000" font-family="sans-serif" font-size="13" font-weight="bold" lengthAdjust="spacing" textLength="14" x="675.5" y="390.2686">10</text><text fill="#000000" font-family="sans-serif" font-size="13" lengthAdjust="spacing" textLength="104" x="693.5" y="390.2686">returns categories</text><polygon fill="#A80036" points="392.5,421.4766,382.5,425.4766,392.5,429.4766,388.5,425.4766" style="stroke:#A80036;stroke-width:1.0;"/><line style="stroke:#A80036;stroke-width:1.0;stroke-dasharray:2.0,2.0;" x1="386.5" x2="647.5" y1="425.4766" y2="425.4766"/><text fill="#000000" font-family="sans-serif" font-size="13" font-weight="bold" lengthAdjust="spacing" textLength="14" x="398.5" y="420.6201">11</text><text fill="#000000" font-family="sans-serif" font-size="13" lengthAdjust="spacing" textLength="158" x="416.5" y="420.6201">returns String of Categories</text><polygon fill="#A80036" points="54.5,451.8281,44.5,455.8281,54.5,459.8281,50.5,455.8281" style="stroke:#A80036;stroke-width:1.0;"/><line style="stroke:#A80036;stroke-width:1.0;" x1="48.5" x2="370.5" y1="455.8281" y2="455.8281"/><text fill="#000000" font-family="sans-serif" font-size="13" font-weight="bold" lengthAdjust="spacing" textLength="14" x="60.5" y="450.9717">12</text><text fill="#000000" font-family="sans-serif" font-size="13" lengthAdjust="spacing" textLength="207" x="78.5" y="450.9717">splits into list and shows categories</text><polygon fill="#A80036" points="54.5,482.1797,44.5,486.1797,54.5,490.1797,50.5,486.1797" style="stroke:#A80036;stroke-width:1.0;"/><line style="stroke:#A80036;stroke-width:1.0;" x1="48.5" x2="370.5" y1="486.1797" y2="486.1797"/><text fill="#000000" font-family="sans-serif" font-size="13" font-weight="bold" lengthAdjust="spacing" textLength="14" x="60.5" y="481.3232">13</text><text fill="#000000" font-family="sans-serif" font-size="13" lengthAdjust="spacing" textLength="154" x="78.5" y="481.3232">asks for any filter if wanted</text><polygon fill="#A80036" points="359.5,512.5313,369.5,516.5313,359.5,520.5313,363.5,516.5313" style="stroke:#A80036;stroke-width:1.0;"/><line style="stroke:#A80036;stroke-width:1.0;" x1="43.5" x2="365.5" y1="516.5313" y2="516.5313"/><text fill="#000000" font-family="sans-serif" font-size="13" font-weight="bold" lengthAdjust="spacing" textLength="14" x="50.5" y="511.6748">14</text><text fill="#000000" font-family="sans-serif" font-size="13" lengthAdjust="spacing" textLength="63" x="68.5" y="511.6748">inputs filter</text><polygon fill="#A80036" points="636.5,542.8828,646.5,546.8828,636.5,550.8828,640.5,546.8828" style="stroke:#A80036;stroke-width:1.0;"/><line style="stroke:#A80036;stroke-width:1.0;" x1="381.5" x2="642.5" y1="546.8828" y2="546.8828"/><text fill="#000000" font-family="sans-serif" font-size="13" font-weight="bold" lengthAdjust="spacing" textLength="14" x="388.5" y="542.0264">15</text><text fill="#000000" font-family="sans-serif" font-size="13" lengthAdjust="spacing" textLength="121" x="406.5" y="542.0264">getProductsFiltered()</text><polygon fill="#A80036" points="866.5,573.2344,876.5,577.2344,866.5,581.2344,870.5,577.2344" style="stroke:#A80036;stroke-width:1.0;"/><line style="stroke:#A80036;stroke-width:1.0;" x1="658.5" x2="872.5" y1="577.2344" y2="577.2344"/><text fill="#000000" font-family="sans-serif" font-size="13" font-weight="bold" lengthAdjust="spacing" textLength="14" x="665.5" y="572.3779">16</text><text fill="#000000" font-family="sans-serif" font-size="13" lengthAdjust="spacing" textLength="98" x="683.5" y="572.3779">handleProducts()</text><polygon fill="#A80036" points="669.5,603.5859,659.5,607.5859,669.5,611.5859,665.5,607.5859" style="stroke:#A80036;stroke-width:1.0;"/><line style="stroke:#A80036;stroke-width:1.0;stroke-dasharray:2.0,2.0;" x1="663.5" x2="882.5" y1="607.5859" y2="607.5859"/><text fill="#000000" font-family="sans-serif" font-size="13" font-weight="bold" lengthAdjust="spacing" textLength="14" x="675.5" y="602.7295">17</text><text fill="#000000" font-family="sans-serif" font-size="13" lengthAdjust="spacing" textLength="146" x="693.5" y="602.7295">returns string of Products</text><polygon fill="#A80036" points="392.5,633.9375,382.5,637.9375,392.5,641.9375,388.5,637.9375" style="stroke:#A80036;stroke-width:1.0;"/><line style="stroke:#A80036;stroke-width:1.0;stroke-dasharray:2.0,2.0;" x1="386.5" x2="647.5" y1="637.9375" y2="637.9375"/><text fill="#000000" font-family="sans-serif" font-size="13" font-weight="bold" lengthAdjust="spacing" textLength="14" x="398.5" y="633.0811">18</text><text fill="#000000" font-family="sans-serif" font-size="13" lengthAdjust="spacing" textLength="148" x="416.5" y="633.0811">returns String of Products</text><polygon fill="#A80036" points="54.5,664.2891,44.5,668.2891,54.5,672.2891,50.5,668.2891" style="stroke:#A80036;stroke-width:1.0;"/><line style="stroke:#A80036;stroke-width:1.0;" x1="48.5" x2="370.5" y1="668.2891" y2="668.2891"/><text fill="#000000" font-family="sans-serif" font-size="13" font-weight="bold" lengthAdjust="spacing" textLength="14" x="60.5" y="663.4326">19</text><text fill="#000000" font-family="sans-serif" font-size="13" lengthAdjust="spacing" textLength="197" x="78.5" y="663.4326">splits into list and shows products</text><polygon fill="#A80036" points="359.5,694.6406,369.5,698.6406,359.5,702.6406,363.5,698.6406" style="stroke:#A80036;stroke-width:1.0;"/><line style="stroke:#A80036;stroke-width:1.0;" x1="43.5" x2="365.5" y1="698.6406" y2="698.6406"/><text fill="#000000" font-family="sans-serif" font-size="13" font-weight="bold" lengthAdjust="spacing" textLength="14" x="50.5" y="693.7842">20</text><text fill="#000000" font-family="sans-serif" font-size="13" lengthAdjust="spacing" textLength="286" x="68.5" y="693.7842">inputs option to add to shopping cart and quantity</text><polygon fill="#A80036" points="636.5,724.9922,646.5,728.9922,636.5,732.9922,640.5,728.9922" style="stroke:#A80036;stroke-width:1.0;"/><line style="stroke:#A80036;stroke-width:1.0;" x1="381.5" x2="642.5" y1="728.9922" y2="728.9922"/><text fill="#000000" font-family="sans-serif" font-size="13" font-weight="bold" lengthAdjust="spacing" textLength="14" x="388.5" y="724.1357">21</text><text fill="#000000" font-family="sans-serif" font-size="13" lengthAdjust="spacing" textLength="81" x="406.5" y="724.1357">sendProduct()</text><polygon fill="#A80036" points="866.5,755.3438,876.5,759.3438,866.5,763.3438,870.5,759.3438" style="stroke:#A80036;stroke-width:1.0;"/><line style="stroke:#A80036;stroke-width:1.0;" x1="658.5" x2="872.5" y1="759.3438" y2="759.3438"/><text fill="#000000" font-family="sans-serif" font-size="13" font-weight="bold" lengthAdjust="spacing" textLength="14" x="665.5" y="754.4873">22</text><text fill="#000000" font-family="sans-serif" font-size="13" lengthAdjust="spacing" textLength="81" x="683.5" y="754.4873">sendProduct()</text><polygon fill="#A80036" points="669.5,785.6953,659.5,789.6953,669.5,793.6953,665.5,789.6953" style="stroke:#A80036;stroke-width:1.0;"/><line style="stroke:#A80036;stroke-width:1.0;stroke-dasharray:2.0,2.0;" x1="663.5" x2="882.5" y1="789.6953" y2="789.6953"/><text fill="#000000" font-family="sans-serif" font-size="13" font-weight="bold" lengthAdjust="spacing" textLength="14" x="675.5" y="784.8389">23</text><text fill="#000000" font-family="sans-serif" font-size="13" lengthAdjust="spacing" textLength="136" x="693.5" y="784.8389">informs add successfull</text><polygon fill="#A80036" points="392.5,816.0469,382.5,820.0469,392.5,824.0469,388.5,820.0469" style="stroke:#A80036;stroke-width:1.0;"/><line style="stroke:#A80036;stroke-width:1.0;stroke-dasharray:2.0,2.0;" x1="386.5" x2="647.5" y1="820.0469" y2="820.0469"/><text fill="#000000" font-family="sans-serif" font-size="13" font-weight="bold" lengthAdjust="spacing" textLength="14" x="398.5" y="815.1904">24</text><text fill="#000000" font-family="sans-serif" font-size="13" lengthAdjust="spacing" textLength="136" x="416.5" y="815.1904">informs add successfull</text><polygon fill="#A80036" points="54.5,846.3984,44.5,850.3984,54.5,854.3984,50.5,850.3984" style="stroke:#A80036;stroke-width:1.0;"/><line style="stroke:#A80036;stroke-width:1.0;stroke-dasharray:2.0,2.0;" x1="48.5" x2="370.5" y1="850.3984" y2="850.3984"/><text fill="#000000" font-family="sans-serif" font-size="13" font-weight="bold" lengthAdjust="spacing" textLength="14" x="60.5" y="845.542">25</text><text fill="#000000" font-family="sans-serif" font-size="13" lengthAdjust="spacing" textLength="136" x="78.5" y="845.542">informs add successfull</text><polygon fill="#A80036" points="636.5,876.75,646.5,880.75,636.5,884.75,640.5,880.75" style="stroke:#A80036;stroke-width:1.0;"/><line style="stroke:#A80036;stroke-width:1.0;" x1="381.5" x2="642.5" y1="880.75" y2="880.75"/><text fill="#000000" font-family="sans-serif" font-size="13" font-weight="bold" lengthAdjust="spacing" textLength="14" x="388.5" y="875.8936">26</text><text fill="#000000" font-family="sans-serif" font-size="13" lengthAdjust="spacing" textLength="104" x="406.5" y="875.8936">getShoppingCart()</text><polygon fill="#A80036" points="866.5,907.1016,876.5,911.1016,866.5,915.1016,870.5,911.1016" style="stroke:#A80036;stroke-width:1.0;"/><line style="stroke:#A80036;stroke-width:1.0;" x1="658.5" x2="872.5" y1="911.1016" y2="911.1016"/><text fill="#000000" font-family="sans-serif" font-size="13" font-weight="bold" lengthAdjust="spacing" textLength="14" x="665.5" y="906.2451">27</text><text fill="#000000" font-family="sans-serif" font-size="13" lengthAdjust="spacing" textLength="104" x="683.5" y="906.2451">getShoppingCart()</text><polygon fill="#A80036" points="669.5,937.4531,659.5,941.4531,669.5,945.4531,665.5,941.4531" style="stroke:#A80036;stroke-width:1.0;"/><line style="stroke:#A80036;stroke-width:1.0;stroke-dasharray:2.0,2.0;" x1="663.5" x2="882.5" y1="941.4531" y2="941.4531"/><text fill="#000000" font-family="sans-serif" font-size="13" font-weight="bold" lengthAdjust="spacing" textLength="14" x="675.5" y="936.5967">28</text><text fill="#000000" font-family="sans-serif" font-size="13" lengthAdjust="spacing" textLength="126" x="693.5" y="936.5967">returns Shopping Cart</text><polygon fill="#A80036" points="392.5,967.8047,382.5,971.8047,392.5,975.8047,388.5,971.8047" style="stroke:#A80036;stroke-width:1.0;"/><line style="stroke:#A80036;stroke-width:1.0;stroke-dasharray:2.0,2.0;" x1="386.5" x2="647.5" y1="971.8047" y2="971.8047"/><text fill="#000000" font-family="sans-serif" font-size="13" font-weight="bold" lengthAdjust="spacing" textLength="14" x="398.5" y="966.9482">29</text><text fill="#000000" font-family="sans-serif" font-size="13" lengthAdjust="spacing" textLength="225" x="416.5" y="966.9482">returns list of products in shopping cart</text><polygon fill="#A80036" points="54.5,998.1563,44.5,1002.1563,54.5,1006.1563,50.5,1002.1563" style="stroke:#A80036;stroke-width:1.0;"/><line style="stroke:#A80036;stroke-width:1.0;" x1="48.5" x2="370.5" y1="1002.1563" y2="1002.1563"/><text fill="#000000" font-family="sans-serif" font-size="13" font-weight="bold" lengthAdjust="spacing" textLength="14" x="60.5" y="997.2998">30</text><text fill="#000000" font-family="sans-serif" font-size="13" lengthAdjust="spacing" textLength="227" x="78.5" y="997.2998">splits into list and shows shopping Cart</text><polygon fill="#A80036" points="54.5,1028.5078,44.5,1032.5078,54.5,1036.5078,50.5,1032.5078" style="stroke:#A80036;stroke-width:1.0;"/><line style="stroke:#A80036;stroke-width:1.0;" x1="48.5" x2="370.5" y1="1032.5078" y2="1032.5078"/><text fill="#000000" font-family="sans-serif" font-size="13" font-weight="bold" lengthAdjust="spacing" textLength="14" x="60.5" y="1027.6514">31</text><text fill="#000000" font-family="sans-serif" font-size="13" lengthAdjust="spacing" textLength="248" x="78.5" y="1027.6514">asks if costumer wants to remove any item</text><polygon fill="#A80036" points="359.5,1058.8594,369.5,1062.8594,359.5,1066.8594,363.5,1062.8594" style="stroke:#A80036;stroke-width:1.0;"/><line style="stroke:#A80036;stroke-width:1.0;" x1="43.5" x2="365.5" y1="1062.8594" y2="1062.8594"/><text fill="#000000" font-family="sans-serif" font-size="13" font-weight="bold" lengthAdjust="spacing" textLength="14" x="50.5" y="1058.0029">32</text><text fill="#000000" font-family="sans-serif" font-size="13" lengthAdjust="spacing" textLength="74" x="68.5" y="1058.0029">inputs option</text><polygon fill="#A80036" points="636.5,1089.2109,646.5,1093.2109,636.5,1097.2109,640.5,1093.2109" style="stroke:#A80036;stroke-width:1.0;"/><line style="stroke:#A80036;stroke-width:1.0;" x1="381.5" x2="642.5" y1="1093.2109" y2="1093.2109"/><text fill="#000000" font-family="sans-serif" font-size="13" font-weight="bold" lengthAdjust="spacing" textLength="14" x="388.5" y="1088.3545">33</text><text fill="#000000" font-family="sans-serif" font-size="13" lengthAdjust="spacing" textLength="94" x="406.5" y="1088.3545">removeProduct()</text><polygon fill="#A80036" points="866.5,1119.5625,876.5,1123.5625,866.5,1127.5625,870.5,1123.5625" style="stroke:#A80036;stroke-width:1.0;"/><line style="stroke:#A80036;stroke-width:1.0;" x1="658.5" x2="872.5" y1="1123.5625" y2="1123.5625"/><text fill="#000000" font-family="sans-serif" font-size="13" font-weight="bold" lengthAdjust="spacing" textLength="14" x="665.5" y="1118.7061">34</text><text fill="#000000" font-family="sans-serif" font-size="13" lengthAdjust="spacing" textLength="94" x="683.5" y="1118.7061">removeProduct()</text><polygon fill="#A80036" points="669.5,1149.9141,659.5,1153.9141,669.5,1157.9141,665.5,1153.9141" style="stroke:#A80036;stroke-width:1.0;"/><line style="stroke:#A80036;stroke-width:1.0;stroke-dasharray:2.0,2.0;" x1="663.5" x2="882.5" y1="1153.9141" y2="1153.9141"/><text fill="#000000" font-family="sans-serif" font-size="13" font-weight="bold" lengthAdjust="spacing" textLength="14" x="675.5" y="1149.0576">35</text><text fill="#000000" font-family="sans-serif" font-size="13" lengthAdjust="spacing" textLength="159" x="693.5" y="1149.0576">informs removal successfull</text><polygon fill="#A80036" points="392.5,1180.2656,382.5,1184.2656,392.5,1188.2656,388.5,1184.2656" style="stroke:#A80036;stroke-width:1.0;"/><line style="stroke:#A80036;stroke-width:1.0;stroke-dasharray:2.0,2.0;" x1="386.5" x2="647.5" y1="1184.2656" y2="1184.2656"/><text fill="#000000" font-family="sans-serif" font-size="13" font-weight="bold" lengthAdjust="spacing" textLength="14" x="398.5" y="1179.4092">36</text><text fill="#000000" font-family="sans-serif" font-size="13" lengthAdjust="spacing" textLength="159" x="416.5" y="1179.4092">informs removal successfull</text><polygon fill="#A80036" points="54.5,1210.6172,44.5,1214.6172,54.5,1218.6172,50.5,1214.6172" style="stroke:#A80036;stroke-width:1.0;"/><line style="stroke:#A80036;stroke-width:1.0;stroke-dasharray:2.0,2.0;" x1="48.5" x2="370.5" y1="1214.6172" y2="1214.6172"/><text fill="#000000" font-family="sans-serif" font-size="13" font-weight="bold" lengthAdjust="spacing" textLength="14" x="60.5" y="1209.7607">37</text><text fill="#000000" font-family="sans-serif" font-size="13" lengthAdjust="spacing" textLength="159" x="78.5" y="1209.7607">informs removal successfull</text><!--MD5=[b014cac6986745495b8879cb3751b072]
@startuml

autonumber
actor "Costumer" as WE
participant AddProductToShoppingCartUI as UI <<presentation>>
participant AddProductToShoppingCartController as Controller <<application>>
participant OrderServer as ORD <<Server>>

activate WE
WE -> UI : Logs in the system
activate UI
UI -> Controller: sends user email
activate Controller
Controller -> ORD : starts communication with server
activate ORD
ORD- -> Controller : informs connection success
deactivate ORD
Controller - -> UI: informs success
UI-> WE: Gives options
WE-> UI: inputs option
UI-> Controller : getCategories()
Controller -> ORD: handleCategories()
activate ORD
ORD- -> Controller: returns categories
deactivate ORD
Controller - -> UI: returns String of Categories
UI-> WE: splits into list and shows categories
UI-> WE: asks for any filter if wanted
WE->UI: inputs filter
UI-> Controller : getProductsFiltered()
Controller -> ORD : handleProducts()
activate ORD
ORD- -> Controller: returns string of Products
deactivate ORD
Controller - -> UI : returns String of Products 
UI -> WE: splits into list and shows products
WE-> UI: inputs option to add to shopping cart and quantity
UI->Controller: sendProduct()
Controller -> ORD: sendProduct()
activate ORD
ORD- -> Controller: informs add successfull
deactivate ORD
Controller- -> UI: informs add successfull
UI- -> WE: informs add successfull
UI-> Controller: getShoppingCart()
Controller-> ORD: getShoppingCart()
activate ORD
ORD- ->Controller: returns Shopping Cart
deactivate ORD
Controller- -> UI: returns list of products in shopping cart
UI-> WE: splits into list and shows shopping Cart
UI->WE: asks if costumer wants to remove any item 
WE-> UI: inputs option
UI-> Controller: removeProduct()
Controller-> ORD: removeProduct()
activate ORD
ORD- -> Controller: informs removal successfull 
deactivate ORD
Controller - -> UI:informs removal successfull 
UI- -> WE: informs removal successfull 
@enduml

PlantUML version 1.2021.11(Sat Oct 02 14:26:11 BST 2021)
(GPL source distribution)
Java Runtime: OpenJDK Runtime Environment
JVM: OpenJDK 64-Bit Server VM
Default Encoding: Cp1252
Language: pt
Country: PT
--></g></svg>