<?xml version="1.0" encoding="UTF-8" standalone="no"?><svg xmlns="http://www.w3.org/2000/svg" xmlns:xlink="http://www.w3.org/1999/xlink" contentScriptType="application/ecmascript" contentStyleType="text/css" height="931px" preserveAspectRatio="none" style="width:1198px;height:931px;background:#FFFFFF;" version="1.1" viewBox="0 0 1198 931" width="1198px" zoomAndPan="magnify"><defs><filter height="300%" id="f1k3zil3ac2t4d" width="300%" x="-1" y="-1"><feGaussianBlur result="blurOut" stdDeviation="2.0"/><feColorMatrix in="blurOut" result="blurOut2" type="matrix" values="0 0 0 0 0 0 0 0 0 0 0 0 0 0 0 0 0 0 .4 0"/><feOffset dx="4.0" dy="4.0" in="blurOut2" result="blurOut3"/><feBlend in="SourceGraphic" in2="blurOut3" mode="normal"/></filter></defs><g><rect fill="#FFFFFF" filter="url(#f1k3zil3ac2t4d)" height="735.7891" style="stroke:#A80036;stroke-width:1.0;" width="10" x="72.5" y="99.6094"/><rect fill="#FFFFFF" filter="url(#f1k3zil3ac2t4d)" height="664.3828" style="stroke:#A80036;stroke-width:1.0;" width="10" x="460.5" y="171.0156"/><rect fill="#FFFFFF" filter="url(#f1k3zil3ac2t4d)" height="594.6797" style="stroke:#A80036;stroke-width:1.0;" width="10" x="701.5" y="201.3672"/><rect fill="#FFFFFF" filter="url(#f1k3zil3ac2t4d)" height="30" style="stroke:#A80036;stroke-width:1.0;" width="10" x="868.5" y="231.7188"/><rect fill="#FFFFFF" filter="url(#f1k3zil3ac2t4d)" height="30.3516" style="stroke:#A80036;stroke-width:1.0;" width="10" x="999.5" y="292.0703"/><rect fill="#FFFFFF" filter="url(#f1k3zil3ac2t4d)" height="30.3516" style="stroke:#A80036;stroke-width:1.0;" width="10" x="999.5" y="438.8281"/><rect fill="#FFFFFF" filter="url(#f1k3zil3ac2t4d)" height="30.3516" style="stroke:#A80036;stroke-width:1.0;" width="10" x="999.5" y="637.2891"/><rect fill="#FFFFFF" filter="url(#f1k3zil3ac2t4d)" height="30.3516" style="stroke:#A80036;stroke-width:1.0;" width="10" x="999.5" y="735.3438"/><rect fill="#FFFFFF" filter="url(#f1k3zil3ac2t4d)" height="30.3516" style="stroke:#A80036;stroke-width:1.0;" width="10" x="1137" y="352.7734"/><rect fill="#FFFFFF" filter="url(#f1k3zil3ac2t4d)" height="307.8672" style="stroke:#000000;stroke-width:2.0;" width="712.5" x="374" y="398.125"/><line style="stroke:#A80036;stroke-width:1.0;stroke-dasharray:5.0,5.0;" x1="77" x2="77" y1="89.6094" y2="844.3984"/><line style="stroke:#A80036;stroke-width:1.0;stroke-dasharray:5.0,5.0;" x1="465" x2="465" y1="89.6094" y2="844.3984"/><line style="stroke:#A80036;stroke-width:1.0;stroke-dasharray:5.0,5.0;" x1="706" x2="706" y1="89.6094" y2="844.3984"/><line style="stroke:#A80036;stroke-width:1.0;stroke-dasharray:5.0,5.0;" x1="873.5" x2="873.5" y1="89.6094" y2="844.3984"/><line style="stroke:#A80036;stroke-width:1.0;stroke-dasharray:5.0,5.0;" x1="1004.5" x2="1004.5" y1="89.6094" y2="844.3984"/><line style="stroke:#A80036;stroke-width:1.0;stroke-dasharray:5.0,5.0;" x1="1141.5" x2="1141.5" y1="89.6094" y2="844.3984"/><text fill="#000000" font-family="sans-serif" font-size="14" lengthAdjust="spacing" textLength="139" x="5" y="86.5332">Warehouse Employee</text><ellipse cx="77.5" cy="15" fill="#FEFECE" filter="url(#f1k3zil3ac2t4d)" rx="8" ry="8" style="stroke:#A80036;stroke-width:2.0;"/><path d="M77.5,23 L77.5,50 M64.5,31 L90.5,31 M77.5,50 L64.5,65 M77.5,50 L90.5,65 " fill="none" filter="url(#f1k3zil3ac2t4d)" style="stroke:#A80036;stroke-width:2.0;"/><text fill="#000000" font-family="sans-serif" font-size="14" lengthAdjust="spacing" textLength="139" x="5" y="857.9316">Warehouse Employee</text><ellipse cx="77.5" cy="871.0078" fill="#FEFECE" filter="url(#f1k3zil3ac2t4d)" rx="8" ry="8" style="stroke:#A80036;stroke-width:2.0;"/><path d="M77.5,879.0078 L77.5,906.0078 M64.5,887.0078 L90.5,887.0078 M77.5,906.0078 L64.5,921.0078 M77.5,906.0078 L90.5,921.0078 " fill="none" filter="url(#f1k3zil3ac2t4d)" style="stroke:#A80036;stroke-width:2.0;"/><rect fill="#FEFECE" filter="url(#f1k3zil3ac2t4d)" height="49.2188" style="stroke:#A80036;stroke-width:1.5;" width="159" x="384" y="35.3906"/><text fill="#000000" font-family="sans-serif" font-size="14" font-style="italic" lengthAdjust="spacing" textLength="95" x="416" y="56.9238">«presentation»</text><text fill="#000000" font-family="sans-serif" font-size="14" lengthAdjust="spacing" textLength="145" x="391" y="74.5332">PrepareOrderByAGVUI</text><rect fill="#FEFECE" filter="url(#f1k3zil3ac2t4d)" height="49.2188" style="stroke:#A80036;stroke-width:1.5;" width="159" x="384" y="843.3984"/><text fill="#000000" font-family="sans-serif" font-size="14" font-style="italic" lengthAdjust="spacing" textLength="95" x="416" y="864.9316">«presentation»</text><text fill="#000000" font-family="sans-serif" font-size="14" lengthAdjust="spacing" textLength="145" x="391" y="882.541">PrepareOrderByAGVUI</text><rect fill="#FEFECE" filter="url(#f1k3zil3ac2t4d)" height="49.2188" style="stroke:#A80036;stroke-width:1.5;" width="209" x="600" y="35.3906"/><text fill="#000000" font-family="sans-serif" font-size="14" font-style="italic" lengthAdjust="spacing" textLength="84" x="662.5" y="56.9238">«application»</text><text fill="#000000" font-family="sans-serif" font-size="14" lengthAdjust="spacing" textLength="195" x="607" y="74.5332">PrepareOrderByAGVController</text><rect fill="#FEFECE" filter="url(#f1k3zil3ac2t4d)" height="49.2188" style="stroke:#A80036;stroke-width:1.5;" width="209" x="600" y="843.3984"/><text fill="#000000" font-family="sans-serif" font-size="14" font-style="italic" lengthAdjust="spacing" textLength="84" x="662.5" y="864.9316">«application»</text><text fill="#000000" font-family="sans-serif" font-size="14" lengthAdjust="spacing" textLength="195" x="607" y="882.541">PrepareOrderByAGVController</text><rect fill="#FEFECE" filter="url(#f1k3zil3ac2t4d)" height="31.6094" style="stroke:#A80036;stroke-width:1.5;" width="94" x="824.5" y="53"/><text fill="#000000" font-family="sans-serif" font-size="14" lengthAdjust="spacing" textLength="80" x="831.5" y="74.5332">AgvManager</text><rect fill="#FEFECE" filter="url(#f1k3zil3ac2t4d)" height="31.6094" style="stroke:#A80036;stroke-width:1.5;" width="94" x="824.5" y="843.3984"/><text fill="#000000" font-family="sans-serif" font-size="14" lengthAdjust="spacing" textLength="80" x="831.5" y="864.9316">AgvManager</text><rect fill="#FEFECE" filter="url(#f1k3zil3ac2t4d)" height="31.6094" style="stroke:#A80036;stroke-width:1.5;" width="140" x="932.5" y="53"/><text fill="#000000" font-family="sans-serif" font-size="14" lengthAdjust="spacing" textLength="126" x="939.5" y="74.5332">AgvManagerThread</text><rect fill="#FEFECE" filter="url(#f1k3zil3ac2t4d)" height="31.6094" style="stroke:#A80036;stroke-width:1.5;" width="140" x="932.5" y="843.3984"/><text fill="#000000" font-family="sans-serif" font-size="14" lengthAdjust="spacing" textLength="126" x="939.5" y="864.9316">AgvManagerThread</text><text fill="#000000" font-family="sans-serif" font-size="14" font-style="italic" lengthAdjust="spacing" textLength="79" x="1099.5" y="68.9238">«repository»</text><text fill="#000000" font-family="sans-serif" font-size="14" lengthAdjust="spacing" textLength="105" x="1086.5" y="86.5332">OrderRepository</text><path d="M1124,18.3906 C1124,8.3906 1142,8.3906 1142,8.3906 C1142,8.3906 1160,8.3906 1160,18.3906 L1160,44.3906 C1160,54.3906 1142,54.3906 1142,54.3906 C1142,54.3906 1124,54.3906 1124,44.3906 L1124,18.3906 " fill="#FEFECE" filter="url(#f1k3zil3ac2t4d)" style="stroke:#000000;stroke-width:1.5;"/><path d="M1124,18.3906 C1124,28.3906 1142,28.3906 1142,28.3906 C1142,28.3906 1160,28.3906 1160,18.3906 " fill="none" style="stroke:#000000;stroke-width:1.5;"/><text fill="#000000" font-family="sans-serif" font-size="14" font-style="italic" lengthAdjust="spacing" textLength="79" x="1099.5" y="857.9316">«repository»</text><text fill="#000000" font-family="sans-serif" font-size="14" lengthAdjust="spacing" textLength="105" x="1086.5" y="875.541">OrderRepository</text><path d="M1124,888.6172 C1124,878.6172 1142,878.6172 1142,878.6172 C1142,878.6172 1160,878.6172 1160,888.6172 L1160,914.6172 C1160,924.6172 1142,924.6172 1142,924.6172 C1142,924.6172 1124,924.6172 1124,914.6172 L1124,888.6172 " fill="#FEFECE" filter="url(#f1k3zil3ac2t4d)" style="stroke:#000000;stroke-width:1.5;"/><path d="M1124,888.6172 C1124,898.6172 1142,898.6172 1142,898.6172 C1142,898.6172 1160,898.6172 1160,888.6172 " fill="none" style="stroke:#000000;stroke-width:1.5;"/><rect fill="#FFFFFF" filter="url(#f1k3zil3ac2t4d)" height="735.7891" style="stroke:#A80036;stroke-width:1.0;" width="10" x="72.5" y="99.6094"/><rect fill="#FFFFFF" filter="url(#f1k3zil3ac2t4d)" height="664.3828" style="stroke:#A80036;stroke-width:1.0;" width="10" x="460.5" y="171.0156"/><rect fill="#FFFFFF" filter="url(#f1k3zil3ac2t4d)" height="594.6797" style="stroke:#A80036;stroke-width:1.0;" width="10" x="701.5" y="201.3672"/><rect fill="#FFFFFF" filter="url(#f1k3zil3ac2t4d)" height="30" style="stroke:#A80036;stroke-width:1.0;" width="10" x="868.5" y="231.7188"/><rect fill="#FFFFFF" filter="url(#f1k3zil3ac2t4d)" height="30.3516" style="stroke:#A80036;stroke-width:1.0;" width="10" x="999.5" y="292.0703"/><rect fill="#FFFFFF" filter="url(#f1k3zil3ac2t4d)" height="30.3516" style="stroke:#A80036;stroke-width:1.0;" width="10" x="999.5" y="438.8281"/><rect fill="#FFFFFF" filter="url(#f1k3zil3ac2t4d)" height="30.3516" style="stroke:#A80036;stroke-width:1.0;" width="10" x="999.5" y="637.2891"/><rect fill="#FFFFFF" filter="url(#f1k3zil3ac2t4d)" height="30.3516" style="stroke:#A80036;stroke-width:1.0;" width="10" x="999.5" y="735.3438"/><rect fill="#FFFFFF" filter="url(#f1k3zil3ac2t4d)" height="30.3516" style="stroke:#A80036;stroke-width:1.0;" width="10" x="1137" y="352.7734"/><polygon fill="#A80036" points="448.5,167.0156,458.5,171.0156,448.5,175.0156,452.5,171.0156" style="stroke:#A80036;stroke-width:1.0;"/><line style="stroke:#A80036;stroke-width:1.0;" x1="82.5" x2="454.5" y1="171.0156" y2="171.0156"/><text fill="#000000" font-family="sans-serif" font-size="13" font-weight="bold" lengthAdjust="spacing" textLength="7" x="89.5" y="141.6318">1</text><text fill="#000000" font-family="sans-serif" font-size="13" lengthAdjust="spacing" textLength="265" x="100.5" y="117.1045">Starts the process to access the list of orders</text><text fill="#000000" font-family="sans-serif" font-size="13" lengthAdjust="spacing" textLength="280" x="100.5" y="133.4561">that need to be prepared by an AGV and be able</text><text fill="#000000" font-family="sans-serif" font-size="13" lengthAdjust="spacing" textLength="344" x="104.5" y="149.8076">to ask/force any of those orders to be immediately prepared</text><text fill="#000000" font-family="sans-serif" font-size="13" lengthAdjust="spacing" textLength="121" x="104.5" y="166.1592">by an AGV available.</text><polygon fill="#A80036" points="689.5,197.3672,699.5,201.3672,689.5,205.3672,693.5,201.3672" style="stroke:#A80036;stroke-width:1.0;"/><line style="stroke:#A80036;stroke-width:1.0;" x1="470.5" x2="695.5" y1="201.3672" y2="201.3672"/><text fill="#000000" font-family="sans-serif" font-size="13" font-weight="bold" lengthAdjust="spacing" textLength="7" x="477.5" y="196.5107">2</text><text fill="#000000" font-family="sans-serif" font-size="13" lengthAdjust="spacing" textLength="36" x="488.5" y="196.5107">create</text><polygon fill="#A80036" points="856.5,227.7188,866.5,231.7188,856.5,235.7188,860.5,231.7188" style="stroke:#A80036;stroke-width:1.0;"/><line style="stroke:#A80036;stroke-width:1.0;" x1="711.5" x2="862.5" y1="231.7188" y2="231.7188"/><text fill="#000000" font-family="sans-serif" font-size="13" font-weight="bold" lengthAdjust="spacing" textLength="7" x="718.5" y="226.8623">3</text><text fill="#000000" font-family="sans-serif" font-size="13" lengthAdjust="spacing" textLength="127" x="729.5" y="226.8623">Starts communication</text><polygon fill="#A80036" points="987.5,288.0703,997.5,292.0703,987.5,296.0703,991.5,292.0703" style="stroke:#A80036;stroke-width:1.0;"/><line style="stroke:#A80036;stroke-width:1.0;" x1="711.5" x2="993.5" y1="292.0703" y2="292.0703"/><text fill="#000000" font-family="sans-serif" font-size="13" font-weight="bold" lengthAdjust="spacing" textLength="7" x="718.5" y="287.2139">4</text><text fill="#000000" font-family="sans-serif" font-size="13" lengthAdjust="spacing" textLength="160" x="729.5" y="287.2139">Sends commtest message.</text><polygon fill="#A80036" points="722.5,318.4219,712.5,322.4219,722.5,326.4219,718.5,322.4219" style="stroke:#A80036;stroke-width:1.0;"/><line style="stroke:#A80036;stroke-width:1.0;stroke-dasharray:2.0,2.0;" x1="716.5" x2="1003.5" y1="322.4219" y2="322.4219"/><text fill="#000000" font-family="sans-serif" font-size="13" font-weight="bold" lengthAdjust="spacing" textLength="7" x="728.5" y="317.5654">5</text><text fill="#000000" font-family="sans-serif" font-size="13" lengthAdjust="spacing" textLength="181" x="739.5" y="317.5654">Acknowledge message is sent.</text><polygon fill="#A80036" points="1125,348.7734,1135,352.7734,1125,356.7734,1129,352.7734" style="stroke:#A80036;stroke-width:1.0;"/><line style="stroke:#A80036;stroke-width:1.0;" x1="711.5" x2="1131" y1="352.7734" y2="352.7734"/><text fill="#000000" font-family="sans-serif" font-size="13" font-weight="bold" lengthAdjust="spacing" textLength="7" x="718.5" y="347.917">6</text><text fill="#000000" font-family="sans-serif" font-size="13" lengthAdjust="spacing" textLength="36" x="729.5" y="347.917">orders</text><polygon fill="#A80036" points="722.5,379.125,712.5,383.125,722.5,387.125,718.5,383.125" style="stroke:#A80036;stroke-width:1.0;"/><line style="stroke:#A80036;stroke-width:1.0;stroke-dasharray:2.0,2.0;" x1="716.5" x2="1141" y1="383.125" y2="383.125"/><text fill="#000000" font-family="sans-serif" font-size="13" font-weight="bold" lengthAdjust="spacing" textLength="7" x="728.5" y="378.2686">7</text><text fill="#000000" font-family="sans-serif" font-size="13" lengthAdjust="spacing" textLength="36" x="739.5" y="378.2686">orders</text><path d="M374,398.125 L447,398.125 L447,406.125 L437,416.125 L374,416.125 L374,398.125 " fill="#EEEEEE" style="stroke:#000000;stroke-width:1.0;"/><rect fill="none" height="307.8672" style="stroke:#000000;stroke-width:2.0;" width="712.5" x="374" y="398.125"/><text fill="#000000" font-family="sans-serif" font-size="13" font-weight="bold" lengthAdjust="spacing" textLength="28" x="389" y="412.6201">loop</text><text fill="#000000" font-family="sans-serif" font-size="11" font-weight="bold" lengthAdjust="spacing" textLength="407" x="462" y="411.5439">[this can be done for as many orders as the warehouse employee needs]</text><polygon fill="#A80036" points="987.5,434.8281,997.5,438.8281,987.5,442.8281,991.5,438.8281" style="stroke:#A80036;stroke-width:1.0;"/><line style="stroke:#A80036;stroke-width:1.0;" x1="711.5" x2="993.5" y1="438.8281" y2="438.8281"/><text fill="#000000" font-family="sans-serif" font-size="13" font-weight="bold" lengthAdjust="spacing" textLength="7" x="718.5" y="433.9717">8</text><text fill="#000000" font-family="sans-serif" font-size="13" lengthAdjust="spacing" textLength="167" x="729.5" y="433.9717">Send message to get AGVs.</text><polygon fill="#A80036" points="722.5,465.1797,712.5,469.1797,722.5,473.1797,718.5,469.1797" style="stroke:#A80036;stroke-width:1.0;"/><line style="stroke:#A80036;stroke-width:1.0;stroke-dasharray:2.0,2.0;" x1="716.5" x2="1003.5" y1="469.1797" y2="469.1797"/><text fill="#000000" font-family="sans-serif" font-size="13" font-weight="bold" lengthAdjust="spacing" textLength="7" x="728.5" y="464.3232">9</text><text fill="#000000" font-family="sans-serif" font-size="13" lengthAdjust="spacing" textLength="58" x="739.5" y="464.3232">All AGVs.</text><polygon fill="#A80036" points="481.5,511.8828,471.5,515.8828,481.5,519.8828,477.5,515.8828" style="stroke:#A80036;stroke-width:1.0;"/><line style="stroke:#A80036;stroke-width:1.0;stroke-dasharray:2.0,2.0;" x1="475.5" x2="700.5" y1="515.8828" y2="515.8828"/><text fill="#000000" font-family="sans-serif" font-size="13" font-weight="bold" lengthAdjust="spacing" textLength="14" x="487.5" y="502.8506">10</text><text fill="#000000" font-family="sans-serif" font-size="13" lengthAdjust="spacing" textLength="162" x="505.5" y="494.6748">Shows the Orders that need</text><text fill="#000000" font-family="sans-serif" font-size="13" lengthAdjust="spacing" textLength="185" x="509.5" y="511.0264">to be prepared ands asks for ID.</text><polygon fill="#A80036" points="689.5,542.2344,699.5,546.2344,689.5,550.2344,693.5,546.2344" style="stroke:#A80036;stroke-width:1.0;"/><line style="stroke:#A80036;stroke-width:1.0;" x1="470.5" x2="695.5" y1="546.2344" y2="546.2344"/><text fill="#000000" font-family="sans-serif" font-size="13" font-weight="bold" lengthAdjust="spacing" textLength="14" x="477.5" y="541.3779">11</text><text fill="#000000" font-family="sans-serif" font-size="13" lengthAdjust="spacing" textLength="127" x="495.5" y="541.3779">Inputs ID of the Order.</text><polygon fill="#A80036" points="481.5,572.5859,471.5,576.5859,481.5,580.5859,477.5,576.5859" style="stroke:#A80036;stroke-width:1.0;"/><line style="stroke:#A80036;stroke-width:1.0;stroke-dasharray:2.0,2.0;" x1="475.5" x2="700.5" y1="576.5859" y2="576.5859"/><text fill="#000000" font-family="sans-serif" font-size="13" font-weight="bold" lengthAdjust="spacing" textLength="14" x="487.5" y="571.7295">12</text><text fill="#000000" font-family="sans-serif" font-size="13" lengthAdjust="spacing" textLength="188" x="505.5" y="571.7295">Shows the AGV and asks for ID.</text><polygon fill="#A80036" points="689.5,602.9375,699.5,606.9375,689.5,610.9375,693.5,606.9375" style="stroke:#A80036;stroke-width:1.0;"/><line style="stroke:#A80036;stroke-width:1.0;" x1="470.5" x2="695.5" y1="606.9375" y2="606.9375"/><text fill="#000000" font-family="sans-serif" font-size="13" font-weight="bold" lengthAdjust="spacing" textLength="14" x="477.5" y="602.0811">13</text><text fill="#000000" font-family="sans-serif" font-size="13" lengthAdjust="spacing" textLength="123" x="495.5" y="602.0811">Inputs ID of the AGV.</text><polygon fill="#A80036" points="987.5,633.2891,997.5,637.2891,987.5,641.2891,991.5,637.2891" style="stroke:#A80036;stroke-width:1.0;"/><line style="stroke:#A80036;stroke-width:1.0;" x1="711.5" x2="993.5" y1="637.2891" y2="637.2891"/><text fill="#000000" font-family="sans-serif" font-size="13" font-weight="bold" lengthAdjust="spacing" textLength="14" x="718.5" y="632.4326">14</text><text fill="#000000" font-family="sans-serif" font-size="13" lengthAdjust="spacing" textLength="158" x="736.5" y="632.4326">Send taskassign message.</text><polygon fill="#A80036" points="722.5,663.6406,712.5,667.6406,722.5,671.6406,718.5,667.6406" style="stroke:#A80036;stroke-width:1.0;"/><line style="stroke:#A80036;stroke-width:1.0;stroke-dasharray:2.0,2.0;" x1="716.5" x2="1003.5" y1="667.6406" y2="667.6406"/><text fill="#000000" font-family="sans-serif" font-size="13" font-weight="bold" lengthAdjust="spacing" textLength="14" x="728.5" y="662.7842">15</text><text fill="#000000" font-family="sans-serif" font-size="13" lengthAdjust="spacing" textLength="204" x="746.5" y="662.7842">Acknowledge message is retrieved.</text><polygon fill="#A80036" points="481.5,693.9922,471.5,697.9922,481.5,701.9922,477.5,697.9922" style="stroke:#A80036;stroke-width:1.0;"/><line style="stroke:#A80036;stroke-width:1.0;stroke-dasharray:2.0,2.0;" x1="475.5" x2="700.5" y1="697.9922" y2="697.9922"/><text fill="#000000" font-family="sans-serif" font-size="13" font-weight="bold" lengthAdjust="spacing" textLength="14" x="487.5" y="693.1357">16</text><text fill="#000000" font-family="sans-serif" font-size="13" lengthAdjust="spacing" textLength="148" x="505.5" y="693.1357">Success of the operation.</text><polygon fill="#A80036" points="987.5,731.3438,997.5,735.3438,987.5,739.3438,991.5,735.3438" style="stroke:#A80036;stroke-width:1.0;"/><line style="stroke:#A80036;stroke-width:1.0;" x1="711.5" x2="993.5" y1="735.3438" y2="735.3438"/><text fill="#000000" font-family="sans-serif" font-size="13" font-weight="bold" lengthAdjust="spacing" textLength="14" x="718.5" y="730.4873">17</text><text fill="#000000" font-family="sans-serif" font-size="13" lengthAdjust="spacing" textLength="147" x="736.5" y="730.4873">Sends disconn message.</text><polygon fill="#A80036" points="722.5,761.6953,712.5,765.6953,722.5,769.6953,718.5,765.6953" style="stroke:#A80036;stroke-width:1.0;"/><line style="stroke:#A80036;stroke-width:1.0;stroke-dasharray:2.0,2.0;" x1="716.5" x2="1003.5" y1="765.6953" y2="765.6953"/><text fill="#000000" font-family="sans-serif" font-size="13" font-weight="bold" lengthAdjust="spacing" textLength="14" x="728.5" y="760.8389">18</text><text fill="#000000" font-family="sans-serif" font-size="13" lengthAdjust="spacing" textLength="181" x="746.5" y="760.8389">Acknowledge message is sent.</text><polygon fill="#A80036" points="481.5,792.0469,471.5,796.0469,481.5,800.0469,477.5,796.0469" style="stroke:#A80036;stroke-width:1.0;"/><line style="stroke:#A80036;stroke-width:1.0;stroke-dasharray:2.0,2.0;" x1="475.5" x2="705.5" y1="796.0469" y2="796.0469"/><text fill="#000000" font-family="sans-serif" font-size="13" font-weight="bold" lengthAdjust="spacing" textLength="14" x="487.5" y="791.1904">19</text><text fill="#000000" font-family="sans-serif" font-size="13" lengthAdjust="spacing" textLength="55" x="505.5" y="791.1904">Success.</text><polygon fill="#A80036" points="93.5,822.3984,83.5,826.3984,93.5,830.3984,89.5,826.3984" style="stroke:#A80036;stroke-width:1.0;"/><line style="stroke:#A80036;stroke-width:1.0;" x1="87.5" x2="459.5" y1="826.3984" y2="826.3984"/><text fill="#000000" font-family="sans-serif" font-size="13" font-weight="bold" lengthAdjust="spacing" textLength="14" x="99.5" y="821.542">20</text><text fill="#000000" font-family="sans-serif" font-size="13" lengthAdjust="spacing" textLength="55" x="117.5" y="821.542">Success.</text><!--MD5=[24af44d0851240ac33186323d91ef989]
@startuml

autonumber
actor "Warehouse Employee" as WE
participant PrepareOrderByAGVUI as UI <<presentation>>
participant PrepareOrderByAGVController as Controller <<application>>
participant AgvManager as AM
participant AgvManagerThread as AMT
database OrderRepository as Repository <<repository>>

activate WE
WE -> UI : Starts the process to access the list of orders \nthat need to be prepared by an AGV and be able\n to ask/force any of those orders to be immediately prepared\n by an AGV available.
activate UI
UI -> Controller: create
activate Controller
Controller -> AM : Starts communication
activate AM
deactivate AM
Controller -> AMT : Sends commtest message.
activate AMT
AMT - -> Controller : Acknowledge message is sent.
deactivate AMT
Controller -> Repository : orders
activate Repository
Repository - -> Controller : orders
deactivate Repository
loop this can be done for as many orders as the warehouse employee needs
Controller -> AMT : Send message to get AGVs.
activate AMT
AMT - -> Controller : All AGVs.
deactivate AMT
Controller - -> UI : Shows the Orders that need\n to be prepared ands asks for ID.
UI -> Controller : Inputs ID of the Order.
Controller - -> UI : Shows the AGV and asks for ID.
UI -> Controller : Inputs ID of the AGV.
Controller -> AMT : Send taskassign message.
activate AMT
AMT - -> Controller : Acknowledge message is retrieved.
deactivate AMT
Controller - -> UI : Success of the operation.
end loop
Controller -> AMT : Sends disconn message.
activate AMT
AMT - -> Controller : Acknowledge message is sent.
deactivate AMT
Controller - -> UI : Success.
deactivate Controller
UI -> WE : Success.

@enduml

PlantUML version 1.2021.11(Sat Oct 02 14:26:11 BST 2021)
(GPL source distribution)
Java Runtime: OpenJDK Runtime Environment
JVM: OpenJDK 64-Bit Server VM
Default Encoding: Cp1252
Language: pt
Country: PT
--></g></svg>