<?xml version="1.0" encoding="UTF-8" standalone="no"?><svg xmlns="http://www.w3.org/2000/svg" xmlns:xlink="http://www.w3.org/1999/xlink" contentScriptType="application/ecmascript" contentStyleType="text/css" height="1378px" preserveAspectRatio="none" style="width:1875px;height:1378px;background:#FFFFFF;" version="1.1" viewBox="0 0 1875 1378" width="1875px" zoomAndPan="magnify"><defs><filter height="300%" id="fqna7sk7owz0u" width="300%" x="-1" y="-1"><feGaussianBlur result="blurOut" stdDeviation="2.0"/><feColorMatrix in="blurOut" result="blurOut2" type="matrix" values="0 0 0 0 0 0 0 0 0 0 0 0 0 0 0 0 0 0 .4 0"/><feOffset dx="4.0" dy="4.0" in="blurOut2" result="blurOut3"/><feBlend in="SourceGraphic" in2="blurOut3" mode="normal"/></filter></defs><g><rect fill="#FFFFFF" filter="url(#fqna7sk7owz0u)" height="1184.6172" style="stroke:#A80036;stroke-width:1.0;" width="10" x="274.5" y="99.6094"/><rect fill="#FFFFFF" filter="url(#fqna7sk7owz0u)" height="1072.8594" style="stroke:#A80036;stroke-width:1.0;" width="10" x="722.5" y="211.3672"/><rect fill="#FFFFFF" filter="url(#fqna7sk7owz0u)" height="178.0156" style="stroke:#A80036;stroke-width:1.0;" width="10" x="918.5" y="241.7188"/><rect fill="#FFFFFF" filter="url(#fqna7sk7owz0u)" height="30" style="stroke:#A80036;stroke-width:1.0;" width="10" x="918.5" y="450.0859"/><rect fill="#FFFFFF" filter="url(#fqna7sk7owz0u)" height="91.0547" style="stroke:#A80036;stroke-width:1.0;" width="10" x="918.5" y="510.4375"/><rect fill="#FFFFFF" filter="url(#fqna7sk7owz0u)" height="121.4063" style="stroke:#A80036;stroke-width:1.0;" width="10" x="918.5" y="672.1953"/><rect fill="#FFFFFF" filter="url(#fqna7sk7owz0u)" height="271.1641" style="stroke:#A80036;stroke-width:1.0;" width="10" x="918.5" y="926.3594"/><rect fill="#FFFFFF" filter="url(#fqna7sk7owz0u)" height="30.3516" style="stroke:#A80036;stroke-width:1.0;" width="10" x="1085.5" y="272.0703"/><rect fill="#FFFFFF" filter="url(#fqna7sk7owz0u)" height="971.8047" style="stroke:#A80036;stroke-width:1.0;" width="10" x="1312.5" y="312.4219"/><rect fill="#FFFFFF" filter="url(#fqna7sk7owz0u)" height="30.3516" style="stroke:#A80036;stroke-width:1.0;" width="10" x="1475" y="571.1406"/><rect fill="#FFFFFF" filter="url(#fqna7sk7owz0u)" height="30.3516" style="stroke:#A80036;stroke-width:1.0;" width="10" x="1624" y="732.8984"/><rect fill="#FFFFFF" filter="url(#fqna7sk7owz0u)" height="30.3516" style="stroke:#A80036;stroke-width:1.0;" width="10" x="1624" y="987.0625"/><rect fill="#FFFFFF" filter="url(#fqna7sk7owz0u)" height="87.0547" style="stroke:#A80036;stroke-width:1.0;" width="10" x="1767" y="1073.1172"/><rect fill="#FFFFFF" filter="url(#fqna7sk7owz0u)" height="380.5703" style="stroke:#000000;stroke-width:2.0;" width="1625.5" x="236" y="855.3047"/><rect fill="#FFFFFF" filter="url(#fqna7sk7owz0u)" height="135.7578" style="stroke:#000000;stroke-width:2.0;" width="800.5" x="1051" y="1032.4141"/><line style="stroke:#A80036;stroke-width:1.0;stroke-dasharray:5.0,5.0;" x1="279" x2="279" y1="89.6094" y2="1293.2266"/><line style="stroke:#A80036;stroke-width:1.0;stroke-dasharray:5.0,5.0;" x1="727.5" x2="727.5" y1="89.6094" y2="1293.2266"/><line style="stroke:#A80036;stroke-width:1.0;stroke-dasharray:5.0,5.0;" x1="923" x2="923" y1="89.6094" y2="1293.2266"/><line style="stroke:#A80036;stroke-width:1.0;stroke-dasharray:5.0,5.0;" x1="1090.5" x2="1090.5" y1="89.6094" y2="1293.2266"/><line style="stroke:#A80036;stroke-width:1.0;stroke-dasharray:5.0,5.0;" x1="1317.5" x2="1317.5" y1="313.375" y2="1293.2266"/><line style="stroke:#A80036;stroke-width:1.0;stroke-dasharray:5.0,5.0;" x1="1479.5" x2="1479.5" y1="89.6094" y2="1293.2266"/><line style="stroke:#A80036;stroke-width:1.0;stroke-dasharray:5.0,5.0;" x1="1628.5" x2="1628.5" y1="89.6094" y2="1293.2266"/><line style="stroke:#A80036;stroke-width:1.0;stroke-dasharray:5.0,5.0;" x1="1771.5" x2="1771.5" y1="89.6094" y2="1293.2266"/><text fill="#000000" font-family="sans-serif" font-size="14" lengthAdjust="spacing" textLength="61" x="246" y="86.5332">Customer</text><ellipse cx="279.5" cy="15" fill="#FEFECE" filter="url(#fqna7sk7owz0u)" rx="8" ry="8" style="stroke:#A80036;stroke-width:2.0;"/><path d="M279.5,23 L279.5,50 M266.5,31 L292.5,31 M279.5,50 L266.5,65 M279.5,50 L292.5,65 " fill="none" filter="url(#fqna7sk7owz0u)" style="stroke:#A80036;stroke-width:2.0;"/><text fill="#000000" font-family="sans-serif" font-size="14" lengthAdjust="spacing" textLength="61" x="246" y="1306.7598">Customer</text><ellipse cx="279.5" cy="1319.8359" fill="#FEFECE" filter="url(#fqna7sk7owz0u)" rx="8" ry="8" style="stroke:#A80036;stroke-width:2.0;"/><path d="M279.5,1327.8359 L279.5,1354.8359 M266.5,1335.8359 L292.5,1335.8359 M279.5,1354.8359 L266.5,1369.8359 M279.5,1354.8359 L292.5,1369.8359 " fill="none" filter="url(#fqna7sk7owz0u)" style="stroke:#A80036;stroke-width:2.0;"/><rect fill="#FEFECE" filter="url(#fqna7sk7owz0u)" height="31.6094" style="stroke:#A80036;stroke-width:1.5;" width="114" x="668.5" y="53"/><text fill="#000000" font-family="sans-serif" font-size="14" lengthAdjust="spacing" textLength="100" x="675.5" y="74.5332">:CheckOrdersUI</text><rect fill="#FEFECE" filter="url(#fqna7sk7owz0u)" height="31.6094" style="stroke:#A80036;stroke-width:1.5;" width="114" x="668.5" y="1292.2266"/><text fill="#000000" font-family="sans-serif" font-size="14" lengthAdjust="spacing" textLength="100" x="675.5" y="1313.7598">:CheckOrdersUI</text><rect fill="#FEFECE" filter="url(#fqna7sk7owz0u)" height="31.6094" style="stroke:#A80036;stroke-width:1.5;" width="153" x="845" y="53"/><text fill="#000000" font-family="sans-serif" font-size="14" lengthAdjust="spacing" textLength="139" x="852" y="74.5332">:ClientOrderController</text><rect fill="#FEFECE" filter="url(#fqna7sk7owz0u)" height="31.6094" style="stroke:#A80036;stroke-width:1.5;" width="153" x="845" y="1292.2266"/><text fill="#000000" font-family="sans-serif" font-size="14" lengthAdjust="spacing" textLength="139" x="852" y="1313.7598">:ClientOrderController</text><rect fill="#FEFECE" filter="url(#fqna7sk7owz0u)" height="31.6094" style="stroke:#A80036;stroke-width:1.5;" width="104" x="1036.5" y="53"/><text fill="#000000" font-family="sans-serif" font-size="14" lengthAdjust="spacing" textLength="90" x="1043.5" y="74.5332">:OrdersServer</text><rect fill="#FEFECE" filter="url(#fqna7sk7owz0u)" height="31.6094" style="stroke:#A80036;stroke-width:1.5;" width="104" x="1036.5" y="1292.2266"/><text fill="#000000" font-family="sans-serif" font-size="14" lengthAdjust="spacing" textLength="90" x="1043.5" y="1313.7598">:OrdersServer</text><rect fill="#FEFECE" filter="url(#fqna7sk7owz0u)" height="31.6094" style="stroke:#A80036;stroke-width:1.5;" width="150" x="1240.5" y="1292.2266"/><text fill="#000000" font-family="sans-serif" font-size="14" lengthAdjust="spacing" textLength="136" x="1247.5" y="1313.7598">:OrdersServerThread</text><rect fill="#FEFECE" filter="url(#fqna7sk7owz0u)" height="31.6094" style="stroke:#A80036;stroke-width:1.5;" width="147" x="1404.5" y="53"/><text fill="#000000" font-family="sans-serif" font-size="14" lengthAdjust="spacing" textLength="133" x="1411.5" y="74.5332">:CustomerRepository</text><rect fill="#FEFECE" filter="url(#fqna7sk7owz0u)" height="31.6094" style="stroke:#A80036;stroke-width:1.5;" width="147" x="1404.5" y="1292.2266"/><text fill="#000000" font-family="sans-serif" font-size="14" lengthAdjust="spacing" textLength="133" x="1411.5" y="1313.7598">:CustomerRepository</text><rect fill="#FEFECE" filter="url(#fqna7sk7owz0u)" height="31.6094" style="stroke:#A80036;stroke-width:1.5;" width="123" x="1565.5" y="53"/><text fill="#000000" font-family="sans-serif" font-size="14" lengthAdjust="spacing" textLength="109" x="1572.5" y="74.5332">:OrderRepository</text><rect fill="#FEFECE" filter="url(#fqna7sk7owz0u)" height="31.6094" style="stroke:#A80036;stroke-width:1.5;" width="123" x="1565.5" y="1292.2266"/><text fill="#000000" font-family="sans-serif" font-size="14" lengthAdjust="spacing" textLength="109" x="1572.5" y="1313.7598">:OrderRepository</text><rect fill="#FEFECE" filter="url(#fqna7sk7owz0u)" height="31.6094" style="stroke:#A80036;stroke-width:1.5;" width="135" x="1702.5" y="53"/><text fill="#000000" font-family="sans-serif" font-size="14" lengthAdjust="spacing" textLength="121" x="1709.5" y="74.5332">:ProductRepository</text><rect fill="#FEFECE" filter="url(#fqna7sk7owz0u)" height="31.6094" style="stroke:#A80036;stroke-width:1.5;" width="135" x="1702.5" y="1292.2266"/><text fill="#000000" font-family="sans-serif" font-size="14" lengthAdjust="spacing" textLength="121" x="1709.5" y="1313.7598">:ProductRepository</text><rect fill="#FFFFFF" filter="url(#fqna7sk7owz0u)" height="1184.6172" style="stroke:#A80036;stroke-width:1.0;" width="10" x="274.5" y="99.6094"/><rect fill="#FFFFFF" filter="url(#fqna7sk7owz0u)" height="1072.8594" style="stroke:#A80036;stroke-width:1.0;" width="10" x="722.5" y="211.3672"/><rect fill="#FFFFFF" filter="url(#fqna7sk7owz0u)" height="178.0156" style="stroke:#A80036;stroke-width:1.0;" width="10" x="918.5" y="241.7188"/><rect fill="#FFFFFF" filter="url(#fqna7sk7owz0u)" height="30" style="stroke:#A80036;stroke-width:1.0;" width="10" x="918.5" y="450.0859"/><rect fill="#FFFFFF" filter="url(#fqna7sk7owz0u)" height="91.0547" style="stroke:#A80036;stroke-width:1.0;" width="10" x="918.5" y="510.4375"/><rect fill="#FFFFFF" filter="url(#fqna7sk7owz0u)" height="121.4063" style="stroke:#A80036;stroke-width:1.0;" width="10" x="918.5" y="672.1953"/><rect fill="#FFFFFF" filter="url(#fqna7sk7owz0u)" height="271.1641" style="stroke:#A80036;stroke-width:1.0;" width="10" x="918.5" y="926.3594"/><rect fill="#FFFFFF" filter="url(#fqna7sk7owz0u)" height="30.3516" style="stroke:#A80036;stroke-width:1.0;" width="10" x="1085.5" y="272.0703"/><rect fill="#FFFFFF" filter="url(#fqna7sk7owz0u)" height="971.8047" style="stroke:#A80036;stroke-width:1.0;" width="10" x="1312.5" y="312.4219"/><rect fill="#FFFFFF" filter="url(#fqna7sk7owz0u)" height="30.3516" style="stroke:#A80036;stroke-width:1.0;" width="10" x="1475" y="571.1406"/><rect fill="#FFFFFF" filter="url(#fqna7sk7owz0u)" height="30.3516" style="stroke:#A80036;stroke-width:1.0;" width="10" x="1624" y="732.8984"/><rect fill="#FFFFFF" filter="url(#fqna7sk7owz0u)" height="30.3516" style="stroke:#A80036;stroke-width:1.0;" width="10" x="1624" y="987.0625"/><rect fill="#FFFFFF" filter="url(#fqna7sk7owz0u)" height="87.0547" style="stroke:#A80036;stroke-width:1.0;" width="10" x="1767" y="1073.1172"/><path d="M5,104.6094 L5,179.6094 L551,179.6094 L551,114.6094 L541,104.6094 L5,104.6094 " fill="#FBFB77" filter="url(#fqna7sk7owz0u)" style="stroke:#A80036;stroke-width:1.0;"/><path d="M541,104.6094 L541,114.6094 L551,114.6094 L541,104.6094 " fill="#FBFB77" style="stroke:#A80036;stroke-width:1.0;"/><text fill="#000000" font-family="sans-serif" font-size="13" lengthAdjust="spacing" textLength="521" x="11" y="123.1045">Besides the functionality that was asked to be developed, (show customer's orders status)</text><text fill="#000000" font-family="sans-serif" font-size="13" lengthAdjust="spacing" textLength="500" x="15" y="139.4561">this design will also cover the additional feature that was added by the developing team</text><text fill="#000000" font-family="sans-serif" font-size="13" lengthAdjust="spacing" textLength="511" x="15" y="155.8076">which basically consists in checking for further detailed information about a chosen order</text><text fill="#000000" font-family="sans-serif" font-size="13" lengthAdjust="spacing" textLength="381" x="15" y="172.1592">(such as the products it contains, and their respective information)</text><polygon fill="#A80036" points="710.5,207.3672,720.5,211.3672,710.5,215.3672,714.5,211.3672" style="stroke:#A80036;stroke-width:1.0;"/><line style="stroke:#A80036;stroke-width:1.0;" x1="284.5" x2="716.5" y1="211.3672" y2="211.3672"/><text fill="#000000" font-family="sans-serif" font-size="13" font-weight="bold" lengthAdjust="spacing" textLength="7" x="291.5" y="206.5107">1</text><text fill="#000000" font-family="sans-serif" font-size="13" lengthAdjust="spacing" textLength="286" x="302.5" y="206.5107">starts process of fetching customer's order status</text><polygon fill="#A80036" points="906.5,237.7188,916.5,241.7188,906.5,245.7188,910.5,241.7188" style="stroke:#A80036;stroke-width:1.0;"/><line style="stroke:#A80036;stroke-width:1.0;" x1="732.5" x2="912.5" y1="241.7188" y2="241.7188"/><text fill="#000000" font-family="sans-serif" font-size="13" font-weight="bold" lengthAdjust="spacing" textLength="7" x="739.5" y="236.8623">2</text><text fill="#000000" font-family="sans-serif" font-size="13" lengthAdjust="spacing" textLength="131" x="750.5" y="236.8623">startsCommunication()</text><polygon fill="#A80036" points="1073.5,268.0703,1083.5,272.0703,1073.5,276.0703,1077.5,272.0703" style="stroke:#A80036;stroke-width:1.0;"/><line style="stroke:#A80036;stroke-width:1.0;" x1="928.5" x2="1079.5" y1="272.0703" y2="272.0703"/><text fill="#000000" font-family="sans-serif" font-size="13" font-weight="bold" lengthAdjust="spacing" textLength="7" x="935.5" y="267.2139">3</text><text fill="#000000" font-family="sans-serif" font-size="13" lengthAdjust="spacing" textLength="127" x="946.5" y="267.2139">Starts communication</text><polygon fill="#A80036" points="1228.5,298.4219,1238.5,302.4219,1228.5,306.4219,1232.5,302.4219" style="stroke:#A80036;stroke-width:1.0;"/><line style="stroke:#A80036;stroke-width:1.0;stroke-dasharray:2.0,2.0;" x1="1090.5" x2="1234.5" y1="302.4219" y2="302.4219"/><text fill="#000000" font-family="sans-serif" font-size="13" font-weight="bold" lengthAdjust="spacing" textLength="7" x="1097.5" y="297.5654">4</text><text fill="#000000" font-family="sans-serif" font-size="13" lengthAdjust="spacing" textLength="110" x="1108.5" y="297.5654">creates new thread</text><rect fill="#FEFECE" filter="url(#fqna7sk7owz0u)" height="31.6094" style="stroke:#A80036;stroke-width:1.5;" width="150" x="1240.5" y="280.0703"/><text fill="#000000" font-family="sans-serif" font-size="14" lengthAdjust="spacing" textLength="136" x="1247.5" y="301.6035">:OrdersServerThread</text><path d="M1148,331.6797 L1148,357.6797 L1483,357.6797 L1483,341.6797 L1473,331.6797 L1148,331.6797 " fill="#FBFB77" filter="url(#fqna7sk7owz0u)" style="stroke:#A80036;stroke-width:1.0;"/><path d="M1473,331.6797 L1473,341.6797 L1483,341.6797 L1473,331.6797 " fill="#FBFB77" style="stroke:#A80036;stroke-width:1.0;"/><text fill="#000000" font-family="sans-serif" font-size="13" lengthAdjust="spacing" textLength="314" x="1154" y="350.1748">for each client connected, a new thread will be created</text><polygon fill="#A80036" points="1300.5,385.3828,1310.5,389.3828,1300.5,393.3828,1304.5,389.3828" style="stroke:#A80036;stroke-width:1.0;"/><line style="stroke:#A80036;stroke-width:1.0;" x1="928.5" x2="1306.5" y1="389.3828" y2="389.3828"/><text fill="#000000" font-family="sans-serif" font-size="13" font-weight="bold" lengthAdjust="spacing" textLength="7" x="935.5" y="384.5264">5</text><text fill="#000000" font-family="sans-serif" font-size="13" lengthAdjust="spacing" textLength="176" x="946.5" y="384.5264">sends COMM_TEST message</text><polygon fill="#A80036" points="934.5,415.7344,924.5,419.7344,934.5,423.7344,930.5,419.7344" style="stroke:#A80036;stroke-width:1.0;"/><line style="stroke:#A80036;stroke-width:1.0;stroke-dasharray:2.0,2.0;" x1="928.5" x2="1311.5" y1="419.7344" y2="419.7344"/><text fill="#000000" font-family="sans-serif" font-size="13" font-weight="bold" lengthAdjust="spacing" textLength="7" x="940.5" y="414.8779">6</text><text fill="#000000" font-family="sans-serif" font-size="13" lengthAdjust="spacing" textLength="176" x="951.5" y="414.8779">returns acknowledge message</text><polygon fill="#A80036" points="906.5,446.0859,916.5,450.0859,906.5,454.0859,910.5,450.0859" style="stroke:#A80036;stroke-width:1.0;"/><line style="stroke:#A80036;stroke-width:1.0;" x1="732.5" x2="912.5" y1="450.0859" y2="450.0859"/><text fill="#000000" font-family="sans-serif" font-size="13" font-weight="bold" lengthAdjust="spacing" textLength="7" x="739.5" y="445.2295">7</text><text fill="#000000" font-family="sans-serif" font-size="13" lengthAdjust="spacing" textLength="59" x="750.5" y="445.2295">getEmail()</text><polygon fill="#A80036" points="906.5,506.4375,916.5,510.4375,906.5,514.4375,910.5,510.4375" style="stroke:#A80036;stroke-width:1.0;"/><line style="stroke:#A80036;stroke-width:1.0;" x1="732.5" x2="912.5" y1="510.4375" y2="510.4375"/><text fill="#000000" font-family="sans-serif" font-size="13" font-weight="bold" lengthAdjust="spacing" textLength="7" x="739.5" y="505.5811">8</text><text fill="#000000" font-family="sans-serif" font-size="13" lengthAdjust="spacing" textLength="100" x="750.5" y="505.5811">sendEmail(email)</text><polygon fill="#A80036" points="1300.5,536.7891,1310.5,540.7891,1300.5,544.7891,1304.5,540.7891" style="stroke:#A80036;stroke-width:1.0;"/><line style="stroke:#A80036;stroke-width:1.0;" x1="928.5" x2="1306.5" y1="540.7891" y2="540.7891"/><text fill="#000000" font-family="sans-serif" font-size="13" font-weight="bold" lengthAdjust="spacing" textLength="7" x="935.5" y="535.9326">9</text><text fill="#000000" font-family="sans-serif" font-size="13" lengthAdjust="spacing" textLength="188" x="946.5" y="535.9326">sends CUSTOMER_ID message</text><polygon fill="#A80036" points="1463,567.1406,1473,571.1406,1463,575.1406,1467,571.1406" style="stroke:#A80036;stroke-width:1.0;"/><line style="stroke:#A80036;stroke-width:1.0;" x1="1322.5" x2="1469" y1="571.1406" y2="571.1406"/><text fill="#000000" font-family="sans-serif" font-size="13" font-weight="bold" lengthAdjust="spacing" textLength="14" x="1329.5" y="566.2842">10</text><text fill="#000000" font-family="sans-serif" font-size="13" lengthAdjust="spacing" textLength="108" x="1347.5" y="566.2842">findByEmail(email)</text><polygon fill="#A80036" points="1333.5,597.4922,1323.5,601.4922,1333.5,605.4922,1329.5,601.4922" style="stroke:#A80036;stroke-width:1.0;"/><line style="stroke:#A80036;stroke-width:1.0;stroke-dasharray:2.0,2.0;" x1="1327.5" x2="1479" y1="601.4922" y2="601.4922"/><text fill="#000000" font-family="sans-serif" font-size="13" font-weight="bold" lengthAdjust="spacing" textLength="14" x="1339.5" y="596.6357">11</text><text fill="#000000" font-family="sans-serif" font-size="13" lengthAdjust="spacing" textLength="100" x="1357.5" y="596.6357">returns Customer</text><path d="M1194,614.4922 L1194,640.4922 L1437,640.4922 L1437,624.4922 L1427,614.4922 L1194,614.4922 " fill="#FBFB77" filter="url(#fqna7sk7owz0u)" style="stroke:#A80036;stroke-width:1.0;"/><path d="M1427,614.4922 L1427,624.4922 L1437,624.4922 L1427,614.4922 " fill="#FBFB77" style="stroke:#A80036;stroke-width:1.0;"/><text fill="#000000" font-family="sans-serif" font-size="13" lengthAdjust="spacing" textLength="222" x="1200" y="632.9873">client is now connected to the session</text><polygon fill="#A80036" points="906.5,668.1953,916.5,672.1953,906.5,676.1953,910.5,672.1953" style="stroke:#A80036;stroke-width:1.0;"/><line style="stroke:#A80036;stroke-width:1.0;" x1="732.5" x2="912.5" y1="672.1953" y2="672.1953"/><text fill="#000000" font-family="sans-serif" font-size="13" font-weight="bold" lengthAdjust="spacing" textLength="14" x="739.5" y="667.3389">12</text><text fill="#000000" font-family="sans-serif" font-size="13" lengthAdjust="spacing" textLength="129" x="757.5" y="667.3389">getClientOrderStatus()</text><polygon fill="#A80036" points="1300.5,698.5469,1310.5,702.5469,1300.5,706.5469,1304.5,702.5469" style="stroke:#A80036;stroke-width:1.0;"/><line style="stroke:#A80036;stroke-width:1.0;" x1="928.5" x2="1306.5" y1="702.5469" y2="702.5469"/><text fill="#000000" font-family="sans-serif" font-size="13" font-weight="bold" lengthAdjust="spacing" textLength="14" x="935.5" y="697.6904">13</text><text fill="#000000" font-family="sans-serif" font-size="13" lengthAdjust="spacing" textLength="202" x="953.5" y="697.6904">sends CLIENT_ORDERS message</text><polygon fill="#A80036" points="1612,728.8984,1622,732.8984,1612,736.8984,1616,732.8984" style="stroke:#A80036;stroke-width:1.0;"/><line style="stroke:#A80036;stroke-width:1.0;" x1="1322.5" x2="1618" y1="732.8984" y2="732.8984"/><text fill="#000000" font-family="sans-serif" font-size="13" font-weight="bold" lengthAdjust="spacing" textLength="14" x="1329.5" y="728.042">14</text><text fill="#000000" font-family="sans-serif" font-size="13" lengthAdjust="spacing" textLength="131" x="1347.5" y="728.042">findClientOrders(client)</text><polygon fill="#A80036" points="1333.5,759.25,1323.5,763.25,1333.5,767.25,1329.5,763.25" style="stroke:#A80036;stroke-width:1.0;"/><line style="stroke:#A80036;stroke-width:1.0;stroke-dasharray:2.0,2.0;" x1="1327.5" x2="1628" y1="763.25" y2="763.25"/><text fill="#000000" font-family="sans-serif" font-size="13" font-weight="bold" lengthAdjust="spacing" textLength="14" x="1339.5" y="758.3936">15</text><text fill="#000000" font-family="sans-serif" font-size="13" lengthAdjust="spacing" textLength="177" x="1357.5" y="758.3936">returns client's orders &amp; status</text><polygon fill="#A80036" points="934.5,789.6016,924.5,793.6016,934.5,797.6016,930.5,793.6016" style="stroke:#A80036;stroke-width:1.0;"/><line style="stroke:#A80036;stroke-width:1.0;stroke-dasharray:2.0,2.0;" x1="928.5" x2="1311.5" y1="793.6016" y2="793.6016"/><text fill="#000000" font-family="sans-serif" font-size="13" font-weight="bold" lengthAdjust="spacing" textLength="14" x="940.5" y="788.7451">16</text><text fill="#000000" font-family="sans-serif" font-size="13" lengthAdjust="spacing" textLength="278" x="958.5" y="788.7451">returns acknowledge message along with orders</text><polygon fill="#A80036" points="295.5,836.3047,285.5,840.3047,295.5,844.3047,291.5,840.3047" style="stroke:#A80036;stroke-width:1.0;"/><line style="stroke:#A80036;stroke-width:1.0;stroke-dasharray:2.0,2.0;" x1="289.5" x2="721.5" y1="840.3047" y2="840.3047"/><text fill="#000000" font-family="sans-serif" font-size="13" font-weight="bold" lengthAdjust="spacing" textLength="14" x="301.5" y="827.2725">17</text><text fill="#000000" font-family="sans-serif" font-size="13" lengthAdjust="spacing" textLength="396" x="319.5" y="819.0967">shows orders' details  and asks user if they want to see more details</text><text fill="#000000" font-family="sans-serif" font-size="13" lengthAdjust="spacing" textLength="178" x="323.5" y="835.4482">about a certain order displayed</text><path d="M236,855.3047 L297,855.3047 L297,863.3047 L287,873.3047 L236,873.3047 L236,855.3047 " fill="#EEEEEE" style="stroke:#000000;stroke-width:1.0;"/><rect fill="none" height="380.5703" style="stroke:#000000;stroke-width:2.0;" width="1625.5" x="236" y="855.3047"/><text fill="#000000" font-family="sans-serif" font-size="13" font-weight="bold" lengthAdjust="spacing" textLength="16" x="251" y="869.7998">alt</text><text fill="#000000" font-family="sans-serif" font-size="11" font-weight="bold" lengthAdjust="spacing" textLength="237" x="312" y="868.7236">[if user wants to check any order's details]</text><polygon fill="#A80036" points="710.5,892.0078,720.5,896.0078,710.5,900.0078,714.5,896.0078" style="stroke:#A80036;stroke-width:1.0;"/><line style="stroke:#A80036;stroke-width:1.0;" x1="284.5" x2="716.5" y1="896.0078" y2="896.0078"/><text fill="#000000" font-family="sans-serif" font-size="13" font-weight="bold" lengthAdjust="spacing" textLength="14" x="291.5" y="891.1514">18</text><text fill="#000000" font-family="sans-serif" font-size="13" lengthAdjust="spacing" textLength="151" x="309.5" y="891.1514">inputs data (chosen order)</text><polygon fill="#A80036" points="906.5,922.3594,916.5,926.3594,906.5,930.3594,910.5,926.3594" style="stroke:#A80036;stroke-width:1.0;"/><line style="stroke:#A80036;stroke-width:1.0;" x1="732.5" x2="912.5" y1="926.3594" y2="926.3594"/><text fill="#000000" font-family="sans-serif" font-size="13" font-weight="bold" lengthAdjust="spacing" textLength="14" x="739.5" y="921.5029">19</text><text fill="#000000" font-family="sans-serif" font-size="13" lengthAdjust="spacing" textLength="149" x="757.5" y="921.5029">getOrderProducts(orderId)</text><polygon fill="#A80036" points="1300.5,952.7109,1310.5,956.7109,1300.5,960.7109,1304.5,956.7109" style="stroke:#A80036;stroke-width:1.0;"/><line style="stroke:#A80036;stroke-width:1.0;" x1="928.5" x2="1306.5" y1="956.7109" y2="956.7109"/><text fill="#000000" font-family="sans-serif" font-size="13" font-weight="bold" lengthAdjust="spacing" textLength="14" x="935.5" y="951.8545">20</text><text fill="#000000" font-family="sans-serif" font-size="13" lengthAdjust="spacing" textLength="248" x="953.5" y="951.8545">sends ORDER_DETAILED_INFO message</text><polygon fill="#A80036" points="1612,983.0625,1622,987.0625,1612,991.0625,1616,987.0625" style="stroke:#A80036;stroke-width:1.0;"/><line style="stroke:#A80036;stroke-width:1.0;" x1="1322.5" x2="1618" y1="987.0625" y2="987.0625"/><text fill="#000000" font-family="sans-serif" font-size="13" font-weight="bold" lengthAdjust="spacing" textLength="14" x="1329.5" y="982.2061">21</text><text fill="#000000" font-family="sans-serif" font-size="13" lengthAdjust="spacing" textLength="151" x="1347.5" y="982.2061">findOrderProducts(orderId)</text><polygon fill="#A80036" points="1333.5,1013.4141,1323.5,1017.4141,1333.5,1021.4141,1329.5,1017.4141" style="stroke:#A80036;stroke-width:1.0;"/><line style="stroke:#A80036;stroke-width:1.0;stroke-dasharray:2.0,2.0;" x1="1327.5" x2="1628" y1="1017.4141" y2="1017.4141"/><text fill="#000000" font-family="sans-serif" font-size="13" font-weight="bold" lengthAdjust="spacing" textLength="14" x="1339.5" y="1012.5576">22</text><text fill="#000000" font-family="sans-serif" font-size="13" lengthAdjust="spacing" textLength="136" x="1357.5" y="1012.5576">returns order's products</text><path d="M1051,1032.4141 L1124,1032.4141 L1124,1040.4141 L1114,1050.4141 L1051,1050.4141 L1051,1032.4141 " fill="#EEEEEE" style="stroke:#000000;stroke-width:1.0;"/><rect fill="none" height="135.7578" style="stroke:#000000;stroke-width:2.0;" width="800.5" x="1051" y="1032.4141"/><text fill="#000000" font-family="sans-serif" font-size="13" font-weight="bold" lengthAdjust="spacing" textLength="28" x="1066" y="1046.9092">loop</text><text fill="#000000" font-family="sans-serif" font-size="11" font-weight="bold" lengthAdjust="spacing" textLength="191" x="1139" y="1045.833">[for each product inside the order]</text><polygon fill="#A80036" points="1755,1069.1172,1765,1073.1172,1755,1077.1172,1759,1073.1172" style="stroke:#A80036;stroke-width:1.0;"/><line style="stroke:#A80036;stroke-width:1.0;" x1="1322.5" x2="1761" y1="1073.1172" y2="1073.1172"/><text fill="#000000" font-family="sans-serif" font-size="13" font-weight="bold" lengthAdjust="spacing" textLength="14" x="1329.5" y="1068.2607">23</text><text fill="#000000" font-family="sans-serif" font-size="13" lengthAdjust="spacing" textLength="128" x="1347.5" y="1068.2607">findById(orderProduct)</text><path d="M1061,1086.1172 L1061,1128.1172 L1570,1128.1172 L1570,1096.1172 L1560,1086.1172 L1061,1086.1172 " fill="#FBFB77" filter="url(#fqna7sk7owz0u)" style="stroke:#A80036;stroke-width:1.0;"/><path d="M1560,1086.1172 L1560,1096.1172 L1570,1096.1172 L1560,1086.1172 " fill="#FBFB77" style="stroke:#A80036;stroke-width:1.0;"/><text fill="#000000" font-family="sans-serif" font-size="13" lengthAdjust="spacing" textLength="488" x="1067" y="1104.6123">for each product inside the order, the respective information (price, name description)</text><text fill="#000000" font-family="sans-serif" font-size="13" lengthAdjust="spacing" textLength="241" x="1071" y="1120.9639">will be fetched from the product repository</text><polygon fill="#A80036" points="1333.5,1156.1719,1323.5,1160.1719,1333.5,1164.1719,1329.5,1160.1719" style="stroke:#A80036;stroke-width:1.0;"/><line style="stroke:#A80036;stroke-width:1.0;stroke-dasharray:2.0,2.0;" x1="1327.5" x2="1771" y1="1160.1719" y2="1160.1719"/><text fill="#000000" font-family="sans-serif" font-size="13" font-weight="bold" lengthAdjust="spacing" textLength="14" x="1339.5" y="1155.3154">24</text><text fill="#000000" font-family="sans-serif" font-size="13" lengthAdjust="spacing" textLength="163" x="1357.5" y="1155.3154">returns product's information</text><polygon fill="#A80036" points="934.5,1193.5234,924.5,1197.5234,934.5,1201.5234,930.5,1197.5234" style="stroke:#A80036;stroke-width:1.0;"/><line style="stroke:#A80036;stroke-width:1.0;stroke-dasharray:2.0,2.0;" x1="928.5" x2="1311.5" y1="1197.5234" y2="1197.5234"/><text fill="#000000" font-family="sans-serif" font-size="13" font-weight="bold" lengthAdjust="spacing" textLength="14" x="940.5" y="1192.667">25</text><text fill="#000000" font-family="sans-serif" font-size="13" lengthAdjust="spacing" textLength="247" x="958.5" y="1192.667">returns detailed information about the order</text><polygon fill="#A80036" points="295.5,1223.875,285.5,1227.875,295.5,1231.875,291.5,1227.875" style="stroke:#A80036;stroke-width:1.0;"/><line style="stroke:#A80036;stroke-width:1.0;stroke-dasharray:2.0,2.0;" x1="289.5" x2="721.5" y1="1227.875" y2="1227.875"/><text fill="#000000" font-family="sans-serif" font-size="13" font-weight="bold" lengthAdjust="spacing" textLength="14" x="301.5" y="1223.0186">26</text><text fill="#000000" font-family="sans-serif" font-size="13" lengthAdjust="spacing" textLength="330" x="319.5" y="1223.0186">shows detailed information about chosen order (products)</text><path d="M120,1247.875 L120,1273.875 L434,1273.875 L434,1257.875 L424,1247.875 L120,1247.875 " fill="#FBFB77" filter="url(#fqna7sk7owz0u)" style="stroke:#A80036;stroke-width:1.0;"/><path d="M424,1247.875 L424,1257.875 L434,1257.875 L424,1247.875 " fill="#FBFB77" style="stroke:#A80036;stroke-width:1.0;"/><text fill="#000000" font-family="sans-serif" font-size="13" lengthAdjust="spacing" textLength="293" x="126" y="1266.3701">functionality repeats until user exits the application</text><!--MD5=[48efdb18c8ffd3aadc43ccc21357d6d7]
@startuml
autonumber
actor Customer as T
activate T
note over T : Besides the functionality that was asked to be developed, (show customer's orders status) \n this design will also cover the additional feature that was added by the developing team \n which basically consists in checking for further detailed information about a chosen order \n (such as the products it contains, and their respective information)
T -> ":CheckOrdersUI" : starts process of fetching customer's order status
activate ":CheckOrdersUI"


":CheckOrdersUI" -> ":ClientOrderController" : startsCommunication()
activate ":ClientOrderController"

":ClientOrderController" -> ":OrdersServer" : Starts communication
activate ":OrdersServer"
create ":OrdersServerThread"
":OrdersServer" - -> ":OrdersServerThread" :creates new thread
note over ":OrdersServerThread" : for each client connected, a new thread will be created
deactivate ":OrdersServer"
activate ":OrdersServerThread"
":ClientOrderController" -> ":OrdersServerThread" : sends COMM_TEST message
":OrdersServerThread" - -> ":ClientOrderController" : returns acknowledge message
deactivate ":ClientOrderController"
":CheckOrdersUI" -> ":ClientOrderController" : getEmail()
activate ":ClientOrderController"
deactivate ":ClientOrderController"
":CheckOrdersUI" -> ":ClientOrderController" : sendEmail(email)
activate ":ClientOrderController"

":ClientOrderController" -> ":OrdersServerThread" : sends CUSTOMER_ID message
":OrdersServerThread" -> ":CustomerRepository" : findByEmail(email)
activate ":CustomerRepository"
":OrdersServerThread" <- - ":CustomerRepository" : returns Customer
deactivate ":CustomerRepository"
note over ":OrdersServerThread" : client is now connected to the session
deactivate ":ClientOrderController"

":CheckOrdersUI" -> ":ClientOrderController" : getClientOrderStatus()
activate ":ClientOrderController"
":ClientOrderController" -> ":OrdersServerThread" : sends CLIENT_ORDERS message



":OrdersServerThread" -> ":OrderRepository" : findClientOrders(client)
activate ":OrderRepository"
":OrdersServerThread" <- - ":OrderRepository" : returns client's orders & status
deactivate ":OrderRepository"
":OrdersServerThread" - -> ":ClientOrderController" : returns acknowledge message along with orders
deactivate ":ClientOrderController"
":CheckOrdersUI" - -> T : shows orders' details  and asks user if they want to see more details\n about a certain order displayed
alt if user wants to check any order's details
T -> ":CheckOrdersUI" : inputs data (chosen order)
":CheckOrdersUI" -> ":ClientOrderController" : getOrderProducts(orderId)
activate ":ClientOrderController"
":ClientOrderController" -> ":OrdersServerThread" : sends ORDER_DETAILED_INFO message
":OrdersServerThread" -> ":OrderRepository" : findOrderProducts(orderId)
activate ":OrderRepository"
":OrdersServerThread" <- - ":OrderRepository" : returns order's products
deactivate ":OrderRepository"
loop for each product inside the order
":OrdersServerThread" -> ":ProductRepository" : findById(orderProduct)
activate ":ProductRepository"
note over ":OrdersServerThread" : for each product inside the order, the respective information (price, name description)\n will be fetched from the product repository
":OrdersServerThread" <- - ":ProductRepository" : returns product's information
deactivate ":ProductRepository"

end
":OrdersServerThread" - -> ":ClientOrderController" : returns detailed information about the order
deactivate ":ClientOrderController"
":CheckOrdersUI" - -> T : shows detailed information about chosen order (products)



end
note over T : functionality repeats until user exits the application
@enduml

PlantUML version 1.2021.11(Sat Oct 02 14:26:11 BST 2021)
(GPL source distribution)
Java Runtime: OpenJDK Runtime Environment
JVM: OpenJDK 64-Bit Server VM
Default Encoding: Cp1252
Language: pt
Country: PT
--></g></svg>